{"glyphs":{"0":{"ha":912,"x_min":41,"x_max":858,"o":"m 486 984 q 858 446 858 825 l 858 372 q 524 19 858 163 l 449 19 q 115 260 115 130 q 41 409 66 260 l 41 557 q 412 966 96 966 q 486 984 421 966 m 208 520 l 208 465 q 449 204 208 326 q 690 427 690 234 l 690 465 q 524 762 690 624 q 375 836 389 836 q 208 520 262 836 z "},"1":{"ha":764,"x_min":41,"x_max":709,"o":"m 375 1077 l 393 1077 q 505 984 505 1077 q 431 186 468 866 q 449 130 449 150 q 431 75 431 94 l 468 75 l 690 93 l 709 -37 q 542 -111 646 -93 q 41 0 41 -84 l 41 37 q 152 93 59 93 l 264 93 l 264 390 q 282 409 264 409 q 264 427 282 427 q 282 836 282 472 q 78 762 171 762 q 41 799 41 762 l 41 817 q 338 1040 41 932 q 375 1077 344 1077 z "},"2":{"ha":893,"x_min":41,"x_max":839,"o":"m 431 966 q 672 631 672 966 l 672 594 q 412 56 672 297 q 561 37 561 56 l 597 56 q 654 37 618 56 l 765 56 q 839 -56 839 -38 q 728 -149 809 -149 l 690 -130 q 672 -149 672 -130 q 115 -111 516 -130 l 96 -18 l 96 19 q 505 538 505 357 l 505 669 q 449 780 505 765 l 356 780 q 134 594 270 780 l 96 594 q 41 669 50 594 q 356 966 131 966 l 431 966 z "},"3":{"ha":782,"x_min":41,"x_max":728,"o":"m 300 1114 l 412 1114 q 616 892 566 1114 l 616 817 q 542 669 616 750 q 728 353 728 520 q 338 -37 629 -37 l 282 -37 q 96 111 115 -37 l 96 130 q 152 186 96 157 q 375 168 345 168 q 542 390 542 211 q 412 501 542 465 q 227 446 266 446 q 134 538 152 446 q 393 762 227 689 l 449 836 q 282 947 449 947 l 264 947 q 152 854 264 924 l 78 854 q 41 892 78 892 l 41 947 q 300 1114 41 1019 z "},"4":{"ha":1116,"x_min":41,"x_max":1062,"o":"m 505 1059 q 672 409 561 972 q 690 372 690 409 l 802 372 q 876 390 844 372 q 1062 260 1062 390 l 1062 241 q 895 168 1062 190 q 747 186 823 186 l 747 168 q 802 -56 802 -28 q 747 -130 774 -130 l 654 -130 q 616 -74 654 -100 q 542 204 591 204 l 245 204 l 115 186 q 41 334 41 253 q 431 1040 406 1040 q 505 1059 463 1059 m 282 390 l 524 390 q 449 706 468 488 q 282 390 351 627 z "},"5":{"ha":930,"x_min":41,"x_max":876,"o":"m 115 1021 l 171 1021 q 208 966 208 1021 l 747 966 q 821 836 821 936 l 821 817 q 765 762 821 791 l 616 762 q 597 780 597 762 l 561 762 q 542 780 542 762 l 412 762 l 319 762 q 300 780 300 762 q 245 743 245 762 l 264 576 q 542 631 414 631 q 876 223 808 631 q 431 -149 817 -149 l 300 -149 q 245 -93 274 -149 l 245 -37 q 319 37 245 -8 l 356 37 q 375 19 375 37 q 709 241 709 70 q 486 427 709 395 l 468 427 q 245 334 335 401 l 227 334 q 96 594 96 334 q 41 966 96 671 l 115 1021 z "},"6":{"ha":857,"x_min":41,"x_max":802,"o":"m 579 1096 q 783 1021 783 1082 l 783 1003 l 765 910 l 654 910 q 635 928 635 910 q 227 557 227 854 q 208 446 208 557 l 227 446 q 393 520 326 520 l 449 520 q 802 204 688 520 l 802 111 q 542 -186 718 -186 l 449 -186 q 41 520 41 -85 q 319 1021 41 823 q 579 1096 362 1064 m 264 204 q 505 0 360 0 q 635 186 635 56 q 431 334 535 334 q 264 204 304 302 z "},"7":{"ha":930,"x_min":41,"x_max":876,"o":"m 78 1040 l 171 1040 q 189 1021 189 1040 l 227 1040 l 264 1040 l 375 1021 q 393 1040 393 1021 q 728 984 686 984 q 783 1003 764 1003 q 876 817 876 933 q 765 446 843 817 q 542 -56 721 385 l 505 -74 l 449 -74 q 393 19 407 -74 q 505 297 393 117 q 672 799 672 753 l 654 799 q 319 854 319 842 l 282 836 l 208 836 q 189 854 189 836 l 152 836 q 41 947 41 836 q 78 1040 78 1008 z "},"8":{"ha":838,"x_min":41,"x_max":783,"o":"m 356 1189 l 375 1189 q 709 836 591 1189 l 709 780 q 616 520 709 672 q 783 241 783 520 q 524 -149 751 -149 l 524 -167 q 96 279 96 -167 q 208 501 96 355 l 208 538 q 41 854 104 538 l 41 873 q 356 1189 41 1140 m 189 873 q 412 650 241 650 q 542 817 542 650 q 319 984 542 947 q 189 873 189 939 m 264 223 q 449 37 307 37 q 616 260 616 37 q 449 409 616 358 q 264 223 264 365 z "},"9":{"ha":857,"x_min":41,"x_max":802,"o":"m 449 1114 l 468 1114 q 765 594 723 1114 q 802 130 802 202 l 802 111 q 690 -37 802 -37 q 616 56 641 -30 q 635 204 635 158 q 616 390 635 228 q 524 353 524 390 q 41 780 41 417 q 449 1114 117 1114 m 208 743 q 505 557 304 557 q 579 743 556 557 l 579 817 q 431 928 516 928 q 208 743 243 928 z "}," ":{"ha":555,"x_min":0,"x_max":0,"o":""}," ":{"ha":555,"x_min":0,"x_max":0,"o":""},"!":{"ha":318,"x_min":41,"x_max":264,"o":"m 96 1133 l 152 1133 q 227 465 189 1095 l 152 409 l 134 409 q 59 557 85 409 l 59 743 l 41 854 q 59 873 41 873 l 41 966 l 41 1077 q 96 1133 41 1104 m 208 279 q 264 149 264 172 q 208 75 236 75 q 96 186 96 75 q 208 279 108 241 z "},"\"":{"ha":559,"x_min":41,"x_max":505,"o":"m 96 1225 l 152 1225 q 227 966 214 1225 q 134 873 195 873 q 41 1189 41 873 l 96 1225 m 375 1225 l 431 1225 q 505 984 481 1225 q 412 854 483 854 q 338 910 338 882 l 338 966 l 319 1189 l 375 1225 z "},"#":{"ha":1154,"x_min":41,"x_max":1099,"o":"m 338 984 q 431 910 422 948 l 431 724 l 654 724 q 728 928 686 724 q 783 947 747 928 q 858 836 858 928 l 858 724 l 876 724 q 1025 743 892 724 l 1080 669 l 1080 613 q 1025 538 1025 566 q 951 576 951 553 l 913 557 l 895 557 l 858 576 l 839 538 l 839 409 l 876 409 l 969 427 l 969 409 l 1006 427 l 1025 427 q 1099 353 1054 427 l 1099 297 q 1044 241 1099 271 l 932 241 q 913 260 913 241 q 858 241 878 241 l 858 111 q 802 56 858 85 q 690 168 690 56 l 690 241 l 468 241 l 468 149 q 412 93 468 122 q 300 241 300 93 q 227 223 259 241 q 115 334 115 249 l 189 390 l 282 390 l 282 557 l 264 557 l 96 538 q 41 631 41 600 q 245 724 41 715 q 264 706 245 706 l 264 873 q 338 984 264 966 m 654 557 l 449 557 l 449 409 l 690 409 l 690 427 q 672 446 690 446 l 690 538 l 690 576 l 654 557 z "},"$":{"ha":745,"x_min":41,"x_max":690,"o":"m 431 1021 l 468 1021 q 635 854 468 907 q 654 799 654 819 l 616 780 l 505 780 q 486 706 505 706 q 635 446 505 446 q 690 297 690 353 l 690 260 q 561 75 654 75 l 561 0 l 579 -111 q 524 -186 551 -186 l 468 -186 q 412 -74 412 -167 l 412 19 l 319 19 q 134 111 176 19 l 134 168 q 208 223 161 168 l 227 223 l 300 168 l 393 168 l 393 334 q 152 427 391 361 q 41 557 58 557 q 375 928 41 808 q 431 1021 380 1021 m 208 613 q 356 520 260 520 l 356 780 q 208 613 208 722 z "},"%":{"ha":986,"x_min":41,"x_max":932,"o":"m 728 928 l 765 873 q 579 520 765 837 q 300 -93 387 -93 l 264 -93 l 227 -37 l 227 0 q 728 928 552 928 m 189 873 l 300 873 q 412 687 412 798 l 412 650 q 245 465 412 509 q 41 650 115 520 q 189 873 41 873 m 189 743 q 264 613 189 643 q 300 650 300 613 l 300 687 l 245 762 q 189 743 209 743 m 709 316 q 932 168 882 316 l 932 111 q 765 -74 907 -74 q 579 130 642 -74 l 597 130 l 579 168 q 709 316 630 288 z "},"&":{"ha":1061,"x_min":41,"x_max":1006,"o":"m 319 892 q 597 631 500 892 q 431 316 597 530 l 431 297 q 654 93 465 230 q 821 279 716 279 l 839 279 l 839 186 q 821 0 821 80 q 1006 -149 1006 -115 q 932 -241 970 -233 q 709 -111 838 -210 l 690 -111 q 486 -222 558 -222 l 449 -222 q 189 56 262 -222 l 189 204 q 245 279 227 279 q 41 669 41 576 q 319 892 41 852 m 208 724 l 208 706 q 338 446 208 557 q 412 613 412 570 q 264 724 365 724 l 208 724 m 338 168 l 338 130 q 486 -56 338 -37 q 542 0 513 -56 q 338 168 523 0 z "},"'":{"ha":262,"x_min":41,"x_max":208,"o":"m 134 1152 l 152 1152 q 208 1096 179 1152 l 208 928 q 152 817 208 832 l 115 817 q 41 947 41 847 l 41 1003 q 134 1152 41 1104 z "},"(":{"ha":559,"x_min":41,"x_max":505,"o":"m 393 836 l 412 799 l 412 743 q 189 483 234 618 q 505 19 189 223 l 505 -74 q 449 -130 505 -101 q 78 223 310 -130 l 41 353 l 41 409 q 393 836 84 836 z "},")":{"ha":503,"x_min":41,"x_max":449,"o":"m 78 966 l 96 966 q 412 650 286 966 q 449 390 426 627 q 152 0 353 0 l 134 0 q 59 56 59 28 q 245 279 59 136 q 282 427 282 378 q 41 836 282 724 l 41 928 q 78 966 47 966 z "},"*":{"ha":857,"x_min":41,"x_max":802,"o":"m 449 873 l 524 817 l 505 724 l 505 650 q 765 762 702 762 l 802 706 q 561 520 802 592 l 561 483 q 802 186 802 319 q 709 130 741 130 q 561 260 682 130 q 449 93 561 93 q 375 409 387 93 q 134 241 201 302 l 115 241 q 41 316 86 241 l 41 353 q 264 501 41 421 l 264 520 l 134 631 q 115 706 115 664 q 152 762 152 706 q 171 743 171 762 l 245 780 q 338 669 245 722 l 356 669 l 356 799 q 449 873 395 873 z "},"+":{"ha":857,"x_min":41,"x_max":802,"o":"m 375 854 q 486 799 442 854 l 468 669 l 468 613 q 783 538 468 570 q 802 483 783 519 q 672 390 777 390 q 486 409 649 390 l 505 372 l 505 186 q 431 111 505 157 l 412 111 q 338 241 338 142 l 338 409 q 300 427 300 409 l 264 409 l 96 409 q 41 501 54 409 q 78 557 59 557 q 319 576 89 557 l 319 594 q 300 669 300 627 l 319 669 l 300 706 q 375 854 334 854 z "},",":{"ha":429,"x_min":41,"x_max":375,"o":"m 282 -111 l 338 -111 q 375 -149 375 -117 l 375 -167 q 189 -446 375 -226 q 115 -501 189 -464 l 96 -501 q 41 -390 41 -483 q 282 -111 85 -285 z "},"-":{"ha":745,"x_min":41,"x_max":690,"o":"m 375 631 q 431 613 411 613 q 449 631 449 613 q 690 520 690 618 l 635 427 q 356 446 450 446 l 208 446 l 78 427 l 41 483 l 41 520 l 59 613 l 208 613 q 375 631 275 613 z "},".":{"ha":262,"x_min":41,"x_max":208,"o":"m 115 -222 l 152 -222 q 208 -279 179 -222 l 208 -353 q 134 -427 208 -382 l 96 -427 q 41 -371 70 -427 l 41 -279 q 115 -222 68 -279 z "},"/":{"ha":838,"x_min":41,"x_max":783,"o":"m 747 947 q 783 873 747 918 q 431 334 783 808 q 115 -56 197 -56 q 41 0 41 -28 q 449 631 41 99 q 747 947 640 947 z "},":":{"ha":355,"x_min":41,"x_max":300,"o":"m 134 928 l 189 928 q 282 836 214 928 l 282 762 q 189 669 282 736 q 41 817 41 696 l 41 836 q 134 928 41 861 m 189 149 q 300 56 266 123 l 300 19 q 208 -74 300 -6 q 78 75 78 -74 q 189 149 115 149 z "},";":{"ha":392,"x_min":41,"x_max":338,"o":"m 189 892 q 300 762 300 892 q 208 650 300 694 l 171 650 q 78 817 78 683 l 78 836 q 189 892 96 892 m 208 538 q 338 297 300 538 l 338 204 q 152 -74 300 -74 l 78 -74 q 41 0 78 -45 q 171 130 41 130 q 189 204 171 204 q 152 501 152 377 l 208 538 z "},"<":{"ha":857,"x_min":41,"x_max":802,"o":"m 728 910 q 783 836 755 910 q 468 594 783 743 q 245 465 289 465 q 765 168 300 403 l 802 93 q 728 0 766 8 q 115 316 694 0 l 41 390 l 41 427 q 227 631 41 533 q 728 910 649 910 z "},"=":{"ha":764,"x_min":41,"x_max":709,"o":"m 338 836 q 616 724 616 836 q 524 631 616 675 q 338 669 338 646 l 300 650 l 115 650 q 41 724 86 650 l 59 817 l 115 817 q 338 836 241 817 m 134 316 q 412 297 319 297 l 635 297 q 709 186 709 260 l 654 111 q 338 130 435 130 l 171 130 q 59 241 59 130 l 59 260 q 134 316 59 279 z "},">":{"ha":875,"x_min":41,"x_max":821,"o":"m 189 947 l 635 576 q 821 353 821 452 l 821 316 q 171 -167 631 81 q 96 -186 138 -186 q 41 -111 68 -186 q 300 93 41 12 q 616 316 300 128 l 635 353 q 78 799 358 612 l 78 892 q 189 947 96 947 z "},"?":{"ha":596,"x_min":41,"x_max":542,"o":"m 264 1040 l 375 1040 q 542 762 468 1040 q 300 427 542 613 l 300 204 q 282 168 282 204 l 208 168 q 115 446 146 168 q 356 706 115 527 l 375 743 q 282 910 351 910 q 96 799 185 883 q 41 854 70 799 l 41 873 q 264 1040 41 953 m 319 56 q 505 -93 505 56 l 505 -167 q 300 -279 457 -279 q 189 -130 189 -227 l 189 -111 q 319 56 189 1 z "},"@":{"ha":1135,"x_min":41,"x_max":1080,"o":"m 505 1096 l 616 1096 q 932 928 752 1096 q 1080 538 1080 754 l 1080 390 q 783 37 1080 276 l 542 0 l 542 19 q 524 0 524 19 q 41 557 41 0 l 41 650 q 338 1040 41 841 q 505 1096 460 1096 m 189 613 q 486 168 189 168 l 579 168 q 839 353 839 168 l 709 446 l 690 446 q 542 260 690 260 l 524 260 q 356 334 381 260 q 375 353 375 334 l 356 353 q 338 334 356 334 q 264 483 264 413 l 264 538 q 542 854 305 854 l 597 854 q 672 743 616 854 l 690 743 l 672 706 q 839 538 706 704 q 913 501 868 538 l 913 557 q 597 928 815 928 l 579 928 q 189 613 304 928 m 412 483 q 542 427 480 427 l 542 501 l 524 687 l 505 687 q 412 483 412 646 z "},"A":{"ha":1079,"x_min":41,"x_max":1025,"o":"m 542 1133 q 987 706 842 1133 l 969 706 q 1025 465 996 665 q 1006 446 1025 446 q 1025 334 1025 349 q 932 -37 1025 -37 l 895 -37 q 821 37 866 -37 q 858 334 858 309 l 858 353 l 821 353 q 747 334 779 353 q 579 372 714 353 q 524 353 559 372 q 319 372 397 372 l 227 372 l 208 149 l 208 37 q 96 -18 189 -18 q 41 37 96 37 q 59 56 41 56 q 41 75 59 75 l 59 168 l 59 241 q 96 557 65 557 q 78 613 78 593 q 375 1114 144 871 l 542 1133 m 245 613 q 264 557 264 577 q 282 576 282 557 l 375 557 l 616 557 q 690 538 658 557 q 839 557 709 557 q 524 928 781 928 q 264 613 370 928 l 245 613 z "},"B":{"ha":912,"x_min":41,"x_max":858,"o":"m 375 1244 l 412 1225 q 431 1244 431 1225 q 821 892 821 1194 q 690 613 821 755 l 690 594 q 839 241 808 594 q 858 223 858 241 q 616 -37 755 32 q 486 -93 598 -37 q 134 37 134 -93 q 41 1059 96 37 q 375 1244 41 1168 m 208 947 l 227 854 l 208 854 l 227 817 l 227 687 l 356 706 l 468 706 q 635 892 635 787 q 468 1040 635 1040 l 375 1040 q 208 947 208 1040 m 245 465 l 245 446 l 300 130 l 338 130 l 449 111 q 672 316 672 174 q 505 501 616 469 q 245 465 342 465 z "},"C":{"ha":1042,"x_min":41,"x_max":987,"o":"m 524 1040 q 913 836 675 1040 l 913 706 l 839 687 q 542 854 618 854 l 524 854 q 245 687 349 854 q 227 538 227 615 q 486 56 227 235 l 542 56 q 913 223 698 56 l 932 223 q 987 168 959 223 l 987 111 q 505 -149 987 -85 l 486 -149 q 134 168 293 -104 q 41 538 41 410 l 41 594 q 412 1040 41 907 l 524 1040 z "},"D":{"ha":1191,"x_min":41,"x_max":1137,"o":"m 356 1096 l 356 1077 q 412 1096 393 1096 q 1062 780 902 1096 q 1137 576 1137 622 l 1137 557 q 579 -222 1137 186 l 486 -241 q 300 -93 300 -197 q 96 892 227 181 q 41 947 70 892 q 78 1077 41 959 l 264 1077 l 356 1096 m 282 910 l 282 892 q 486 -37 356 450 l 524 -37 q 969 520 969 348 q 709 873 896 768 q 431 910 534 910 l 282 910 z "},"E":{"ha":1172,"x_min":41,"x_max":1118,"o":"m 747 1170 l 747 1152 l 783 1170 l 839 1170 q 858 1152 858 1170 l 895 1170 l 913 1170 l 932 1059 q 839 966 913 978 l 765 984 l 654 966 l 654 984 q 264 928 583 947 q 375 427 333 427 q 1006 557 844 557 q 1062 538 1042 538 l 1062 446 q 412 241 989 367 l 412 223 q 524 -37 474 19 l 1044 56 q 1118 -56 1118 37 q 709 -186 1118 -166 l 542 -222 l 524 -222 q 300 -18 328 -222 q 96 873 171 423 q 41 910 71 910 l 41 1040 q 709 1152 52 1108 q 747 1170 709 1170 z "},"F":{"ha":1005,"x_min":41,"x_max":951,"o":"m 690 1170 l 690 1152 l 728 1170 l 913 1170 q 951 1133 951 1164 l 951 1021 q 876 984 922 1021 l 672 984 q 208 910 572 984 q 245 538 208 833 q 690 594 441 576 l 690 576 l 728 594 l 783 594 q 821 557 821 589 l 821 520 q 747 409 821 409 q 264 353 409 409 q 356 -279 356 -87 q 319 -334 319 -279 l 245 -334 q 41 799 157 -334 l 41 947 q 152 1096 41 1096 l 690 1170 z "},"G":{"ha":1395,"x_min":41,"x_max":1341,"o":"m 747 1077 q 1080 892 1029 988 q 1006 762 1080 791 l 951 762 q 709 892 803 892 l 654 892 q 208 576 351 892 l 208 501 q 597 -93 208 18 q 747 -111 614 -93 l 765 75 l 765 130 l 747 130 l 635 111 q 561 168 561 140 l 561 260 q 616 316 561 287 l 858 316 q 1229 353 873 316 q 1341 297 1341 334 l 1341 279 q 1173 168 1341 168 q 951 130 985 130 l 932 -56 q 1099 93 1099 55 l 1137 93 q 1211 -56 1188 93 l 951 -279 q 895 -408 951 -397 l 821 -408 q 765 -297 765 -390 q 78 149 243 -297 q 41 390 41 316 l 41 594 q 542 1059 41 880 q 747 1077 707 1077 z "},"H":{"ha":1246,"x_min":41,"x_max":1192,"o":"m 115 1021 l 152 1021 q 245 576 221 1021 q 282 501 268 576 q 969 576 427 551 l 969 724 q 951 892 969 791 q 1025 1003 988 1003 l 1062 1003 q 1137 910 1137 964 q 1192 37 1137 750 l 1192 -18 q 1118 -149 1192 -118 q 1006 -74 1006 -111 q 1025 -56 1006 -56 l 1006 -18 l 1006 0 q 1025 19 1006 19 l 1006 56 l 1006 241 l 987 334 q 1006 353 1006 334 q 858 390 858 372 l 821 372 l 672 372 q 597 390 630 372 l 300 334 q 375 -111 300 298 q 300 -241 349 -241 q 152 75 152 -241 q 41 966 41 785 l 115 1021 z "},"I":{"ha":912,"x_min":41,"x_max":858,"o":"m 449 1225 l 449 1207 q 505 1225 485 1225 q 597 1133 554 1213 l 597 1096 q 524 1021 597 1067 l 468 1021 l 431 1040 l 431 1003 q 579 37 431 907 q 616 -37 579 -37 q 821 -18 743 -18 l 839 -18 q 858 -130 858 -116 q 505 -222 858 -222 q 245 -260 505 -260 l 227 -222 l 227 -130 q 412 -56 227 -93 q 245 1021 245 939 l 227 1021 l 115 1003 q 41 1096 41 1021 q 152 1207 41 1207 l 152 1189 l 189 1207 l 356 1207 l 449 1225 z "},"J":{"ha":1042,"x_min":41,"x_max":987,"o":"m 932 1114 q 987 1003 987 1042 q 932 928 960 928 l 728 928 l 690 910 q 821 390 821 591 l 821 279 q 449 -186 721 -186 l 356 -186 q 41 186 139 -186 l 41 241 q 78 279 47 279 l 171 279 q 375 0 194 136 l 393 0 q 635 279 592 0 l 635 409 q 486 910 635 602 q 152 892 228 892 l 115 947 l 115 1021 q 932 1114 115 1088 z "},"K":{"ha":1023,"x_min":41,"x_max":969,"o":"m 115 1207 l 152 1207 q 227 1096 183 1207 q 208 1077 227 1077 q 264 669 249 669 q 783 984 673 984 l 802 984 q 858 892 834 984 q 672 743 858 797 q 393 557 471 557 q 951 168 923 168 l 969 93 q 895 0 933 8 l 839 0 l 338 353 l 319 353 l 393 0 q 282 -111 356 -111 q 171 75 198 -111 l 189 75 q 41 1114 41 734 l 41 1133 q 115 1207 41 1162 z "},"L":{"ha":1135,"x_min":41,"x_max":1080,"o":"m 115 1114 q 208 1040 199 1078 l 208 910 q 319 19 275 19 q 839 93 682 93 l 969 93 q 1080 37 1080 81 l 1080 -37 q 690 -130 1080 -107 l 690 -111 q 245 -204 568 -149 q 78 557 123 -204 q 41 873 47 557 l 41 1059 q 115 1114 41 1086 z "},"M":{"ha":1413,"x_min":41,"x_max":1359,"o":"m 1025 947 q 1341 168 1119 947 q 1359 19 1359 96 q 1285 -93 1359 -56 q 1118 353 1196 -93 q 1006 687 1099 353 q 858 446 951 676 q 709 260 848 446 l 597 260 q 227 650 597 307 l 208 557 l 208 372 q 189 353 208 353 l 208 316 q 189 297 208 297 q 208 241 208 261 q 189 93 208 195 l 227 -111 q 189 -167 189 -111 l 134 -167 q 41 279 41 -167 l 59 316 q 41 390 41 349 l 59 390 q 41 409 59 409 l 59 501 l 59 817 q 152 928 59 928 q 635 501 254 882 q 672 520 672 501 q 1025 947 876 947 z "},"N":{"ha":1320,"x_min":41,"x_max":1266,"o":"m 1173 1096 l 1192 1096 q 1266 928 1225 1096 q 1080 -18 1266 532 l 987 -37 l 319 817 l 282 836 q 264 706 282 779 l 282 669 q 189 -18 227 490 l 152 -18 q 41 19 102 -18 q 59 297 59 204 l 59 372 q 78 390 59 390 q 59 409 78 409 q 171 1059 140 1027 l 208 1059 q 821 446 427 1059 q 987 260 972 260 q 1080 576 1069 576 q 1062 594 1080 594 q 1173 1096 1099 1096 z "},"O":{"ha":1283,"x_min":41,"x_max":1229,"o":"m 728 1114 q 1137 892 983 1076 q 1229 520 1229 690 q 858 -130 1163 -58 q 690 -186 858 -171 q 115 93 248 -186 q 41 372 41 303 l 41 483 q 338 984 41 694 q 728 1114 448 1077 m 208 465 q 486 19 295 19 q 597 -18 486 0 l 635 0 l 672 -18 q 1025 297 900 -18 l 1044 409 l 1044 538 q 616 947 1044 874 q 208 483 368 947 l 208 465 z "},"P":{"ha":1135,"x_min":41,"x_max":1080,"o":"m 524 1263 l 597 1263 q 1080 799 1080 1122 q 635 334 1080 515 l 449 334 l 319 353 l 393 -111 q 300 -204 393 -204 q 41 1040 159 -204 q 171 1133 89 1133 q 524 1263 413 1263 m 245 910 q 282 557 282 611 q 561 538 467 538 l 635 538 q 876 799 876 669 l 876 817 q 542 1077 802 1077 q 245 910 245 996 z "},"Q":{"ha":1358,"x_min":41,"x_max":1303,"o":"m 597 1152 l 821 1152 q 1080 966 898 1029 q 1248 799 1216 799 q 1229 780 1248 780 q 1303 409 1303 647 q 1173 37 1236 37 q 1285 -149 1285 -75 q 1229 -222 1257 -222 l 1137 -222 q 1006 -74 1137 -190 q 616 -149 887 -149 q 59 446 158 -149 q 41 520 59 488 q 375 1059 41 871 q 597 1152 512 1152 m 227 538 q 393 111 254 284 q 561 56 528 56 l 783 56 l 876 75 q 690 390 690 300 l 765 446 l 839 446 q 1044 186 992 203 q 1118 465 1118 290 l 1118 557 q 672 910 1118 836 q 616 966 616 910 q 227 538 227 826 z "},"R":{"ha":1116,"x_min":41,"x_max":1062,"o":"m 505 1263 q 969 966 802 1263 q 1006 706 1006 751 q 765 409 939 488 q 616 353 672 353 l 616 316 q 1062 -74 1062 76 q 1025 -149 1025 -119 l 913 -149 q 579 130 913 -116 q 300 279 326 279 l 300 260 q 393 -130 356 -47 q 319 -241 356 -241 l 245 -241 q 41 724 157 -241 l 59 762 q 41 836 41 794 l 59 836 l 41 873 l 41 1003 q 245 1225 41 1140 l 245 1244 l 282 1225 q 505 1263 317 1225 m 227 892 l 264 501 q 319 520 300 520 l 486 501 q 802 836 802 594 q 542 1059 802 992 q 227 892 253 1059 z "},"S":{"ha":1061,"x_min":41,"x_max":1006,"o":"m 579 1207 l 579 1189 q 597 1207 597 1189 q 895 1040 895 1129 l 876 928 l 839 928 q 597 1003 616 1003 l 524 1003 q 208 799 208 916 q 486 501 240 501 q 913 316 726 501 q 1006 75 987 170 q 505 -241 1006 -241 q 227 -56 227 -208 q 282 0 227 -29 q 561 -56 362 0 q 802 0 591 -56 l 802 75 q 356 316 802 282 q 41 780 41 420 l 41 799 q 542 1207 41 1090 l 579 1207 z "},"T":{"ha":1339,"x_min":41,"x_max":1285,"o":"m 1044 1077 l 1211 1077 q 1285 966 1241 1077 q 1155 854 1285 869 l 969 892 q 728 873 847 873 l 709 873 l 728 780 l 728 557 q 783 -74 728 401 q 728 -167 728 -146 q 561 279 561 -167 l 524 706 l 542 743 l 524 854 q 171 799 282 836 q 41 892 55 836 l 41 947 q 134 1040 41 977 q 189 1021 153 1040 q 1044 1077 790 1077 z "},"U":{"ha":1339,"x_min":41,"x_max":1285,"o":"m 171 1059 l 227 984 l 227 799 q 542 19 227 130 q 597 0 562 19 q 1062 594 995 0 q 1155 1021 1095 914 l 1248 1021 q 1285 799 1285 845 l 1266 799 l 1285 762 q 635 -204 1194 -204 q 96 372 213 -204 q 41 706 41 614 l 41 928 q 171 1059 41 1059 z "},"V":{"ha":1432,"x_min":41,"x_max":1377,"o":"m 1359 1059 q 1377 1003 1377 1023 q 765 37 1377 768 q 505 -130 674 -130 q 319 204 439 -130 q 41 947 227 313 l 41 966 q 171 1040 41 1015 q 449 316 237 959 q 561 93 479 311 q 765 353 582 93 q 1099 836 926 519 q 1359 1059 1225 1059 z "},"W":{"ha":1748,"x_min":41,"x_max":1693,"o":"m 152 1059 l 208 1059 q 505 223 338 572 l 542 223 q 802 762 765 724 l 913 762 q 1229 260 1175 270 l 1248 260 q 1619 1059 1522 1059 l 1675 1059 l 1693 966 l 1693 947 q 1303 0 1452 173 l 1303 -18 q 876 446 1115 -18 l 858 446 q 561 -74 715 103 l 468 -74 q 171 538 419 -73 l 41 966 q 152 1059 52 1059 z "},"X":{"ha":1339,"x_min":41,"x_max":1285,"o":"m 208 1077 l 245 1077 q 635 613 341 1006 q 690 594 671 594 q 1118 947 802 631 q 1192 984 1163 984 q 1285 892 1241 984 q 1118 687 1285 786 q 802 409 1118 671 l 802 390 q 951 223 837 390 q 1192 -149 1192 -35 q 1118 -222 1192 -178 l 1080 -222 q 654 297 1018 -186 q 152 -93 391 120 l 96 -93 q 41 -37 70 -93 l 41 0 q 505 427 41 132 l 524 465 q 115 984 115 928 q 208 1077 127 1034 z "},"Y":{"ha":1154,"x_min":41,"x_max":1099,"o":"m 78 1114 q 96 1096 96 1114 l 134 1114 q 264 780 216 1114 q 486 557 378 557 q 895 892 693 557 l 1025 928 l 1044 928 q 1099 854 1072 928 q 616 334 1049 637 q 597 -56 597 92 l 597 -204 q 542 -315 597 -300 l 486 -315 q 412 -241 457 -315 l 412 -204 q 431 353 412 -18 q 59 836 242 353 q 41 984 41 907 l 41 1040 q 78 1114 78 1085 z "},"Z":{"ha":1246,"x_min":41,"x_max":1192,"o":"m 505 1114 l 505 1096 l 542 1114 q 561 1096 561 1114 l 597 1114 q 1062 984 1062 1114 l 1062 947 q 579 260 1062 780 q 505 149 505 166 q 1137 37 727 93 q 1155 56 1137 56 q 1192 -18 1155 27 l 1192 -93 q 1099 -167 1154 -167 q 245 130 245 -59 l 245 149 q 839 892 770 772 q 765 910 798 892 q 709 892 729 892 l 672 910 q 654 892 654 910 l 561 910 q 152 854 306 910 q 41 966 89 869 l 41 984 q 412 1096 41 1096 l 505 1114 z "},"[":{"ha":633,"x_min":41,"x_max":579,"o":"m 152 984 l 412 966 q 468 984 448 984 l 486 892 l 486 854 q 431 799 486 827 l 319 799 l 227 817 q 189 780 227 780 q 300 56 264 98 l 393 37 q 449 56 429 56 l 449 37 q 505 56 485 56 q 579 -56 579 37 q 486 -130 541 -130 q 134 -37 134 -130 q 41 780 41 528 l 41 836 q 152 984 41 946 z "},"]":{"ha":503,"x_min":41,"x_max":449,"o":"m 375 1114 q 431 984 431 1046 l 431 910 q 412 892 431 892 l 431 854 l 431 836 q 412 817 431 817 q 431 799 412 799 q 412 743 431 779 q 449 111 412 607 q 356 19 449 62 q 227 37 283 37 l 189 19 q 78 75 78 43 l 78 168 q 134 223 78 182 l 227 204 l 245 204 q 282 241 282 204 q 264 817 264 584 l 264 928 l 189 928 q 115 910 147 928 q 41 966 41 938 l 41 1077 l 134 1096 q 152 1077 152 1096 q 375 1114 201 1091 z "},"^":{"ha":633,"x_min":41,"x_max":579,"o":"m 300 1077 q 579 780 324 1077 l 579 706 q 524 650 579 679 l 486 650 q 300 873 300 808 l 245 873 q 134 687 180 687 l 96 687 q 41 743 70 687 l 59 780 q 41 799 41 780 q 189 1040 84 799 q 300 1077 250 1077 z "},"_":{"ha":764,"x_min":41,"x_max":709,"o":"m 59 -111 l 654 -111 q 709 -204 686 -111 l 654 -297 l 561 -279 l 375 -279 q 356 -260 356 -279 l 319 -279 l 115 -279 q 41 -204 86 -279 l 59 -111 z "},"`":{"ha":410,"x_min":41,"x_max":356,"o":"m 41 1318 l 115 1318 q 356 1040 356 1123 l 300 1003 l 227 1003 q 41 1225 226 1053 l 41 1318 z "},"a":{"ha":1079,"x_min":41,"x_max":1025,"o":"m 468 984 q 635 947 635 972 q 1025 334 977 471 q 951 241 989 250 l 913 241 q 747 427 890 241 q 486 186 747 250 l 319 186 q 59 446 124 273 q 41 501 59 501 q 375 966 41 850 l 468 984 m 227 538 q 356 390 264 432 l 486 390 q 579 538 579 437 l 579 613 q 468 780 579 724 l 431 780 q 227 538 227 687 z "},"b":{"ha":930,"x_min":41,"x_max":876,"o":"m 171 1133 q 300 650 250 1133 q 561 799 460 799 l 579 799 q 876 390 876 745 l 876 334 q 561 56 785 56 l 542 56 q 171 223 224 56 q 41 1040 96 840 q 171 1133 97 1133 m 393 297 q 542 241 393 260 q 690 372 667 288 q 579 594 667 594 q 393 297 393 543 z "},"c":{"ha":930,"x_min":41,"x_max":876,"o":"m 486 966 l 616 966 q 821 799 784 966 l 821 762 q 765 706 821 734 q 524 780 572 780 q 227 557 227 741 l 227 538 q 579 223 227 268 q 876 260 850 260 l 876 186 q 616 19 876 42 q 78 353 210 19 q 41 465 41 429 l 59 465 l 41 501 l 41 576 q 486 966 132 966 z "},"d":{"ha":838,"x_min":41,"x_max":783,"o":"m 561 1189 l 597 1189 q 783 241 677 1189 q 431 -56 664 -56 q 41 316 41 13 l 41 353 q 431 706 141 706 q 542 669 463 706 l 486 1133 l 561 1189 m 227 279 q 412 149 309 149 l 431 149 q 579 297 566 149 q 431 501 506 468 l 412 501 q 227 279 245 501 z "},"e":{"ha":968,"x_min":41,"x_max":913,"o":"m 505 947 q 895 724 895 884 l 913 594 q 579 372 831 372 q 264 409 282 390 q 245 390 264 390 q 616 111 298 111 l 690 111 q 876 204 830 204 l 913 149 l 913 130 q 561 -93 913 -93 q 134 149 344 -93 q 41 520 41 407 q 282 854 129 854 q 505 947 282 884 m 264 613 q 468 576 336 576 l 597 576 q 728 631 660 576 q 486 743 728 743 q 264 613 264 651 z "},"f":{"ha":968,"x_min":41,"x_max":913,"o":"m 672 1411 q 913 1282 913 1306 l 913 1170 q 876 1133 913 1133 l 802 1133 q 635 1207 703 1207 l 616 1207 q 505 1003 505 1149 l 505 817 q 783 854 714 854 q 876 724 876 829 l 876 706 q 728 631 876 654 l 728 650 l 690 631 l 542 631 q 654 75 654 159 q 597 19 654 47 l 542 19 q 375 576 456 19 l 338 594 q 96 557 152 557 l 41 631 l 41 650 q 300 780 41 780 l 338 780 l 319 892 q 672 1411 319 1411 z "},"g":{"ha":1097,"x_min":41,"x_max":1042,"o":"m 356 1002 q 745 575 661 1002 q 801 352 783 575 l 931 352 q 1042 296 1042 340 l 1042 241 q 801 167 1042 185 l 820 130 q 541 -204 770 -204 l 467 -204 q 245 74 266 -204 q 634 334 245 189 l 634 352 q 616 427 616 385 l 597 427 q 467 371 530 371 l 319 371 q 41 705 111 371 l 41 760 q 356 1002 172 1002 m 227 760 l 227 686 q 319 538 227 585 l 449 538 q 523 649 523 575 q 412 835 471 835 l 319 835 q 227 760 263 760 m 430 37 q 505 -37 430 8 l 523 -37 q 634 111 634 9 l 634 149 l 616 149 q 430 37 433 78 z "},"h":{"ha":892,"x_min":41,"x_max":838,"o":"m 134 1057 q 245 538 245 1057 q 486 649 356 649 l 541 649 q 783 464 729 649 q 838 278 838 368 l 838 130 q 783 18 838 33 l 727 18 q 634 352 657 18 l 523 464 l 430 464 q 282 93 348 464 l 227 56 l 170 56 q 41 964 65 56 q 134 1057 72 1057 z "},"i":{"ha":614,"x_min":41,"x_max":560,"o":"m 152 1094 l 486 1094 q 560 1002 560 1056 q 449 927 541 927 l 96 927 q 41 983 70 927 q 152 1094 41 1094 m 374 667 q 467 111 454 667 q 374 18 467 62 q 282 149 282 44 l 282 334 q 263 593 282 435 q 374 667 282 667 z "},"j":{"ha":688,"x_min":41,"x_max":634,"o":"m 227 1020 l 560 1020 q 616 964 587 1020 q 505 853 616 853 l 245 853 q 115 946 140 853 q 227 1020 134 1020 m 412 723 q 634 204 554 723 l 634 185 q 374 -204 594 -204 l 356 -204 q 41 93 151 -204 q 96 149 41 119 l 152 149 q 356 -37 326 -37 q 467 222 455 -37 q 338 631 467 301 l 338 667 q 412 723 338 695 z "},"k":{"ha":837,"x_min":41,"x_max":783,"o":"m 134 1038 q 245 519 245 1038 q 709 723 621 723 q 783 649 737 723 l 783 631 q 430 408 783 598 q 653 241 430 340 q 764 93 764 203 l 690 37 l 634 37 q 282 260 578 37 l 282 167 q 300 0 282 100 q 208 -93 300 -50 q 78 612 95 -93 l 41 946 q 134 1038 41 995 z "},"l":{"ha":299,"x_min":41,"x_max":245,"o":"m 134 1002 q 208 909 208 983 q 245 -37 208 822 q 189 -111 217 -111 l 134 -111 l 78 -75 q 41 927 41 655 q 134 1002 59 1002 z "},"m":{"ha":1115,"x_min":41,"x_max":1061,"o":"m 393 445 l 523 371 q 727 445 634 445 q 1061 0 975 445 l 1061 -19 q 987 -130 1023 -130 l 931 -130 q 838 204 868 -130 l 727 278 l 690 278 q 616 204 661 278 q 634 -75 634 19 l 578 -111 l 523 -111 q 449 222 449 -111 l 356 241 q 263 111 263 215 l 263 -111 q 189 -186 263 -140 l 170 -186 q 41 296 78 -186 q 115 371 54 352 l 227 352 q 393 445 227 408 z "},"n":{"ha":855,"x_min":41,"x_max":801,"o":"m 505 575 q 783 296 783 509 q 801 74 801 239 l 801 0 q 709 -75 793 -39 q 616 334 616 -75 l 486 408 q 282 167 334 408 q 189 -37 248 -37 l 134 -37 q 78 74 78 -19 l 78 241 q 41 464 78 335 q 115 556 77 548 l 152 556 q 227 482 170 556 q 505 575 387 575 z "},"o":{"ha":800,"x_min":41,"x_max":745,"o":"m 449 686 q 745 352 745 600 l 745 334 q 412 -93 745 6 q 41 352 41 -93 q 449 686 104 686 m 208 334 q 412 74 208 74 q 578 334 505 74 q 393 519 547 519 q 208 334 208 464 z "},"p":{"ha":726,"x_min":41,"x_max":671,"o":"m 227 835 l 356 835 q 671 519 671 782 q 467 204 671 347 l 282 185 l 245 185 l 245 93 q 263 18 245 51 l 245 -19 l 263 -204 q 170 -278 245 -278 q 41 445 41 -278 l 41 667 q 227 835 134 791 m 208 667 l 208 371 q 356 352 254 371 q 505 556 505 402 q 393 705 408 705 l 282 705 q 208 667 237 667 z "},"q":{"ha":837,"x_min":41,"x_max":783,"o":"m 338 909 q 727 464 727 909 q 783 -222 764 206 l 709 -278 l 671 -278 q 597 -204 642 -278 l 597 222 l 412 204 l 356 204 q 41 575 115 204 l 41 593 q 338 909 144 909 m 208 593 q 356 371 208 451 l 430 371 q 560 445 530 371 q 374 760 560 760 q 208 593 313 760 z "},"r":{"ha":892,"x_min":41,"x_max":838,"o":"m 96 723 l 152 723 q 319 389 203 723 l 338 389 q 745 649 499 649 l 764 649 q 838 556 838 611 q 597 427 838 500 l 374 149 l 393 111 l 393 0 q 319 -111 393 -93 q 170 315 208 -111 q 41 649 41 593 l 41 667 q 96 723 41 694 z "},"s":{"ha":781,"x_min":41,"x_max":727,"o":"m 374 835 l 430 835 q 671 705 622 835 q 560 631 653 631 q 393 667 439 667 l 374 667 q 245 482 245 585 q 541 334 245 334 q 727 111 727 241 l 727 74 q 412 -186 727 -186 q 227 -75 227 -186 q 523 37 227 0 l 541 74 l 541 93 q 227 204 541 153 q 41 500 41 303 q 300 816 41 635 q 374 835 333 835 z "},"t":{"ha":948,"x_min":41,"x_max":894,"o":"m 430 964 l 486 890 l 486 649 q 523 612 492 612 q 764 631 534 612 q 857 538 813 631 q 523 427 857 427 q 653 149 523 149 q 820 185 787 167 q 894 130 894 157 l 894 74 q 653 -19 894 0 q 356 427 356 -19 l 96 427 q 41 482 70 427 l 41 538 q 319 612 41 612 l 319 853 q 430 964 319 964 z "},"u":{"ha":1004,"x_min":41,"x_max":949,"o":"m 653 649 l 709 649 q 949 149 759 649 q 876 56 913 64 q 745 222 745 56 l 727 222 q 374 18 656 18 q 41 427 154 18 l 41 500 q 96 612 52 612 l 152 612 q 245 315 201 612 q 393 185 338 185 q 597 464 597 185 l 616 464 l 597 500 l 597 593 q 653 649 597 620 z "},"v":{"ha":855,"x_min":41,"x_max":801,"o":"m 96 723 q 374 352 223 723 q 412 296 412 352 q 653 705 457 318 l 745 723 q 801 631 801 663 q 393 74 548 74 l 374 74 q 41 649 178 326 q 96 723 68 723 z "},"w":{"ha":1171,"x_min":41,"x_max":1116,"o":"m 96 667 q 319 371 222 667 l 356 371 q 505 575 356 454 l 523 575 q 857 296 652 575 q 949 612 931 431 q 1042 667 994 667 q 1116 593 1103 649 q 838 74 1024 74 q 616 334 785 74 l 560 371 q 393 74 419 74 l 319 74 q 41 593 41 508 q 96 667 68 667 z "},"x":{"ha":874,"x_min":41,"x_max":820,"o":"m 727 760 q 801 705 801 732 l 801 649 q 560 371 681 496 q 820 111 766 241 q 709 37 801 37 l 430 241 q 170 18 203 18 q 96 130 96 37 q 300 371 201 242 q 41 649 41 539 q 134 723 79 723 q 430 500 157 723 q 727 760 699 760 z "},"y":{"ha":892,"x_min":41,"x_max":838,"o":"m 764 927 q 838 816 838 909 q 393 -37 572 123 l 338 -37 q 282 56 295 -37 q 412 371 412 262 q 41 816 98 583 q 152 909 41 909 q 505 538 408 604 q 671 890 556 562 q 764 927 732 927 z "},"z":{"ha":911,"x_min":41,"x_max":857,"o":"m 597 1038 l 616 1038 q 764 909 764 1025 q 467 464 764 732 l 467 445 l 727 445 q 857 371 827 445 q 745 260 857 260 l 449 260 q 170 352 170 278 l 170 427 l 560 835 l 560 853 l 541 853 q 189 816 413 853 q 41 946 41 816 q 115 1020 41 975 q 597 1038 426 1038 z "},"{":{"ha":726,"x_min":41,"x_max":672,"o":"m 468 1189 q 597 1133 597 1170 l 597 1114 q 542 1003 597 1018 l 505 1003 q 486 1021 486 1003 q 393 947 401 985 l 393 631 q 338 446 393 541 q 468 -74 399 -12 q 486 -56 486 -74 l 579 -74 l 616 -56 q 672 -74 652 -74 l 672 -111 q 597 -241 672 -211 l 468 -241 q 208 241 246 -241 l 208 260 l 227 260 q 171 353 203 353 l 59 353 l 41 446 l 41 465 q 208 557 47 503 q 245 724 227 724 q 227 743 245 743 q 431 1170 227 1170 q 468 1189 431 1189 z "},"|":{"ha":281,"x_min":41,"x_max":227,"o":"m 78 928 l 189 928 q 227 892 189 892 l 208 799 l 208 279 q 227 19 208 176 q 96 -74 201 -74 q 41 56 41 -6 l 41 93 q 59 111 41 111 l 41 149 q 59 204 41 204 l 41 297 l 41 799 l 78 928 z "},"}":{"ha":875,"x_min":41,"x_max":821,"o":"m 152 1170 l 282 1170 q 505 836 481 1170 q 486 780 486 800 l 505 669 l 486 669 q 709 390 486 417 q 821 316 783 390 l 821 279 q 728 204 812 240 l 635 223 l 542 -130 q 208 -334 542 -254 q 115 -204 115 -309 q 227 -111 127 -149 l 227 -149 q 449 130 422 -149 l 468 241 l 468 279 q 338 836 338 355 q 189 1021 338 1021 l 152 1003 l 115 1003 q 41 1040 70 1040 q 152 1170 41 1170 z "},"~":{"ha":893,"x_min":41,"x_max":839,"o":"m 245 799 l 319 799 q 524 538 412 758 q 616 501 584 501 q 728 762 684 557 l 783 762 q 839 650 839 743 l 839 613 q 616 353 839 428 l 597 353 q 282 650 416 353 q 227 669 262 650 q 115 483 171 669 l 78 483 q 41 520 41 483 l 41 594 q 245 799 83 799 z "},"¨":{"ha":489,"x_min":41,"x_max":435,"o":"m 50 874 l 98 923 q 115 931 107 931 q 134 922 123 931 l 180 872 q 187 855 187 863 q 179 837 187 846 l 132 786 q 115 774 121 774 q 98 783 106 774 l 47 841 q 41 857 41 849 q 50 874 41 865 m 298 874 l 346 923 q 363 931 355 931 q 381 922 370 931 l 428 872 q 435 855 435 863 q 427 838 435 846 l 380 786 q 363 774 368 774 q 346 783 353 774 l 294 842 q 288 857 288 849 q 298 874 288 865 z "},"©":{"ha":1283,"x_min":41,"x_max":1229,"o":"m 654 1114 q 1173 762 927 1114 l 1229 520 q 895 -74 1229 90 q 654 -111 728 -111 q 96 260 96 30 q 41 427 56 260 l 41 501 q 375 1040 41 917 q 654 1114 454 1077 m 189 520 l 227 520 l 208 427 q 486 130 319 130 q 654 75 486 90 q 1025 279 923 75 l 1062 409 l 1062 576 q 783 873 1062 711 q 654 910 709 910 q 245 724 444 910 l 189 520 m 709 873 q 876 669 876 768 q 821 594 848 594 l 783 594 q 635 687 685 687 q 505 501 505 687 q 635 353 551 376 l 876 390 l 913 334 q 654 168 913 202 l 635 168 q 319 538 409 168 l 319 557 q 690 873 319 840 l 709 873 z "},"®":{"ha":1376,"x_min":41,"x_max":1322,"o":"m 690 1225 q 1266 762 1013 1225 q 1322 465 1322 547 q 987 -93 1322 172 q 783 -167 839 -167 l 709 -167 q 41 594 153 -167 q 245 1059 41 801 q 690 1225 368 1180 m 227 557 l 227 538 q 338 223 227 367 q 690 19 509 19 l 709 19 q 1025 168 861 19 q 1155 557 1155 370 q 690 1021 1002 1021 l 654 1021 q 264 762 378 1021 q 227 557 227 689 m 672 1003 q 932 762 932 984 l 913 762 l 932 724 q 802 557 932 591 q 987 372 987 421 l 987 316 l 895 260 q 579 427 774 354 l 579 409 q 597 241 597 309 q 542 186 597 215 l 449 186 q 393 520 393 447 l 393 836 q 654 1003 393 980 l 672 1003 m 635 836 q 561 706 561 771 l 561 650 q 765 743 732 687 q 635 836 735 836 z "},"´":{"ha":408,"x_min":41,"x_max":353,"o":"m 238 932 q 276 964 262 956 q 303 972 290 972 q 339 959 326 972 q 353 924 353 945 q 343 896 353 909 q 311 869 332 882 l 87 731 l 41 731 l 238 932 z "},"¸":{"ha":372,"x_min":41,"x_max":317,"o":"m 41 -197 q 144 -232 98 -232 q 208 -217 189 -232 q 227 -172 227 -203 q 194 -129 227 -142 q 125 -118 167 -118 q 102 -119 114 -118 l 134 0 l 177 0 l 152 -71 q 194 -67 174 -68 q 285 -95 252 -67 q 317 -172 317 -122 q 278 -253 317 -223 q 169 -283 238 -283 q 41 -262 95 -283 l 41 -197 z "},"ˆ":{"ha":490,"x_min":41,"x_max":435,"o":"m 41 732 l 198 972 l 278 972 l 435 732 l 396 732 l 238 878 l 80 732 l 41 732 z "},"ˇ":{"ha":490,"x_min":41,"x_max":435,"o":"m 41 972 l 80 972 l 238 827 l 396 972 l 435 972 l 278 731 l 198 731 l 41 972 z "},"˘":{"ha":491,"x_min":41,"x_max":437,"o":"m 41 915 l 75 915 q 126 842 87 865 q 239 819 165 819 q 352 842 313 819 q 402 915 391 865 l 437 915 q 373 778 423 825 q 239 732 323 732 q 106 779 157 732 q 41 915 55 825 z "},"˙":{"ha":241,"x_min":41,"x_max":186,"o":"m 50 874 l 97 923 q 106 929 101 927 q 115 931 111 931 q 124 929 119 931 q 132 923 128 927 l 180 871 q 185 865 184 869 q 186 855 186 861 q 184 845 186 849 q 179 837 183 841 l 131 785 q 120 776 123 778 q 115 774 117 774 q 104 776 109 774 q 97 782 100 778 l 46 841 q 42 847 43 844 q 41 857 41 851 q 43 865 41 861 q 50 874 45 869 z "},"˚":{"ha":336,"x_min":41,"x_max":281,"o":"m 92 852 q 112 804 92 824 q 160 785 132 785 q 208 804 189 785 q 228 852 228 824 q 208 900 228 880 q 160 920 188 920 q 112 900 132 920 q 92 852 92 880 m 41 852 q 75 938 41 903 q 160 972 110 972 q 247 938 212 972 q 281 852 281 903 q 247 767 281 802 q 160 732 212 732 q 75 767 110 732 q 41 852 41 802 z "},"˛":{"ha":345,"x_min":41,"x_max":290,"o":"m 224 0 q 150 -81 176 -42 q 123 -157 123 -120 q 141 -208 123 -189 q 191 -227 159 -227 q 238 -217 218 -227 q 271 -184 258 -206 l 290 -195 q 229 -260 266 -237 q 148 -283 192 -283 q 71 -259 100 -283 q 41 -198 41 -235 q 82 -92 41 -146 q 191 0 123 -37 l 224 0 z "},"˜":{"ha":484,"x_min":41,"x_max":430,"o":"m 430 937 q 384 833 416 867 q 298 798 351 798 l 295 798 q 218 814 261 798 q 141 830 174 830 q 100 816 115 830 q 77 768 85 802 l 41 768 q 87 875 54 840 q 174 911 120 911 q 251 895 205 910 q 327 879 294 879 l 330 879 q 369 892 354 879 q 393 937 384 906 l 430 937 z "},"˝":{"ha":494,"x_min":41,"x_max":440,"o":"m 41 732 l 138 917 q 169 960 155 947 q 201 972 184 972 q 233 959 220 972 q 247 927 247 945 q 240 903 247 916 q 219 876 233 890 l 80 732 l 41 732 m 234 732 l 332 917 q 362 960 348 947 q 394 972 377 972 q 427 959 413 972 q 440 927 440 945 q 433 903 440 916 q 412 876 426 890 l 273 732 l 234 732 z "},"‘":{"ha":429,"x_min":41,"x_max":375,"o":"m 134 709 l 78 709 q 41 747 41 715 l 41 765 q 227 1044 41 824 q 301 1099 227 1062 l 319 1099 q 375 988 375 1081 q 134 709 330 883 z "},"’":{"ha":429,"x_min":41,"x_max":375,"o":"m 282 1099 l 338 1099 q 375 1062 375 1093 l 375 1044 q 189 765 375 985 q 115 709 189 747 l 96 709 q 41 821 41 728 q 282 1099 85 926 z "},"“":{"ha":897,"x_min":41,"x_max":843,"o":"m 134 709 l 78 709 q 41 747 41 715 l 41 765 q 227 1044 41 824 q 301 1099 227 1062 l 319 1099 q 375 988 375 1081 q 134 709 330 883 m 602 709 l 546 709 q 509 747 509 715 l 509 765 q 694 1044 509 824 q 769 1099 694 1062 l 787 1099 q 843 988 843 1081 q 602 709 798 883 z "},"”":{"ha":897,"x_min":41,"x_max":843,"o":"m 282 1099 l 338 1099 q 375 1062 375 1093 l 375 1044 q 189 765 375 985 q 115 709 189 747 l 96 709 q 41 821 41 728 q 282 1099 85 926 m 750 1099 l 806 1099 q 843 1062 843 1093 l 843 1044 q 657 765 843 985 q 583 709 657 747 l 564 709 q 509 821 509 728 q 750 1099 553 926 z "},"·":{"ha":448,"x_min":41,"x_max":393,"o":"m 171 724 l 264 724 q 393 501 393 724 q 300 353 393 390 l 245 353 q 41 538 41 396 l 41 594 q 171 724 82 682 z "},"•":{"ha":448,"x_min":41,"x_max":393,"o":"m 171 724 l 264 724 q 393 501 393 724 q 300 353 393 390 l 245 353 q 41 538 41 396 l 41 594 q 171 724 82 682 z "},"∙":{"ha":448,"x_min":41,"x_max":393,"o":"m 171 724 l 264 724 q 393 501 393 724 q 300 353 393 390 l 245 353 q 41 538 41 396 l 41 594 q 171 724 82 682 z "},"…":{"ha":844,"x_min":41,"x_max":789,"o":"m 182 -231 l 214 -250 q 234 -327 237 -264 l 197 -391 q 96 -418 182 -416 l 64 -399 q 43 -323 41 -387 l 90 -243 q 182 -231 114 -257 m 458 -231 l 490 -250 q 510 -327 513 -264 l 473 -391 q 372 -418 458 -416 l 339 -399 q 319 -323 317 -387 l 366 -243 q 458 -231 389 -257 m 733 -231 l 766 -250 q 786 -327 789 -264 l 749 -391 q 648 -418 734 -416 l 615 -399 q 595 -323 592 -387 l 641 -243 q 733 -231 665 -257 z "},"™":{"ha":1376,"x_min":41,"x_max":1322,"o":"m 1099 1170 l 1155 1170 q 1322 743 1211 1170 l 1322 687 l 1229 669 l 1211 669 q 1099 892 1155 669 l 1080 892 q 1006 724 1080 749 l 969 724 q 802 892 939 724 l 802 724 l 783 594 l 690 594 l 654 613 q 747 1152 675 1152 l 783 1152 l 969 984 q 1099 1170 983 1083 m 579 1152 l 635 1077 l 635 1021 q 524 966 616 966 l 431 966 l 431 947 q 486 631 431 852 q 449 538 449 571 l 356 538 q 282 928 297 538 l 78 928 q 41 966 41 928 l 41 1021 q 524 1133 41 1110 q 579 1152 524 1152 z "},"←":{"ha":1468,"x_min":41,"x_max":1413,"o":"m 338 742 q 393 723 374 723 l 393 686 q 356 575 393 635 q 486 556 412 575 q 578 575 517 575 l 578 556 q 634 575 614 575 q 1302 593 704 575 l 1339 612 q 1413 556 1413 584 l 1413 482 q 1358 427 1413 456 l 1005 427 q 931 408 964 427 q 912 427 912 408 l 783 408 l 430 408 q 282 445 350 408 l 282 427 l 374 315 l 374 278 l 356 185 q 59 445 140 309 l 78 482 l 41 482 l 41 538 q 338 742 237 742 z "},"→":{"ha":1338,"x_min":41,"x_max":1284,"o":"m 949 742 l 968 742 q 1284 519 1284 686 q 1098 241 1217 241 q 1080 260 1098 260 q 1061 241 1080 241 q 1005 315 1061 269 l 1005 334 l 1042 389 l 1042 408 q 987 389 987 408 l 801 408 l 653 408 l 671 445 l 634 427 l 338 427 q 319 445 319 427 l 282 427 q 41 500 41 440 l 41 556 q 134 593 73 556 q 1061 464 1061 593 l 1080 464 l 1080 556 q 894 667 894 622 l 894 686 q 949 742 894 713 z "},"★":{"ha":1616,"x_min":41,"x_max":1562,"o":"m 820 1224 q 1042 890 908 1224 q 1116 779 1092 779 l 1339 779 q 1562 705 1562 779 l 1562 649 q 1209 241 1511 481 q 1246 -149 1246 -60 l 1172 -260 l 1098 -260 q 949 -130 949 -153 q 968 -111 968 -130 l 949 -111 q 931 -130 949 -130 q 783 0 931 -106 q 393 -260 783 -80 q 319 -149 319 -241 q 374 278 319 4 q 356 296 356 278 q 374 315 374 296 l 356 315 q 338 296 356 296 l 41 593 l 41 612 q 263 742 41 742 q 616 909 616 742 q 820 1224 682 1224 z "},"☆":{"ha":1597,"x_min":41,"x_max":1543,"o":"m 634 1076 l 709 1076 q 949 723 844 1076 q 1024 612 1000 612 l 1191 612 q 1265 631 1232 612 q 1543 538 1543 606 q 1469 371 1506 371 q 1451 389 1469 389 l 1469 352 q 1395 260 1420 260 q 1376 278 1395 278 l 1376 260 q 1395 241 1395 260 q 1209 37 1209 50 q 1339 -204 1339 -111 q 1284 -297 1326 -297 l 1284 -260 l 1265 -260 q 1209 -315 1265 -315 q 1154 -353 1154 -315 q 1172 -371 1172 -353 l 1135 -390 q 1098 -334 1135 -334 l 1116 -371 l 1116 -390 l 1098 -390 q 764 -204 964 -390 l 745 -204 q 393 -390 745 -279 q 319 -278 319 -371 l 319 -222 q 356 74 319 -6 l 41 408 l 41 482 q 430 649 41 553 q 634 1076 562 1012 m 690 835 q 430 445 602 445 l 430 464 q 300 427 356 427 l 300 408 q 541 111 530 174 q 505 -149 505 -122 q 709 -19 516 -149 l 783 -19 q 1116 -222 832 -19 l 1154 -222 q 987 111 987 53 q 1302 427 1259 322 q 1172 445 1172 427 q 931 408 1131 427 q 801 631 801 498 q 727 835 755 691 l 690 835 z "},"☎":{"ha":1282,"x_min":41,"x_max":1227,"o":"m 523 1057 l 523 1038 l 560 1057 l 634 1057 q 653 1038 653 1057 l 690 1057 q 1172 742 894 1057 q 1227 519 1172 686 q 1154 389 1204 519 q 1005 278 1005 308 q 1080 -37 1080 125 l 1080 -75 q 857 -297 1038 -297 l 709 -297 q 152 74 222 -297 l 152 167 l 189 149 l 170 185 q 245 371 170 254 q 41 649 41 509 l 59 649 l 41 686 l 41 705 l 78 705 q 59 760 59 741 q 467 1038 227 1038 q 523 1057 467 1057 m 319 130 q 597 -149 319 -149 l 838 -149 q 931 37 931 -125 q 783 334 884 334 l 616 538 q 319 130 447 481 m 505 371 q 783 167 783 371 l 783 74 l 690 -19 q 412 222 484 -19 l 412 241 q 505 371 505 345 m 560 185 q 597 149 566 149 l 616 149 q 671 204 642 149 l 634 222 l 597 222 q 560 185 560 216 z "},"☜":{"ha":1449,"x_min":41,"x_max":1395,"o":"m 541 983 q 820 927 768 927 l 801 890 l 838 909 q 1339 816 1023 835 q 1395 705 1395 768 l 1395 538 l 1358 538 l 1358 519 l 1395 519 q 1284 74 1376 74 l 1302 37 l 1172 0 q 968 37 1014 37 q 912 -56 912 37 l 894 -56 l 857 -37 q 634 -130 857 -130 q 616 -149 634 -149 q 430 -56 430 -149 l 393 -75 q 374 18 393 -12 q 393 37 393 18 l 374 37 l 393 74 l 393 93 l 374 130 q 393 149 393 130 l 374 149 q 356 130 374 130 l 338 167 q 356 185 356 167 l 338 185 q 319 167 338 167 l 319 185 q 338 204 319 204 q 319 260 319 240 q 338 315 338 296 q 263 408 299 323 q 282 482 282 440 l 282 500 q 41 667 117 500 q 300 946 41 946 q 467 964 401 964 l 467 946 l 541 983 m 523 853 q 245 779 523 822 l 189 705 q 505 631 326 631 q 578 649 513 631 q 653 631 611 631 l 653 556 l 634 519 q 653 500 653 519 l 616 482 l 578 500 l 578 482 q 597 464 597 482 l 541 464 l 505 482 l 486 445 q 671 427 648 427 l 671 371 q 523 260 671 260 l 523 241 l 671 241 q 690 111 671 184 l 653 130 l 653 111 q 671 93 671 111 l 541 74 l 541 56 q 578 18 547 18 q 857 130 764 18 l 876 130 l 876 93 l 912 93 l 912 705 q 523 816 912 760 l 541 853 l 523 853 m 1080 649 q 1098 185 1098 254 l 1191 185 q 1209 556 1209 436 l 1209 631 l 1227 667 q 1154 686 1154 667 q 1080 649 1080 671 z "},"☞":{"ha":1468,"x_min":41,"x_max":1413,"o":"m 838 946 q 1413 705 1413 904 l 1413 649 q 1227 500 1407 600 l 1191 500 l 1209 408 l 1209 371 q 1154 296 1163 371 q 1172 222 1172 264 q 1135 130 1172 130 l 1154 93 l 1154 56 q 1042 -56 1154 -56 l 1042 -75 l 1080 -75 l 1080 -93 q 764 -149 851 -149 l 616 -149 l 634 -111 l 616 -111 l 616 -130 q 467 -19 478 -61 l 467 0 l 486 37 l 449 18 l 412 18 q 393 37 393 18 l 356 18 l 319 18 q 227 74 227 18 l 134 74 q 41 705 91 113 q 115 853 63 853 l 170 853 q 189 835 189 853 l 227 853 l 338 853 q 356 835 356 853 q 838 946 380 835 m 523 667 q 541 612 541 631 l 523 612 q 560 371 537 570 l 541 371 q 560 315 560 335 q 541 296 560 296 q 597 56 560 93 q 578 37 578 56 l 616 56 l 709 0 l 745 0 l 931 18 l 931 56 l 894 37 l 801 37 l 820 74 l 801 74 q 783 56 801 56 l 764 93 l 764 149 l 783 185 q 727 278 727 185 q 987 371 727 328 l 1005 408 l 931 408 q 764 389 865 408 q 690 500 690 408 l 690 519 q 1135 631 690 556 q 1227 705 1227 685 q 949 779 949 766 q 523 667 523 729 m 227 686 l 227 667 q 263 241 227 617 q 245 222 245 241 l 263 222 q 282 241 263 241 l 282 185 l 338 185 l 374 204 q 338 686 338 585 l 227 686 z "},"♡":{"ha":1449,"x_min":41,"x_max":1395,"o":"m 300 1038 l 338 1038 q 671 779 532 1038 l 690 779 q 1005 964 885 964 l 1080 964 q 1395 556 1345 964 q 1246 167 1395 399 l 1209 185 l 1209 167 q 1227 149 1227 167 l 1080 37 q 1061 56 1080 56 q 987 0 1061 0 l 1005 -37 q 820 -149 907 -37 l 727 -167 l 653 -130 l 653 -149 q 690 -186 690 -155 l 671 -186 q 578 -149 611 -149 l 597 -111 l 560 -130 l 541 -130 q 412 -19 541 -101 q 96 371 238 112 q 41 538 41 494 l 41 705 q 59 723 41 723 l 41 760 q 300 1038 123 1038 m 208 667 q 374 260 231 412 q 727 0 628 0 q 1116 278 727 20 q 1191 371 1152 363 l 1172 408 q 1209 556 1209 476 l 1209 612 q 1042 798 1178 798 q 764 593 926 798 q 727 556 727 593 l 653 556 q 467 816 633 557 q 338 871 374 871 q 208 667 258 871 z "},"♥":{"ha":1486,"x_min":41,"x_max":1432,"o":"m 1042 1095 l 1042 1076 l 1080 1095 l 1098 1095 q 1116 1076 1116 1095 l 1154 1095 q 1432 798 1385 1095 l 1432 742 l 1413 556 l 1376 575 l 1395 538 l 1395 482 q 1284 334 1358 482 q 1191 278 1236 278 l 1209 241 q 876 -19 1169 241 q 820 -37 856 -19 l 838 -75 l 838 -93 l 801 -75 l 783 -111 l 745 -93 l 690 -93 l 690 -130 q 59 705 59 361 l 41 798 q 319 1076 136 1076 q 338 1057 338 1076 q 393 1076 374 1076 q 709 853 591 1076 l 727 853 q 1042 1095 920 1095 z "},"♩":{"ha":652,"x_min":41,"x_max":597,"o":"m 393 1131 l 449 1131 q 578 389 551 1131 q 597 111 597 156 q 393 -75 568 1 l 374 -75 q 96 56 96 -75 q 41 167 41 74 l 41 241 q 263 500 81 500 q 374 482 277 500 l 338 1057 q 393 1131 366 1131 m 227 204 q 300 130 245 143 q 393 204 385 165 l 393 222 q 300 296 392 248 l 282 296 q 227 204 255 296 z "},"♪":{"ha":1041,"x_min":41,"x_max":987,"o":"m 412 1131 l 467 1131 q 949 909 613 1042 q 987 742 987 788 l 987 686 q 820 500 961 500 l 801 500 q 727 575 772 500 q 783 705 727 637 l 783 779 q 505 890 747 779 l 523 798 l 523 649 l 541 464 l 523 464 l 541 427 l 505 371 q 616 260 560 371 l 616 93 q 338 -93 528 -93 q 41 185 157 -93 q 338 464 41 464 l 338 1113 q 412 1131 370 1131 m 245 222 q 374 111 274 111 l 393 111 l 412 204 l 338 296 q 245 222 245 278 z "},"♬":{"ha":1375,"x_min":41,"x_max":1320,"o":"m 1098 1095 l 1116 1095 q 1191 927 1191 1069 q 1172 853 1191 886 q 1191 779 1191 821 q 1172 760 1191 760 l 1191 723 l 1191 445 q 1320 334 1248 445 l 1320 204 q 1080 -37 1276 -37 l 1061 -37 q 801 204 801 16 l 801 260 q 1005 519 801 389 q 987 667 987 621 l 430 612 l 449 575 l 449 427 q 578 241 541 427 l 578 185 q 282 -93 578 -60 q 41 149 41 -15 l 41 185 q 263 445 41 365 q 227 927 227 652 q 801 1076 227 1056 q 1098 1095 907 1095 m 430 853 l 412 853 l 412 798 l 968 853 l 968 890 l 931 890 q 430 853 881 890 m 987 278 l 987 241 q 1042 185 987 214 l 1116 185 l 1116 241 l 1061 334 q 987 278 987 306 m 300 296 q 227 185 227 234 q 263 130 263 185 l 338 130 l 374 260 q 300 296 346 260 z "},"ㄱ":{"ha":781,"x_min":41,"x_max":727,"o":"m 560 798 q 727 538 727 798 q 653 18 727 18 l 597 18 q 523 93 578 18 q 560 538 560 258 l 560 593 q 505 631 560 631 q 115 593 345 631 q 41 705 41 612 l 41 723 q 96 779 41 750 q 560 798 491 798 z "},"ㄲ":{"ha":1097,"x_min":41,"x_max":1042,"o":"m 115 816 l 338 816 q 541 705 526 816 l 727 723 l 783 723 q 1024 464 1024 723 q 1042 222 1042 342 q 949 149 1024 149 q 857 334 857 176 l 857 500 q 801 556 857 528 l 764 556 q 578 500 578 556 q 486 149 534 149 l 430 149 q 374 222 384 149 q 393 631 374 306 q 338 649 357 649 q 96 631 108 631 l 41 705 l 41 742 q 115 816 41 770 z "},"ㄳ":{"ha":1375,"x_min":41,"x_max":1320,"o":"m 467 742 q 616 593 616 728 l 616 167 q 523 93 577 93 q 449 149 449 121 l 449 575 l 263 556 l 152 556 q 41 612 56 556 q 208 723 41 723 q 467 742 366 742 m 987 742 l 1042 667 l 1042 649 q 1024 464 1024 543 q 1320 241 1290 302 q 1265 130 1320 144 l 1191 130 q 931 296 970 296 q 820 111 856 114 l 764 111 q 690 204 726 119 q 968 742 882 742 l 987 742 z "},"ㄴ":{"ha":819,"x_min":41,"x_max":764,"o":"m 96 760 l 152 760 q 208 705 178 760 l 208 593 q 282 222 237 222 l 616 222 q 764 167 753 222 l 764 93 q 690 37 764 74 l 597 56 l 300 56 q 59 427 59 56 q 41 556 41 427 l 41 705 q 96 760 41 731 z "},"ㄵ":{"ha":1375,"x_min":41,"x_max":1320,"o":"m 987 798 q 1135 705 1084 798 l 1135 686 q 1080 445 1135 642 q 1320 185 1105 442 l 1320 149 q 1246 74 1320 119 l 1209 74 l 968 278 q 783 74 800 74 l 727 74 q 671 130 701 74 l 671 204 q 931 593 904 465 l 876 593 q 597 575 783 593 l 560 631 l 560 649 q 727 760 560 760 q 987 798 924 798 m 152 760 l 170 760 q 300 241 239 760 l 467 241 q 634 111 634 241 q 505 56 566 56 l 319 56 q 78 482 78 56 q 41 686 41 640 q 152 760 59 760 z "},"ㄶ":{"ha":1208,"x_min":41,"x_max":1154,"o":"m 820 853 l 876 853 q 949 631 949 853 l 949 593 l 1061 612 q 1154 482 1154 586 q 1098 427 1127 482 q 1135 315 1135 366 l 1135 241 q 912 18 1135 18 q 634 185 763 18 l 634 408 q 541 464 541 408 l 541 519 q 783 593 541 593 l 783 612 q 764 779 764 712 l 764 798 q 820 853 764 824 m 152 705 q 263 260 235 705 q 374 222 324 222 l 541 222 q 597 167 568 222 l 597 111 q 374 37 597 51 q 59 445 59 37 q 41 612 41 545 q 152 705 71 705 m 801 352 l 801 260 q 949 185 801 211 l 968 222 l 968 315 q 857 371 949 371 q 801 352 821 352 z "},"ㄷ":{"ha":837,"x_min":41,"x_max":783,"o":"m 374 816 l 523 816 q 764 723 764 816 q 634 631 739 631 l 282 631 q 245 593 245 625 l 245 445 q 356 185 245 185 l 727 185 q 783 130 753 185 q 653 0 783 0 l 374 0 q 59 500 59 0 l 59 631 q 41 705 59 672 q 374 816 41 816 z "},"ㄸ":{"ha":1134,"x_min":41,"x_max":1080,"o":"m 227 835 l 467 835 q 541 760 496 835 l 541 705 q 486 649 541 678 l 412 649 l 300 667 q 227 519 227 656 l 227 389 q 541 296 227 334 l 578 222 q 449 130 549 130 q 59 315 59 157 q 41 519 59 392 q 227 835 41 835 m 838 779 q 1080 667 1080 779 q 968 593 1061 593 l 912 593 q 894 612 894 593 q 745 538 745 574 l 745 464 q 912 352 745 352 q 1080 241 1080 352 l 1080 222 q 1024 167 1080 196 l 1005 167 q 578 315 578 167 q 560 500 578 338 q 838 779 560 779 z "},"ㄹ":{"ha":819,"x_min":41,"x_max":764,"o":"m 115 964 l 486 964 q 727 742 727 901 l 727 649 q 523 389 679 389 l 338 389 l 338 278 l 690 278 q 764 204 719 278 l 764 149 q 597 74 739 74 l 374 74 q 134 334 134 74 q 430 593 134 593 q 541 686 541 593 q 412 779 515 779 l 115 779 q 41 871 77 787 q 115 964 77 956 z "},"ㄺ":{"ha":1190,"x_min":41,"x_max":1135,"o":"m 189 835 q 597 631 597 835 q 727 686 665 686 l 876 686 q 1135 482 1135 656 l 1135 149 q 1061 18 1135 49 l 1005 18 l 931 74 l 949 296 l 949 445 q 912 482 949 482 l 783 482 q 616 538 686 482 l 597 538 l 597 482 q 300 278 597 305 l 319 185 l 319 130 l 338 130 q 541 149 414 130 q 634 56 591 149 q 486 -56 596 -56 l 300 -56 q 115 241 115 -56 l 115 315 q 412 500 115 471 l 412 593 q 374 631 412 631 l 170 631 q 41 742 41 631 q 189 835 62 835 z "},"ㄻ":{"ha":1468,"x_min":41,"x_max":1413,"o":"m 208 779 l 319 779 q 597 575 597 747 l 597 427 q 374 241 597 260 l 282 241 l 282 222 l 300 130 l 578 130 q 653 56 608 130 l 653 18 q 467 -75 611 -75 l 356 -75 q 78 296 78 -75 q 338 445 157 445 l 412 445 l 412 519 q 356 575 412 546 l 115 575 q 41 667 77 583 q 208 779 87 779 m 912 723 l 1209 723 q 1413 519 1413 686 q 1246 -19 1358 -19 q 1098 -56 1107 -56 q 727 185 727 -56 q 709 612 709 475 q 912 723 846 723 m 912 519 l 912 204 q 1024 149 931 149 l 1135 149 q 1209 519 1179 149 l 1172 538 l 1135 538 l 912 519 z "},"ㄼ":{"ha":1337,"x_min":41,"x_max":1283,"o":"m 208 760 l 282 760 q 616 482 616 760 l 616 464 q 263 204 616 204 l 263 167 q 578 74 263 93 q 616 -19 616 14 q 486 -111 590 -111 l 449 -111 q 115 37 176 -111 q 59 167 78 93 q 300 408 59 408 q 412 445 412 408 l 412 519 q 374 556 412 556 l 152 556 q 41 667 41 556 l 41 686 q 208 760 66 760 m 764 705 l 857 705 q 912 631 876 705 l 894 538 l 894 427 l 1080 427 l 1098 538 q 1080 593 1080 574 q 1154 686 1116 678 l 1227 686 q 1283 612 1283 686 q 1135 -37 1283 -37 l 1024 -56 l 968 -56 q 709 222 709 -56 l 709 593 q 764 705 720 705 m 968 222 l 912 222 l 912 149 l 1061 149 q 1080 222 1061 190 q 1061 241 1061 222 l 968 222 z "},"ㄽ":{"ha":1319,"x_min":41,"x_max":1265,"o":"m 263 742 l 338 742 q 616 445 560 742 q 300 167 616 189 l 300 74 l 541 74 q 616 -37 616 37 q 467 -130 595 -130 q 115 56 115 -130 q 96 130 96 56 l 96 167 q 393 389 131 389 l 412 427 q 356 538 412 523 l 96 538 q 41 593 70 538 l 41 667 q 263 742 41 742 m 987 686 q 1061 575 1061 667 q 987 352 1061 524 q 1265 149 1265 176 l 1265 74 q 1209 18 1265 47 l 1191 18 q 894 185 1099 18 q 709 -19 820 -19 q 634 56 680 -19 l 634 74 q 857 556 634 115 q 987 686 857 686 z "},"ㄾ":{"ha":1394,"x_min":41,"x_max":1339,"o":"m 319 816 q 616 612 616 816 l 616 445 q 338 260 616 281 l 338 167 l 616 167 q 671 111 642 167 l 671 37 q 338 -37 671 -37 q 134 222 134 15 l 134 241 q 430 482 134 450 l 430 575 q 393 612 430 612 l 245 612 l 134 593 q 41 705 41 623 q 319 816 41 804 m 1172 816 q 1283 705 1227 816 q 1154 612 1257 612 l 968 612 q 931 575 931 606 l 931 538 q 968 500 937 500 l 1227 500 q 1302 408 1266 492 q 1227 315 1266 323 l 949 315 l 949 241 q 987 204 956 204 l 1172 204 q 1339 93 1339 204 q 1209 0 1313 0 l 987 0 q 745 334 745 0 l 745 649 q 894 798 745 798 l 1061 798 l 1172 816 z "},"ㄿ":{"ha":1412,"x_min":41,"x_max":1358,"o":"m 227 760 l 338 760 q 578 556 578 727 l 578 371 q 319 241 536 241 q 282 204 282 235 l 282 149 q 393 93 300 93 q 597 111 557 111 l 634 56 l 634 0 q 541 -93 634 -25 l 300 -93 q 78 130 150 -93 l 78 167 q 356 445 102 445 l 393 445 l 393 519 q 356 556 393 556 l 282 556 l 96 538 l 41 612 l 41 667 q 227 760 83 760 m 801 686 l 1191 686 q 1320 612 1291 686 l 1320 538 q 1227 482 1320 496 l 1227 167 q 1358 18 1358 88 q 1227 -75 1332 -75 l 1005 -75 q 838 -56 939 -75 q 764 -75 806 -75 q 671 56 671 -49 q 783 167 671 89 l 783 482 q 634 556 659 482 q 801 686 634 686 m 968 482 l 968 130 l 1042 130 l 1042 241 l 1024 464 q 1042 482 1042 464 l 968 482 z "},"ㅀ":{"ha":1375,"x_min":41,"x_max":1320,"o":"m 912 871 q 1042 667 1042 871 l 1135 686 l 1265 686 q 1320 631 1291 686 l 1320 556 q 1246 482 1320 538 q 1302 241 1302 392 q 1061 37 1302 96 l 1005 37 q 745 315 768 37 q 801 464 745 359 q 653 556 653 464 q 727 649 689 641 l 838 649 l 838 798 q 912 871 838 827 m 300 816 l 319 816 q 616 445 616 816 q 319 260 616 300 l 319 167 l 560 167 q 634 74 598 159 q 449 -37 634 -24 l 374 -37 q 115 241 115 -37 q 412 482 115 427 l 412 500 q 356 612 412 597 l 300 612 q 134 575 254 612 q 41 649 49 611 l 41 705 q 300 816 41 772 m 949 278 l 949 241 l 1061 241 q 1098 278 1098 241 l 1098 296 l 1080 389 l 1005 389 q 949 278 949 371 z "},"ㅁ":{"ha":985,"x_min":41,"x_max":931,"o":"m 338 890 l 764 890 q 931 575 931 890 l 912 538 q 931 482 931 502 l 912 445 l 931 408 q 690 74 899 74 q 505 56 685 56 l 319 56 q 78 427 78 56 q 41 667 41 510 l 41 742 q 338 890 41 890 m 245 667 q 282 260 245 591 l 671 260 q 727 408 727 271 l 727 667 q 690 705 727 705 l 338 705 q 245 667 245 700 z "},"ㅂ":{"ha":1078,"x_min":41,"x_max":1024,"o":"m 894 1020 l 968 1020 q 1024 909 1024 1002 q 616 93 900 93 q 412 111 489 111 l 300 111 q 78 519 78 111 q 41 798 46 519 l 41 927 q 96 983 41 954 l 170 983 q 245 723 227 983 l 801 723 q 894 1020 832 1020 m 263 519 q 338 296 292 296 l 616 296 q 727 538 678 296 l 300 538 l 263 519 z "},"ㅃ":{"ha":1430,"x_min":41,"x_max":1376,"o":"m 152 871 q 263 556 263 871 l 486 556 q 523 593 523 556 l 523 742 q 616 871 523 846 q 727 686 703 871 q 486 37 670 37 q 430 18 486 18 l 356 18 q 78 538 78 18 q 41 742 41 696 q 152 871 79 871 m 820 871 l 876 871 q 949 798 904 871 l 949 538 l 1154 538 l 1154 612 q 1246 816 1182 816 l 1320 816 q 1376 723 1363 816 q 1283 130 1315 264 q 1098 0 1201 0 l 987 0 q 764 389 764 0 l 764 816 q 820 871 764 842 m 300 371 l 300 278 q 393 204 338 204 q 467 315 467 222 l 467 371 l 300 371 m 1080 334 l 968 334 l 968 241 q 1024 185 968 214 l 1061 185 q 1135 334 1105 185 q 1116 352 1116 334 l 1080 334 z "},"ㅄ":{"ha":1430,"x_min":41,"x_max":1376,"o":"m 560 871 l 616 871 q 690 742 690 842 l 690 352 q 430 37 639 37 q 41 575 41 37 l 41 723 q 96 835 52 835 l 170 835 q 245 593 227 835 l 263 593 q 486 631 357 593 l 486 742 q 560 871 486 842 m 1042 853 q 1116 760 1080 845 l 1061 482 q 1376 260 1376 357 q 1265 167 1346 167 q 968 296 1024 296 q 876 149 968 200 l 857 149 q 745 260 745 149 l 745 278 q 949 835 832 414 l 1042 853 m 263 389 q 356 241 263 292 l 449 241 q 486 315 449 270 l 486 427 l 263 389 z "},"ㅅ":{"ha":911,"x_min":41,"x_max":857,"o":"m 393 1038 l 449 1038 q 505 983 475 1038 l 505 946 q 430 631 505 922 q 838 352 617 438 l 857 315 l 857 241 q 745 185 838 185 q 356 427 515 286 l 338 427 q 170 130 215 130 l 115 130 q 41 204 86 130 l 41 222 q 338 1002 227 652 l 393 1038 z "},"ㅆ":{"ha":1375,"x_min":41,"x_max":1320,"o":"m 300 927 l 356 927 q 412 871 382 927 l 412 835 q 356 556 356 584 q 653 334 600 418 l 653 260 q 597 204 653 233 l 578 204 q 282 371 524 204 l 263 371 q 170 130 250 130 l 96 130 q 41 204 50 130 q 300 927 207 927 m 912 890 q 1024 835 1024 878 q 987 538 1024 751 q 1320 296 1279 366 l 1320 241 q 1227 167 1312 203 q 912 352 1198 167 l 894 352 q 745 130 894 130 q 671 241 671 149 q 876 871 820 745 l 912 890 z "},"ㅇ":{"ha":1004,"x_min":41,"x_max":949,"o":"m 523 946 l 597 946 q 949 538 869 946 q 634 0 949 106 l 393 0 q 41 445 132 0 l 41 482 q 412 927 41 853 q 523 946 412 946 m 245 538 l 245 427 q 449 185 293 185 l 523 185 q 745 519 745 185 l 745 538 q 634 742 690 742 l 449 742 q 245 538 245 705 z "},"ㅈ":{"ha":1041,"x_min":41,"x_max":987,"o":"m 319 909 l 597 909 q 820 742 820 909 l 820 631 q 709 371 820 575 q 968 167 726 286 q 987 111 968 147 q 912 18 951 26 l 894 18 q 597 167 802 18 q 393 -93 486 -93 q 300 0 344 -93 q 634 686 634 647 l 634 705 q 578 723 614 705 q 134 686 134 705 q 41 760 49 722 l 41 816 q 319 909 41 909 z "},"ㅉ":{"ha":1486,"x_min":41,"x_max":1432,"o":"m 319 909 l 505 909 q 653 742 653 909 l 653 649 q 597 427 597 473 q 820 185 644 427 l 820 111 q 764 56 820 85 l 690 56 q 505 260 673 56 l 486 260 q 374 74 486 149 l 319 74 q 245 167 281 82 q 467 705 387 450 l 430 723 l 393 723 l 115 667 q 41 779 41 686 q 319 909 41 865 m 1042 835 q 1283 649 1242 835 l 1283 631 q 1246 408 1283 536 q 1432 241 1301 408 l 1432 185 q 1358 111 1432 157 q 1135 260 1277 111 l 1116 260 q 1024 111 1072 111 l 949 111 q 894 167 923 111 l 894 204 q 1080 519 894 298 l 1080 631 l 1005 631 l 783 593 q 709 649 709 621 l 709 723 q 1042 835 709 801 z "},"ㅊ":{"ha":1023,"x_min":41,"x_max":968,"o":"m 467 1280 q 541 1094 541 1202 l 541 927 q 801 723 801 890 q 709 482 801 656 q 968 204 968 229 q 894 111 932 119 l 820 111 q 616 315 616 258 q 430 93 451 93 q 300 204 300 93 q 597 723 597 654 l 578 723 q 134 667 426 723 l 96 667 q 41 760 54 667 q 338 909 41 863 l 338 1149 q 467 1280 338 1280 z "},"ㅋ":{"ha":1023,"x_min":41,"x_max":968,"o":"m 616 1038 l 634 1038 q 949 779 848 1038 q 968 500 968 617 l 968 241 q 912 130 968 144 l 838 130 q 764 260 764 160 l 764 427 q 263 371 673 427 l 208 464 q 764 631 208 592 l 764 723 q 671 835 699 835 l 467 835 q 96 779 119 779 l 41 871 q 616 1038 41 1019 z "},"ㅌ":{"ha":855,"x_min":41,"x_max":801,"o":"m 189 1057 l 541 1057 q 801 983 801 1057 l 801 909 q 690 853 783 853 l 227 853 l 227 686 q 263 649 232 649 l 653 649 q 764 593 764 637 l 764 519 q 690 445 764 500 l 505 464 l 245 464 l 245 445 q 374 241 245 241 l 653 241 q 783 167 753 241 q 653 37 783 37 q 78 222 78 37 q 41 575 41 446 l 41 909 q 189 1057 41 1057 z "},"ㅍ":{"ha":1004,"x_min":41,"x_max":949,"o":"m 170 1020 l 745 1020 q 912 946 888 1020 l 912 890 q 745 816 891 816 l 745 278 l 820 278 q 949 204 920 278 l 949 149 q 820 74 920 74 l 227 74 q 96 185 96 74 q 263 278 96 278 l 245 500 l 245 779 l 263 816 q 41 871 41 816 l 41 946 q 170 1020 71 1020 m 449 816 l 449 371 l 467 278 l 560 278 l 541 371 l 541 779 l 560 816 l 449 816 z "},"ㅎ":{"ha":985,"x_min":41,"x_max":931,"o":"m 467 1149 l 486 1149 q 560 927 560 1149 l 560 779 l 690 798 l 801 798 q 931 723 901 798 l 931 649 q 801 575 931 607 q 857 334 857 484 l 857 315 q 616 18 819 18 l 412 18 q 152 334 222 18 l 189 575 q 41 686 41 575 q 263 779 41 779 l 338 779 l 374 798 l 356 1020 l 356 1038 q 467 1149 356 1149 m 356 315 q 467 204 393 204 q 671 352 671 204 q 486 575 641 575 q 356 315 356 557 z "},"ㅏ":{"ha":800,"x_min":41,"x_max":745,"o":"m 152 1020 q 245 890 245 994 l 245 649 l 616 649 q 745 575 715 649 q 578 445 745 445 l 449 445 l 263 464 l 245 427 l 245 408 q 282 111 245 191 q 170 0 282 29 q 41 464 41 0 q 59 742 59 625 q 41 927 59 765 q 152 1020 71 1020 z "},"ㅐ":{"ha":819,"x_min":41,"x_max":764,"o":"m 115 871 l 170 871 q 245 649 245 871 l 245 575 q 282 538 250 538 l 560 538 l 560 705 q 671 871 560 871 q 764 742 764 846 l 764 37 q 709 -75 764 -59 l 634 -75 q 560 56 560 -44 l 560 296 l 578 334 l 541 352 l 300 352 l 263 334 l 282 296 l 282 241 q 300 37 282 164 q 227 -56 264 -47 l 170 -56 q 59 649 59 -56 q 41 816 41 649 l 115 871 z "},"ㅑ":{"ha":800,"x_min":41,"x_max":745,"o":"m 96 909 l 170 909 q 263 593 245 909 q 634 667 523 667 l 653 667 q 709 556 709 649 q 300 408 709 473 l 300 389 q 338 296 305 296 q 690 315 632 315 l 745 241 l 745 167 q 356 93 745 107 q 300 -37 344 -37 l 227 -37 q 41 871 129 -37 l 96 909 z "},"ㅒ":{"ha":874,"x_min":41,"x_max":820,"o":"m 597 927 q 745 427 724 927 q 820 -19 760 427 q 745 -111 784 -103 l 690 -111 q 578 204 623 -111 q 338 167 523 204 q 374 0 356 39 q 300 -93 338 -85 l 227 -93 q 41 853 152 -93 l 115 909 l 152 909 q 282 631 213 909 q 523 686 361 631 q 505 835 505 788 q 597 927 505 884 m 300 408 l 300 389 l 319 352 q 560 408 416 389 l 560 482 l 541 482 q 300 408 300 445 z "},"ㅓ":{"ha":819,"x_min":41,"x_max":764,"o":"m 560 964 q 764 -56 653 964 q 671 -149 764 -105 q 505 408 549 -149 l 486 408 q 134 371 357 408 q 41 445 49 407 l 41 500 q 467 612 41 579 q 449 927 449 830 q 560 964 509 964 z "},"ㅔ":{"ha":1115,"x_min":41,"x_max":1061,"o":"m 449 1038 q 634 427 554 1038 q 709 56 709 189 q 616 -19 701 17 q 430 500 506 -19 q 78 464 188 464 l 41 519 l 41 593 q 393 705 41 656 q 338 946 374 753 q 449 1038 368 1038 m 783 1020 l 857 1020 q 1061 93 931 1020 l 987 37 l 931 37 q 727 983 843 37 l 783 1020 z "},"ㅕ":{"ha":819,"x_min":41,"x_max":764,"o":"m 578 1076 q 727 334 681 1076 q 764 -37 764 334 l 709 -75 l 653 -75 q 541 315 574 -75 q 263 296 356 296 l 227 296 q 115 408 115 296 l 115 427 q 245 500 145 500 l 486 500 l 523 519 l 505 556 l 505 705 q 96 686 180 686 l 41 779 q 467 909 41 909 l 467 1020 q 578 1076 486 1076 z "},"ㅖ":{"ha":1097,"x_min":41,"x_max":1042,"o":"m 876 1002 l 912 1002 q 1042 18 990 1002 l 949 -37 q 801 612 831 -37 l 764 927 q 876 1002 783 1002 m 523 946 q 634 296 634 946 q 671 -19 653 296 q 560 -111 641 -111 q 467 18 467 -85 l 467 149 q 430 185 467 185 l 134 185 q 59 260 104 185 l 59 296 q 134 371 59 326 l 412 371 l 449 389 l 430 427 l 430 593 l 319 593 q 152 575 252 593 q 41 686 41 601 q 412 798 41 798 q 523 946 412 946 z "},"ㅗ":{"ha":1059,"x_min":41,"x_max":1005,"o":"m 412 649 l 486 649 q 578 130 551 649 q 1005 37 1005 130 l 1005 -19 q 912 -93 997 -57 q 41 18 41 -29 l 41 111 q 96 167 41 138 l 189 167 l 374 149 q 356 519 356 399 l 356 593 q 412 649 356 620 z "},"ㅘ":{"ha":1468,"x_min":41,"x_max":1413,"o":"m 931 798 l 1005 798 q 1098 389 1084 798 l 1339 389 q 1413 315 1368 389 l 1413 260 q 1320 185 1413 233 l 1227 204 l 1098 204 l 1116 18 l 1116 -204 q 1005 -260 1098 -260 q 894 556 894 -260 q 876 723 876 568 q 931 798 903 798 m 319 427 l 374 427 q 467 37 467 427 l 727 37 q 801 -56 765 28 q 134 -186 801 -186 q 41 -56 41 -160 q 282 37 41 13 l 245 334 q 319 427 281 418 z "},"ㅙ":{"ha":1356,"x_min":41,"x_max":1302,"o":"m 783 798 l 838 798 q 912 631 912 772 l 912 389 l 1061 389 q 1098 427 1098 389 l 1098 686 q 1191 760 1106 724 q 1283 649 1283 730 q 1302 -37 1302 178 q 1227 -130 1266 -122 l 1172 -130 q 1098 204 1098 -130 l 1061 204 l 931 185 l 931 -111 q 876 -167 931 -138 l 801 -167 q 709 705 709 -167 q 783 798 745 789 m 338 500 l 393 500 q 467 427 422 500 l 467 149 q 690 93 467 111 l 727 18 q 653 -75 691 -66 l 449 -75 q 152 -93 342 -75 q 41 -19 41 -55 l 41 37 q 170 111 71 111 l 282 111 l 282 445 q 338 500 282 471 z "},"ㅚ":{"ha":1208,"x_min":41,"x_max":1154,"o":"m 1061 779 l 1080 779 q 1154 612 1154 754 l 1154 18 q 1061 -56 1145 -20 q 949 315 949 -56 l 949 667 q 1061 779 949 779 m 319 631 l 374 631 q 467 130 467 631 l 634 130 q 783 74 771 130 l 783 -19 q 671 -75 764 -75 l 486 -75 q 189 -56 378 -75 q 134 -75 153 -75 q 41 0 49 -39 l 41 18 q 152 130 41 130 l 263 130 l 263 185 q 245 538 263 335 q 319 631 281 623 z "},"ㅛ":{"ha":1319,"x_min":41,"x_max":1265,"o":"m 393 612 q 505 111 505 612 l 505 74 l 541 56 l 690 56 q 709 334 709 241 l 709 500 q 764 612 720 612 l 838 612 q 894 556 865 612 l 894 56 l 1080 56 q 1154 74 1121 56 q 1265 -37 1265 48 q 1135 -130 1239 -130 l 245 -130 l 134 -149 q 41 -75 49 -113 l 41 -19 q 115 56 41 10 l 282 56 l 319 74 q 300 352 300 259 l 300 538 q 393 612 309 576 z "},"ㅜ":{"ha":1190,"x_min":41,"x_max":1135,"o":"m 1042 760 q 1135 686 1127 724 q 820 538 1135 538 l 690 538 l 690 -19 q 616 -93 690 -47 l 560 -93 q 486 0 522 -85 q 505 74 486 41 q 486 427 486 277 l 486 519 l 263 519 l 152 500 q 41 631 41 500 q 690 742 41 717 q 1042 760 975 742 z "},"ㅝ":{"ha":1282,"x_min":41,"x_max":1227,"o":"m 1080 742 l 1116 742 l 1191 686 q 1227 -149 1209 37 q 1154 -241 1192 -233 l 1135 -241 q 1024 -130 1024 -241 l 1024 56 l 1005 93 l 968 74 l 801 74 q 690 130 705 74 l 690 204 q 820 278 720 278 l 1005 278 l 1005 667 q 1080 742 1005 696 m 838 593 q 912 482 912 575 l 912 464 q 597 371 912 401 l 616 278 l 616 -56 q 523 -111 616 -98 q 412 352 412 -111 l 393 352 q 134 334 291 352 q 41 408 49 370 l 41 464 q 690 575 41 575 q 838 593 690 593 z "},"ㅞ":{"ha":1597,"x_min":41,"x_max":1543,"o":"m 1042 835 l 1080 835 q 1227 37 1187 835 q 1246 0 1246 37 q 1135 -111 1246 -56 q 1024 185 1024 -111 l 1005 185 q 745 167 773 167 q 671 278 671 185 l 671 296 q 1005 389 671 366 q 968 779 968 626 l 1042 835 m 1339 798 l 1413 798 q 1525 37 1501 798 q 1543 0 1543 37 q 1469 -93 1507 -85 l 1395 -93 q 1283 723 1324 -93 q 1339 798 1311 798 m 783 667 l 838 593 l 838 538 q 560 445 838 469 l 578 408 q 597 18 597 83 l 541 -19 l 467 -19 q 374 427 374 14 l 245 427 l 134 408 q 41 464 41 431 l 41 556 q 783 667 41 625 z "},"ㅟ":{"ha":1319,"x_min":41,"x_max":1265,"o":"m 1080 927 l 1135 927 q 1246 130 1246 927 q 1265 -75 1265 130 q 1154 -149 1246 -149 l 1135 -149 q 1024 742 1041 -149 q 1005 835 1005 772 q 1080 927 1041 919 m 801 519 q 876 464 876 492 l 876 389 q 578 315 876 328 l 578 296 q 634 -75 634 37 q 560 -167 598 -159 q 412 149 412 -167 q 374 315 393 283 l 338 296 l 170 296 q 41 408 41 296 q 170 500 66 500 q 801 519 256 500 z "},"ㅠ":{"ha":1152,"x_min":41,"x_max":1098,"o":"m 1005 649 q 1098 575 1090 613 l 1098 556 q 987 445 1098 445 l 876 445 q 894 -93 876 383 q 783 -167 876 -167 l 764 -167 q 690 -37 690 -137 l 690 222 l 671 445 l 541 427 l 486 427 l 486 389 q 505 -56 486 205 q 430 -149 469 -140 l 374 -149 q 300 -19 300 -119 l 300 241 l 282 427 l 115 427 q 41 500 86 427 l 41 556 q 170 631 71 631 l 838 631 q 1005 649 905 631 z "},"ㅡ":{"ha":1301,"x_min":41,"x_max":1246,"o":"m 1135 408 l 1191 408 q 1246 352 1217 408 l 1246 334 q 1080 222 1246 222 q 597 204 905 204 l 319 204 q 152 185 252 204 q 41 296 41 212 q 134 389 41 346 q 1135 408 774 408 z "},"ㅢ":{"ha":1190,"x_min":41,"x_max":1135,"o":"m 857 631 l 931 631 q 1116 -149 1013 631 q 1135 -204 1135 -149 q 1024 -297 1098 -297 q 876 167 911 -297 q 801 556 857 167 q 857 631 829 631 m 208 111 l 653 111 q 764 56 764 100 l 764 -19 q 597 -93 739 -93 l 152 -93 q 41 -37 56 -93 l 41 37 q 208 111 66 111 z "},"ㅣ":{"ha":392,"x_min":41,"x_max":338,"o":"m 134 927 q 282 427 252 927 q 338 -37 319 33 q 263 -130 302 -122 l 208 -130 q 41 871 106 -130 l 134 927 z "},"㈜":{"ha":1560,"x_min":41,"x_max":1506,"o":"m 783 909 q 838 853 809 909 l 838 835 q 801 723 838 784 q 987 612 984 653 l 968 575 q 987 556 987 575 q 894 519 894 556 q 783 593 877 519 l 764 593 q 727 500 727 593 l 634 500 q 616 519 616 500 l 578 500 l 541 500 q 578 631 578 595 l 616 612 l 616 631 l 597 631 q 653 779 653 723 l 523 760 q 505 779 523 779 l 505 742 q 430 798 430 770 q 597 909 430 909 l 783 909 m 208 853 l 263 853 q 300 816 263 816 l 300 742 l 208 686 l 208 538 q 356 296 208 446 l 356 241 q 263 222 263 241 q 41 519 112 222 l 41 593 q 208 853 41 758 m 1116 816 q 1506 519 1506 756 l 1487 519 l 1506 482 q 1284 93 1506 93 q 1265 74 1284 74 q 1191 130 1265 130 q 1302 241 1191 156 q 1320 222 1302 222 l 1302 260 q 1339 408 1339 328 l 1339 500 q 1191 705 1339 603 l 1154 686 l 1116 686 q 1098 742 1116 706 l 1135 742 l 1116 779 l 1116 816 m 820 371 q 876 352 856 352 l 968 371 l 1098 334 l 1098 278 q 1061 241 1098 241 l 1042 241 l 1061 278 l 1042 278 q 1005 241 1042 241 q 987 260 1005 260 l 987 241 q 1005 222 1005 241 l 987 222 l 876 241 l 876 18 l 857 18 q 783 37 815 18 l 709 0 l 709 241 l 523 204 q 486 241 523 241 q 653 352 486 352 q 820 371 720 352 z "},"가":{"ha":1597,"x_min":41,"x_max":1543,"o":"m 1080 1038 l 1154 1038 q 1246 612 1222 1038 q 1451 649 1272 612 q 1543 575 1535 613 l 1543 519 q 1265 427 1543 427 l 1265 408 q 1302 -37 1265 307 q 1227 -130 1266 -122 l 1172 -130 q 1061 482 1080 -130 q 1024 1002 1038 482 l 1080 1038 m 523 798 q 634 667 634 798 l 634 222 q 578 167 634 196 l 505 167 q 449 222 477 167 l 449 593 q 134 556 152 575 q 41 631 49 592 l 41 705 q 523 798 41 770 z "},"각":{"ha":1430,"x_min":41,"x_max":1376,"o":"m 1024 1317 q 1116 946 1102 1317 l 1135 946 q 1283 964 1152 946 q 1376 890 1368 928 l 1376 835 q 1116 742 1376 766 l 1116 538 q 1061 482 1116 511 l 1005 482 q 931 556 976 482 q 912 1149 912 907 l 894 1187 q 1024 1317 908 1317 m 282 1242 l 505 1242 q 616 798 616 1242 l 616 742 q 541 667 616 713 l 486 667 q 412 927 412 667 l 412 1057 l 227 1038 l 115 1038 q 41 1113 86 1038 q 282 1242 41 1242 m 894 427 q 987 -222 980 427 l 894 -278 q 764 222 764 -278 q 486 204 579 204 l 374 204 q 319 260 348 204 l 319 334 q 894 427 334 427 z "},"간":{"ha":1449,"x_min":41,"x_max":1395,"o":"m 1005 1298 l 1061 1298 q 1154 890 1154 1298 l 1265 890 q 1395 798 1369 890 q 1209 686 1395 700 l 1172 686 l 1172 649 q 1191 482 1172 583 q 1135 408 1163 408 l 1042 408 q 931 1206 968 408 q 1005 1298 967 1290 m 523 1280 q 616 742 568 1280 q 523 686 616 710 q 374 1076 426 686 l 134 1038 q 41 1094 41 1062 l 41 1187 q 523 1280 41 1252 m 486 315 l 560 315 q 671 18 616 315 l 931 18 q 1061 -56 1031 18 l 1061 -111 q 931 -186 1031 -186 q 894 -167 894 -186 l 801 -186 l 671 -186 q 449 74 488 -186 l 430 260 q 486 315 430 286 z "},"갇":{"ha":1430,"x_min":41,"x_max":1376,"o":"m 1042 1298 l 1116 1298 q 1191 1038 1191 1298 l 1191 964 l 1265 964 q 1376 909 1376 953 l 1376 835 q 1209 760 1376 787 l 1209 742 q 1227 575 1209 675 q 1172 482 1204 482 l 1080 482 q 987 1224 1010 482 q 1042 1298 1015 1298 m 523 1242 q 597 1094 597 1217 q 616 705 597 985 q 541 612 580 620 l 486 612 q 412 742 412 642 l 412 1038 l 115 1038 q 41 1131 77 1046 q 412 1242 41 1242 l 523 1242 m 671 334 l 949 334 q 1005 278 976 334 l 1005 204 q 745 130 1005 130 l 745 111 l 764 -75 l 931 -75 q 1061 -186 1061 -75 q 931 -278 1035 -278 q 560 -75 560 -278 q 541 278 541 128 q 671 334 609 334 z "},"갈":{"ha":1430,"x_min":41,"x_max":1376,"o":"m 1024 1280 l 1042 1280 q 1154 1168 1154 1280 l 1154 1020 l 1209 1020 q 1376 909 1376 1020 q 1246 816 1350 816 l 1172 816 l 1172 667 q 1116 556 1172 571 l 1042 556 q 949 909 968 556 l 968 1020 l 968 1057 l 949 1168 q 1024 1280 987 1280 m 152 1261 l 449 1261 q 578 1113 578 1261 l 578 853 l 597 742 q 523 649 562 657 l 467 649 q 393 779 393 679 l 393 1038 q 356 1076 393 1076 l 96 1076 q 41 1131 70 1076 l 41 1149 q 152 1261 41 1261 m 653 464 l 894 464 q 1061 260 1061 464 l 1061 167 q 709 -56 1061 -14 q 690 -75 690 -56 l 690 -149 l 987 -149 q 1116 -260 1116 -149 q 949 -353 1116 -353 l 764 -353 q 505 -149 505 -353 q 486 0 486 -130 q 857 185 486 125 l 857 278 l 801 278 q 541 241 681 278 q 467 296 467 269 l 467 371 q 653 464 509 464 z "},"갉":{"ha":1412,"x_min":41,"x_max":1358,"o":"m 949 1242 l 1005 1242 q 1098 909 1086 1242 l 1246 909 q 1358 853 1358 897 l 1358 779 q 1191 705 1333 705 l 1135 705 l 1135 519 q 1080 464 1135 492 l 1005 464 q 876 1149 943 464 q 949 1242 911 1234 m 412 1187 l 486 1187 q 597 631 597 1187 q 486 556 578 556 q 374 983 403 556 l 96 983 q 41 1038 70 983 l 41 1113 q 412 1187 41 1187 m 356 315 l 523 315 q 671 167 671 302 l 709 167 q 745 222 709 222 l 987 222 q 1154 -75 1154 222 l 1154 -222 q 1042 -315 1124 -315 q 949 -149 949 -315 l 949 0 q 727 56 949 37 q 690 93 727 93 q 505 -167 690 -167 q 467 -204 467 -173 l 467 -278 l 597 -260 l 671 -260 q 727 -315 698 -260 l 727 -390 q 430 -482 727 -452 q 263 -186 263 -482 q 505 37 263 -30 l 505 93 l 486 130 l 393 111 l 300 111 q 189 167 204 111 l 189 241 q 356 315 214 315 z "},"갊":{"ha":1375,"x_min":41,"x_max":1320,"o":"m 949 1224 l 968 1224 q 1098 964 1098 1224 l 1098 946 l 1135 946 q 1209 964 1177 946 q 1320 853 1320 938 q 1116 742 1320 766 l 1116 723 q 1135 538 1135 561 q 1061 445 1099 453 l 1005 445 q 894 1187 894 445 l 949 1224 m 96 1149 l 523 1149 q 653 1038 653 1149 q 560 519 631 519 l 486 519 q 430 575 459 519 l 430 649 q 449 964 430 747 l 152 964 q 41 1020 56 964 l 41 1094 q 96 1149 41 1121 m 300 334 l 412 334 q 634 167 634 334 l 634 93 q 393 -186 634 -45 l 393 -222 l 560 -222 q 709 -315 649 -222 q 541 -427 709 -427 l 505 -427 q 208 -241 208 -427 l 208 -93 q 430 74 226 -25 l 430 130 l 263 130 q 134 204 163 130 q 300 334 134 334 m 1098 278 q 1227 167 1180 278 q 1061 -371 1178 -371 q 690 -241 690 -371 l 653 167 q 727 260 689 252 l 1024 260 q 1098 278 1065 260 m 857 37 q 949 -167 857 -167 l 968 -167 q 1005 74 1005 -83 l 894 74 q 857 37 857 68 z "},"감":{"ha":1394,"x_min":41,"x_max":1339,"o":"m 170 1113 l 597 1113 q 671 1020 671 1074 q 541 427 616 427 l 467 427 q 412 500 421 427 q 467 909 412 593 l 152 909 q 41 964 56 909 l 41 1038 q 170 1113 71 1113 m 1042 1113 l 1061 1113 q 1135 946 1135 1088 l 1135 835 q 1209 853 1144 835 q 1339 779 1339 827 l 1339 723 q 1135 631 1339 664 l 1154 593 l 1154 464 q 1080 334 1154 363 l 1024 334 q 949 519 949 353 q 931 1038 949 664 q 1042 1113 949 1113 m 949 296 q 1042 204 968 296 q 894 -315 1042 -315 l 653 -315 q 486 56 486 -315 l 467 149 q 801 296 467 296 l 949 296 m 671 93 q 727 -111 690 -111 l 820 -111 l 820 -93 l 838 93 l 671 93 z "},"갑":{"ha":1449,"x_min":41,"x_max":1395,"o":"m 1080 1187 q 1191 853 1191 1187 l 1339 853 q 1395 798 1366 853 l 1395 742 q 1320 667 1395 713 l 1209 667 l 1209 464 q 1116 389 1201 425 q 987 1038 987 389 q 968 1076 968 1038 q 1080 1187 994 1187 m 541 1131 q 671 649 671 1131 l 671 538 q 616 464 644 464 l 541 464 q 467 723 467 464 l 467 890 l 449 927 q 78 871 268 871 l 41 927 l 41 1002 q 541 1131 41 1067 m 968 241 q 1080 185 1080 229 l 1080 -111 q 783 -427 1023 -427 q 467 -37 467 -427 l 449 185 l 505 222 l 578 222 q 653 93 653 193 l 894 93 q 968 241 898 241 m 671 -111 l 671 -130 l 690 -222 l 801 -222 q 876 -149 830 -222 l 876 -111 l 671 -111 z "},"값":{"ha":1505,"x_min":41,"x_max":1451,"o":"m 541 1168 q 690 593 690 1168 l 690 575 l 634 538 l 578 538 q 467 964 492 538 q 78 927 210 927 l 41 983 l 41 1057 q 541 1168 41 1128 m 1061 1149 l 1080 1149 q 1191 983 1191 1149 q 1209 853 1209 909 l 1395 871 l 1451 798 l 1451 742 q 1283 667 1426 667 l 1227 667 l 1227 482 q 1135 408 1219 444 q 1005 983 1005 408 l 1005 1113 l 1061 1149 m 245 315 q 356 74 307 315 q 560 56 560 74 q 653 260 593 260 l 727 260 q 783 167 759 260 q 597 -482 703 -482 l 560 -482 q 227 -315 227 -482 q 134 241 134 106 l 134 260 q 245 315 152 315 m 1042 260 q 1098 167 1084 260 q 1042 -56 1042 0 l 1042 -75 l 1265 -334 l 1265 -408 q 1209 -464 1265 -435 l 1191 -464 q 968 -297 1117 -464 l 949 -297 q 820 -501 949 -451 q 727 -390 727 -471 q 949 260 894 211 l 1042 260 m 393 -130 q 449 -278 393 -267 l 486 -278 q 541 -130 523 -278 l 393 -130 z "},"갓":{"ha":1728,"x_min":41,"x_max":1674,"o":"m 597 1151 q 709 891 709 1151 q 746 483 746 661 l 635 427 q 505 909 505 427 l 505 928 l 96 891 l 41 966 l 41 1058 q 597 1151 110 1124 m 1247 1151 q 1321 1021 1289 1151 l 1303 984 l 1321 891 l 1303 891 q 1321 798 1321 861 q 1581 854 1444 854 l 1600 854 q 1674 780 1629 854 q 1340 594 1674 633 q 1377 446 1340 538 q 1228 260 1369 260 q 1136 427 1136 307 l 1154 427 q 1099 798 1136 460 l 1117 798 l 1099 836 l 1099 947 q 1247 1151 1099 1151 m 857 205 l 932 205 q 968 168 968 199 l 968 37 l 1340 -185 l 1340 -278 q 1210 -352 1310 -352 l 1192 -352 q 895 -167 994 -248 q 802 -389 895 -351 l 728 -389 q 671 -278 671 -371 l 671 -260 q 857 205 770 205 z "},"갔":{"ha":1803,"x_min":41,"x_max":1748,"o":"m 1228 1170 q 1340 817 1340 1170 q 1655 854 1592 854 q 1748 798 1727 798 q 1377 613 1748 613 l 1396 353 q 1284 241 1396 279 q 1117 966 1117 241 l 1117 1021 q 1228 1170 1140 1170 m 134 1133 l 709 1133 l 746 1002 q 728 854 746 956 q 746 446 746 641 l 690 409 l 653 409 q 524 613 524 409 l 524 928 l 505 928 q 171 891 264 928 q 41 1021 87 891 q 134 1133 66 1098 m 1173 186 q 1284 19 1284 186 q 1525 -204 1284 -100 q 1563 -315 1563 -264 q 1470 -408 1550 -364 q 1265 -296 1271 -355 l 1228 -296 q 1080 -557 1228 -557 q 987 -427 987 -482 q 1173 186 1048 186 m 653 168 q 728 -56 699 168 q 913 -241 900 -166 q 839 -371 888 -371 l 820 -371 q 635 -278 741 -371 l 616 -278 q 542 -427 597 -427 q 412 -334 449 -427 l 412 -204 q 579 168 467 71 l 653 168 z "},"강":{"ha":1710,"x_min":41,"x_max":1655,"o":"m 560 1151 q 690 1002 671 1151 l 690 705 q 709 538 690 639 q 635 427 671 427 l 616 427 q 467 743 467 427 l 467 798 l 486 928 q 152 891 301 891 l 115 891 q 41 984 90 892 l 41 1021 q 356 1133 41 1095 l 356 1114 l 393 1133 l 449 1133 q 467 1114 467 1133 l 560 1151 m 1192 1133 l 1265 1133 q 1321 1077 1293 1133 l 1321 836 l 1507 854 l 1544 854 q 1655 798 1655 842 l 1655 724 q 1340 594 1655 665 l 1340 576 q 1358 390 1358 413 q 1210 241 1335 241 q 1099 836 1112 241 l 1117 836 l 1099 873 q 1117 891 1099 891 l 1099 928 q 1192 1133 1132 1133 m 1006 130 q 1303 -148 1200 130 q 987 -482 1265 -482 q 690 -130 690 -389 q 1006 130 690 79 m 913 -111 l 913 -167 q 1061 -260 960 -260 q 1099 -167 1061 -213 l 1099 -148 q 1006 -74 1099 -121 q 913 -111 945 -111 z "},"갖":{"ha":1747,"x_min":41,"x_max":1693,"o":"m 616 1188 q 728 1040 728 1160 l 709 966 q 746 483 746 601 q 635 446 685 446 l 616 446 q 486 947 524 446 l 467 947 q 115 891 173 891 q 41 1021 41 922 q 560 1170 41 1170 q 616 1188 560 1188 m 1265 1170 q 1377 928 1377 1170 l 1377 909 l 1358 873 q 1377 854 1377 873 l 1470 873 l 1637 873 q 1693 798 1693 873 q 1377 631 1693 631 l 1396 594 l 1396 390 q 1284 279 1396 279 q 1173 446 1173 279 q 1154 1021 1154 722 q 1265 1170 1154 1142 m 1173 186 q 1228 75 1228 114 l 1192 -74 q 1451 -278 1444 -245 l 1451 -315 q 1340 -427 1451 -427 l 1303 -427 l 1136 -315 l 1099 -315 q 987 -482 1099 -404 l 932 -482 q 857 -352 857 -452 l 857 -296 q 968 -56 968 -125 l 950 -56 q 746 -111 825 -111 q 635 37 635 -73 q 1173 186 726 186 z "},"갗":{"ha":1691,"x_min":41,"x_max":1637,"o":"m 579 1114 q 728 631 728 1068 q 746 613 746 631 q 671 483 713 483 l 597 483 q 486 928 519 483 q 282 891 447 913 l 282 909 l 152 873 q 41 1002 41 873 q 171 1095 41 1095 q 579 1114 300 1095 m 1228 1114 q 1321 891 1303 1114 l 1303 891 q 1321 798 1321 861 l 1358 817 l 1563 817 q 1637 780 1608 780 q 1451 631 1637 631 l 1358 631 q 1377 390 1377 401 q 1265 279 1377 279 l 1228 279 q 1080 1002 1161 279 q 1228 1114 1118 1114 m 913 297 q 1006 168 1006 271 q 597 37 1006 84 q 505 149 542 49 q 913 297 505 278 m 932 56 q 1061 -111 1021 56 q 1321 -352 1321 -216 q 1247 -427 1321 -381 l 1210 -427 q 1006 -315 1148 -427 l 1006 -296 l 987 -296 q 876 -538 956 -538 q 746 -427 746 -528 q 802 -185 764 -236 l 616 -204 l 597 -204 q 542 -92 560 -204 q 932 56 542 14 z "},"같":{"ha":1710,"x_min":41,"x_max":1655,"o":"m 1228 1151 l 1284 1077 l 1284 836 l 1470 854 l 1581 854 q 1655 780 1610 854 l 1655 743 q 1618 669 1618 697 l 1600 669 q 1321 631 1332 631 l 1340 446 l 1340 297 q 1228 241 1321 241 l 1210 241 q 1099 762 1099 272 q 1080 1002 1080 762 l 1080 1021 q 1228 1151 1080 1151 m 560 1114 q 709 613 648 1114 q 635 501 671 501 l 560 501 q 449 891 490 501 q 152 836 408 891 q 41 928 75 861 q 449 1095 41 1095 q 560 1114 449 1114 m 876 168 l 913 149 l 1006 168 q 1154 93 1154 145 l 1154 56 q 1061 -37 1154 31 l 820 -37 l 820 -74 l 839 -111 q 987 -74 907 -74 l 1006 -74 q 1154 -148 1154 -74 q 857 -278 1110 -278 l 876 -315 l 1099 -296 l 1210 -296 q 1265 -408 1247 -296 q 1228 -500 1228 -469 l 1099 -500 q 876 -557 1034 -500 q 635 -130 635 -557 q 597 75 612 -130 q 876 168 654 130 z "},"갚":{"ha":1635,"x_min":41,"x_max":1581,"o":"m 1061 1133 l 1173 1133 q 1228 836 1228 996 l 1247 836 q 1451 854 1374 854 l 1525 854 q 1581 743 1581 836 q 1396 650 1484 650 l 1265 650 q 1284 334 1284 432 l 1284 297 q 1228 241 1284 271 l 1192 241 q 1043 594 1043 241 l 1024 669 l 1043 669 q 1006 873 1028 707 l 1024 873 l 1006 909 l 1006 1077 q 1061 1133 1006 1103 m 412 1114 l 560 1114 q 690 613 648 1114 q 616 465 668 465 l 542 465 q 449 909 449 465 l 431 909 q 96 873 196 873 q 41 966 41 934 q 300 1095 41 1095 q 412 1114 300 1114 m 1043 186 q 1173 56 1173 186 q 1099 -18 1154 -18 q 1117 -260 1099 -30 l 1228 -260 q 1340 -352 1340 -260 q 1024 -500 1340 -500 q 690 -557 888 -500 q 579 -464 614 -531 l 579 -408 q 653 -334 579 -379 l 635 -148 l 635 -92 l 560 -92 q 431 37 431 -92 q 1043 186 431 124 m 839 -56 l 839 -74 q 857 -296 857 -267 l 913 -296 l 895 -111 l 895 -56 l 839 -56 z "},"갛":{"ha":1691,"x_min":41,"x_max":1637,"o":"m 1192 1151 l 1228 1133 q 1247 1151 1228 1151 q 1321 947 1321 1025 l 1321 854 l 1507 873 l 1581 873 q 1637 817 1608 873 l 1637 724 q 1358 631 1637 669 q 1377 409 1377 439 q 1265 334 1358 334 l 1228 334 q 1099 1040 1154 334 q 1192 1151 1117 1121 m 597 1133 q 709 538 677 1133 q 653 465 681 465 l 635 465 q 486 576 533 465 l 486 594 q 467 909 486 692 l 152 854 q 41 984 41 887 q 597 1133 41 1112 m 857 372 q 1006 186 1006 372 l 987 186 q 1024 112 1002 112 q 1228 130 1189 130 l 1284 37 l 1284 19 q 1210 -92 1284 -92 q 1247 -296 1247 -192 q 968 -519 1173 -519 l 932 -519 q 690 -278 690 -452 l 690 -148 q 542 0 542 -148 q 671 93 572 93 l 671 75 l 709 93 l 802 93 l 802 112 q 783 260 783 244 q 857 372 821 372 m 950 -111 q 895 -222 950 -154 l 895 -278 l 987 -296 q 1061 -185 1061 -278 q 950 -111 1061 -155 z "},"개":{"ha":1728,"x_min":41,"x_max":1674,"o":"m 1061 909 q 1192 557 1192 909 q 1210 538 1210 557 l 1303 557 l 1396 557 l 1396 669 q 1377 743 1396 710 q 1489 854 1377 854 l 1525 854 q 1600 762 1564 846 q 1581 743 1600 743 q 1674 130 1674 249 q 1600 0 1649 0 l 1525 0 q 1432 353 1470 0 l 1340 334 l 1228 334 q 1265 93 1228 288 l 1247 93 l 1265 56 l 1265 37 q 1154 -74 1217 -60 q 1006 446 1027 -74 q 987 501 987 481 l 1006 501 q 968 836 968 595 q 1061 909 987 909 m 375 873 l 486 873 q 671 650 671 873 q 690 520 690 650 l 690 205 q 616 130 690 176 l 560 130 q 467 279 467 178 l 467 409 q 486 427 467 427 q 467 483 467 463 q 486 501 467 501 l 467 594 l 467 650 l 449 650 q 134 613 199 613 l 115 613 q 41 762 59 613 q 59 780 59 762 q 41 798 41 780 q 375 873 303 873 z "},"객":{"ha":1691,"x_min":41,"x_max":1637,"o":"m 524 1151 q 728 724 728 1151 q 746 538 728 636 q 616 483 678 483 q 467 947 467 483 q 171 873 227 873 l 134 873 q 41 984 41 926 q 524 1151 41 1093 m 1043 1133 l 1080 1133 q 1192 966 1192 1133 q 1210 836 1210 892 q 1377 947 1377 836 q 1451 1095 1396 1095 l 1470 1095 q 1600 854 1600 1095 l 1581 854 l 1600 817 q 1637 427 1600 659 l 1618 427 l 1637 390 l 1637 334 q 1563 260 1637 305 l 1525 260 q 1396 520 1396 260 q 1377 669 1396 536 q 1247 631 1283 631 q 1265 353 1247 538 l 1154 279 q 987 854 1006 279 l 987 1021 q 1043 1133 999 1133 m 1228 168 l 1340 168 q 1489 -185 1489 168 l 1489 -315 q 1432 -371 1489 -342 l 1340 -371 q 1247 -56 1265 -371 l 1192 -56 q 895 -130 1147 -56 l 820 -56 l 820 37 q 1228 168 820 106 z "},"갠":{"ha":1617,"x_min":41,"x_max":1563,"o":"m 505 1151 q 728 483 728 1151 q 616 446 667 446 q 467 873 467 446 l 449 909 q 134 854 416 909 q 41 984 41 880 q 412 1133 41 1102 l 412 1114 l 505 1151 m 987 1133 q 1099 798 1099 1022 q 1265 836 1219 836 l 1247 1021 l 1247 1058 q 1303 1114 1247 1085 l 1396 1114 q 1525 613 1480 1114 q 1563 353 1549 613 q 1432 260 1533 260 q 1321 372 1369 275 l 1321 446 l 1303 631 q 1136 594 1275 631 l 1173 353 q 1024 279 1095 279 q 857 1040 917 279 q 987 1133 887 1133 m 709 130 q 839 -167 839 96 q 1154 -130 904 -167 l 1154 -148 l 1192 -130 q 1303 -204 1303 -173 l 1303 -296 q 857 -408 1303 -371 q 839 -427 857 -427 q 597 37 597 -427 q 709 130 609 93 z "},"갤":{"ha":1710,"x_min":41,"x_max":1655,"o":"m 597 1133 q 728 501 728 1002 l 616 446 q 467 891 467 446 q 134 854 411 891 q 41 984 41 880 l 41 1002 q 597 1133 41 1095 m 1507 1133 q 1618 798 1618 1133 l 1600 798 q 1655 316 1655 532 q 1525 260 1588 260 q 1396 669 1446 260 q 1228 613 1228 650 q 1247 316 1247 423 q 1117 260 1179 260 q 950 966 999 260 q 932 984 932 966 q 987 1114 987 1077 l 1099 1114 q 1192 854 1156 1114 q 1396 891 1369 873 l 1377 928 l 1377 966 q 1507 1133 1377 1133 m 1247 186 q 1396 -130 1396 186 l 1396 -222 q 1117 -352 1396 -264 l 1117 -389 q 1340 -352 1293 -352 q 1470 -482 1470 -352 q 1136 -612 1417 -612 q 895 -389 895 -612 q 1117 -130 895 -162 q 1173 -92 1173 -130 l 1173 -37 l 1154 -37 q 839 -92 926 -92 l 802 -92 q 728 19 728 -56 q 1247 186 728 123 z "},"갬":{"ha":1654,"x_min":41,"x_max":1600,"o":"m 932 1151 l 1043 1151 q 1136 798 1099 1040 l 1321 817 l 1340 817 l 1340 854 l 1321 1077 q 1377 1133 1377 1077 l 1489 1133 q 1600 427 1544 1034 q 1507 353 1592 389 q 1377 631 1421 353 q 1173 594 1278 594 q 1210 446 1210 476 q 1136 353 1174 361 l 1061 353 q 895 1095 958 413 q 932 1151 932 1095 m 431 1133 l 542 1133 q 709 538 665 1133 l 653 501 l 616 501 q 486 650 514 501 q 467 798 467 722 l 467 928 q 431 947 431 928 q 96 891 412 928 l 41 966 l 41 1021 q 431 1133 41 1133 m 1247 241 q 1414 -334 1414 241 q 1024 -482 1208 -482 l 820 -371 q 690 93 742 -304 q 857 223 745 223 l 932 205 q 1247 241 1116 241 m 913 0 l 968 -278 q 1210 -204 1013 -278 l 1192 -111 l 1192 37 q 913 0 932 19 z "},"갭":{"ha":1506,"x_min":41,"x_max":1451,"o":"m 412 1151 q 597 743 597 1151 l 616 557 q 486 501 548 501 q 375 966 393 501 l 356 966 q 115 928 189 928 q 41 1021 90 930 l 41 1058 q 412 1151 85 1151 m 932 1114 q 1024 798 1000 1020 l 1192 817 l 1173 854 l 1173 1002 q 1228 1114 1184 1114 l 1303 1114 q 1414 576 1382 1114 q 1451 427 1451 576 q 1377 334 1415 342 l 1284 334 q 1210 613 1210 583 l 1154 613 q 1061 576 1061 608 l 1080 409 l 987 334 q 968 353 968 334 l 932 334 q 802 984 851 334 q 932 1114 802 1114 m 1080 241 l 1136 241 q 1228 112 1228 186 l 1210 112 l 1228 75 l 1228 19 q 1210 0 1228 0 l 1228 -37 l 1228 -241 q 1006 -482 1187 -482 l 820 -482 q 524 -18 524 -414 l 524 56 q 579 168 535 168 l 597 168 q 746 -18 720 168 q 1024 0 979 0 l 1024 130 q 1080 241 1036 241 m 987 -222 l 839 -222 l 839 -260 l 1006 -260 q 1043 -222 1043 -260 q 1024 -204 1024 -222 l 987 -222 z "},"갯":{"ha":1728,"x_min":41,"x_max":1674,"o":"m 542 1114 q 783 780 783 1086 q 820 409 820 429 q 690 353 752 353 q 560 873 560 353 l 524 891 l 467 891 q 115 836 364 891 q 41 928 90 837 l 41 947 q 356 1095 41 1095 q 542 1114 421 1114 m 1154 1095 q 1247 762 1247 1010 l 1265 762 l 1396 798 q 1358 966 1358 884 q 1507 1077 1387 1077 q 1674 316 1581 1077 q 1563 205 1674 205 l 1544 205 q 1414 576 1470 205 l 1284 557 l 1303 334 q 1192 223 1303 223 q 1043 817 1062 223 q 1024 1002 1024 817 q 1154 1095 1050 1095 m 932 149 l 1006 149 q 1080 75 1035 149 l 1080 -37 q 1489 -334 1138 -37 l 1489 -352 q 1358 -482 1489 -482 q 1006 -260 1340 -482 q 820 -482 1006 -482 q 764 -334 764 -404 q 932 149 849 100 z "},"갰":{"ha":1728,"x_min":41,"x_max":1674,"o":"m 1136 1170 q 1247 1021 1247 1131 l 1247 928 l 1228 891 l 1265 873 q 1432 928 1432 888 l 1432 1095 q 1489 1151 1432 1122 l 1507 1151 q 1637 1021 1637 1151 l 1637 891 q 1674 465 1674 483 q 1563 372 1674 372 l 1544 372 q 1432 687 1489 372 l 1303 669 l 1265 669 q 1303 427 1303 501 q 1173 316 1259 316 q 1043 724 1077 316 q 1024 1058 1024 827 q 1136 1170 1024 1114 m 579 1133 q 728 650 728 1133 q 764 594 746 650 q 635 446 764 446 l 597 446 q 505 873 515 446 l 505 909 l 486 909 q 115 836 415 909 q 41 984 63 836 q 579 1133 111 1133 m 1303 186 q 1414 37 1369 186 q 1396 -74 1396 16 q 1655 -315 1655 -192 l 1655 -334 q 1618 -408 1618 -379 l 1507 -408 l 1377 -315 l 1358 -315 l 1358 -445 q 1247 -575 1358 -575 q 1136 -260 1136 -575 q 1303 186 1177 186 m 783 168 q 857 -18 848 98 q 1099 -296 1099 -212 q 1043 -389 1085 -389 l 950 -389 q 783 -260 871 -338 q 616 -482 783 -482 q 560 -334 560 -415 q 746 168 560 168 l 783 168 z "},"갱":{"ha":1672,"x_min":41,"x_max":1618,"o":"m 1061 1151 q 1173 817 1154 1151 l 1192 817 q 1358 854 1326 836 l 1340 891 l 1340 1058 q 1377 1095 1345 1095 l 1470 1095 q 1618 427 1575 1095 l 1618 409 q 1507 279 1618 279 q 1377 650 1392 279 l 1284 631 l 1210 631 q 1247 483 1247 513 l 1228 483 l 1247 446 l 1247 409 q 1154 279 1247 279 q 987 705 987 279 q 950 1114 958 705 q 1061 1151 1011 1151 m 560 1095 q 728 613 728 1042 l 728 520 l 597 483 q 486 854 486 570 l 486 909 q 96 854 212 854 q 41 909 70 854 l 41 984 q 560 1095 41 1060 m 1173 186 q 1451 -37 1278 186 l 1451 -111 q 1136 -427 1451 -427 q 839 -111 880 -427 l 839 0 l 857 37 q 839 56 839 37 l 1006 168 l 1173 186 m 1061 -18 q 1117 -204 1061 -84 l 1173 -204 q 1228 -111 1215 -204 q 1136 0 1228 -83 q 1061 -18 1103 -18 z "},"갸":{"ha":1895,"x_min":41,"x_max":1841,"o":"m 1192 984 q 1358 650 1358 984 l 1377 650 q 1637 724 1477 705 q 1767 650 1767 680 l 1767 594 q 1396 483 1684 483 l 1396 427 l 1414 390 q 1711 427 1609 427 q 1841 353 1841 390 l 1841 297 q 1432 186 1841 196 l 1432 168 q 1451 56 1451 70 q 1321 -74 1451 -74 q 1192 353 1192 -74 q 1117 928 1117 662 l 1192 984 m 616 928 q 839 130 839 928 q 783 75 839 104 l 690 75 q 560 724 610 75 q 115 687 467 724 q 41 798 41 705 q 616 928 41 890 z "},"갹":{"ha":1728,"x_min":41,"x_max":1674,"o":"m 1210 1244 q 1303 1170 1295 1208 l 1303 1040 q 1340 1021 1340 1040 l 1432 1040 l 1544 1040 q 1674 966 1644 1040 l 1674 928 q 1321 798 1674 858 q 1340 724 1340 766 l 1470 743 l 1544 743 q 1655 687 1655 731 l 1655 594 q 1358 465 1373 492 q 1247 353 1358 353 q 1099 873 1120 353 q 1080 966 1099 935 q 1210 1244 1099 1244 m 616 1188 q 746 798 726 1188 q 764 631 746 732 q 653 501 764 549 q 524 780 524 501 l 505 966 q 152 891 345 966 q 41 1021 41 891 l 41 1058 q 616 1188 41 1145 m 1210 205 l 1228 205 q 1321 75 1321 149 q 1303 -111 1303 -87 l 1321 -204 q 1247 -315 1284 -315 l 1154 -315 q 1080 -185 1080 -285 l 1080 0 l 802 -74 q 709 -18 709 -60 l 709 112 q 1210 205 951 205 z "},"갼":{"ha":1803,"x_min":41,"x_max":1748,"o":"m 1173 1188 q 1247 1021 1247 1126 l 1247 966 l 1618 966 q 1693 836 1693 935 q 1377 762 1593 762 l 1284 762 l 1284 650 q 1600 705 1451 687 q 1748 594 1670 705 l 1748 557 q 1321 427 1748 496 l 1321 334 q 1265 223 1321 238 l 1173 223 q 1024 1077 1072 223 q 1173 1188 1063 1188 m 449 1133 l 449 1114 l 486 1133 l 560 1133 q 709 873 709 1133 q 728 557 709 810 q 653 446 690 446 l 579 446 q 467 798 486 446 q 486 854 486 834 q 467 909 467 890 q 152 854 393 909 l 115 854 q 41 928 86 854 l 41 947 q 300 1114 41 1090 q 449 1133 317 1114 m 820 75 l 932 75 q 1006 -204 1006 -167 q 1358 -111 1184 -130 q 1489 -222 1440 -111 q 1247 -352 1470 -352 q 932 -427 1107 -427 q 764 0 764 -427 q 820 75 792 75 z "},"걀":{"ha":1691,"x_min":41,"x_max":1637,"o":"m 1192 1206 q 1284 1077 1246 1192 q 1265 1002 1265 1044 l 1525 1002 q 1600 928 1554 1002 l 1600 873 q 1507 798 1598 847 q 1489 817 1489 798 l 1303 780 l 1303 724 l 1563 724 q 1637 594 1637 694 q 1321 483 1565 527 q 1265 390 1308 390 l 1192 390 q 1061 1021 1080 390 l 1061 1077 q 1192 1206 1061 1206 m 597 1170 q 728 705 700 1170 q 746 631 746 705 q 616 501 722 501 q 467 947 495 501 l 152 891 q 41 1021 41 935 q 134 1133 66 1098 l 152 1133 q 171 1114 171 1133 q 597 1170 349 1170 m 1154 334 q 1377 75 1377 334 l 1377 37 q 1136 -260 1377 -169 l 1099 -315 l 1192 -334 l 1414 -334 q 1451 -371 1451 -340 l 1451 -408 q 1173 -575 1451 -575 q 876 -334 954 -575 q 1136 -18 876 -134 l 1154 19 l 1154 112 l 1136 112 q 783 37 1087 112 q 709 149 709 56 q 1154 334 709 258 z "},"걋":{"ha":1654,"x_min":41,"x_max":1600,"o":"m 1061 1151 q 1210 947 1210 1151 l 1470 966 q 1581 891 1544 966 l 1581 836 q 1228 724 1581 784 l 1228 705 l 1265 687 q 1451 705 1289 687 q 1600 594 1600 678 q 1303 465 1600 494 q 1284 446 1303 446 l 1303 409 l 1303 390 q 1154 241 1303 241 q 1024 557 1080 275 q 987 1058 987 928 q 1061 1151 1023 1143 m 449 1133 q 616 817 616 1133 q 653 557 653 817 q 542 465 623 465 q 375 947 423 465 l 375 966 q 78 928 271 928 l 41 984 l 41 1021 q 449 1133 41 1118 m 839 130 l 857 130 q 968 0 968 130 q 1321 -222 1168 -176 q 1303 -241 1321 -241 l 1321 -278 q 1247 -408 1321 -378 l 1210 -408 q 876 -241 1158 -408 l 876 -260 q 802 -445 876 -351 l 709 -464 q 635 -352 635 -401 q 839 130 635 -90 z "},"걍":{"ha":1654,"x_min":41,"x_max":1600,"o":"m 1080 1151 l 1154 1151 q 1228 928 1215 1151 q 1377 947 1331 947 q 1600 836 1600 928 q 1470 724 1571 724 l 1284 724 q 1247 687 1247 718 l 1247 631 l 1265 631 l 1432 650 q 1600 538 1539 650 q 1303 409 1600 409 q 1210 260 1303 312 q 1024 705 1046 260 l 1024 966 q 1006 1040 1024 1007 q 1080 1151 1049 1151 m 597 1133 q 746 557 746 999 q 635 446 720 446 q 486 891 486 446 l 282 891 q 152 836 226 854 q 41 928 75 861 l 41 1021 q 597 1133 41 1133 m 950 130 q 1024 75 1024 102 q 1080 93 1060 93 q 1321 -148 1321 -26 q 1136 -500 1321 -399 q 690 -148 690 -500 l 690 -92 q 950 130 690 105 m 913 -56 q 895 -92 913 -92 q 1080 -278 938 -278 l 1099 -241 l 1099 -185 q 968 -56 1099 -167 l 913 -56 z "},"걔":{"ha":1876,"x_min":41,"x_max":1822,"o":"m 1136 1095 q 1228 928 1228 1095 l 1228 798 q 1265 762 1234 762 q 1507 798 1386 798 l 1489 836 l 1489 891 q 1600 1021 1503 1021 q 1748 594 1716 1021 q 1822 168 1822 326 l 1822 130 q 1748 37 1773 39 l 1655 37 l 1581 334 q 1303 260 1394 297 l 1321 223 l 1321 149 q 1228 37 1321 37 q 1099 297 1099 37 q 1024 928 1024 795 l 1024 947 q 1136 1095 1024 1081 m 579 966 q 746 409 746 966 q 764 260 764 409 l 690 205 l 671 205 q 524 520 524 205 q 505 724 505 587 l 486 724 q 152 650 375 724 l 115 650 q 41 762 78 650 q 375 928 41 928 q 579 966 375 947 m 1265 538 q 1284 483 1284 503 q 1544 538 1348 520 q 1507 594 1525 594 q 1265 538 1404 594 z "},"걘":{"ha":1784,"x_min":41,"x_max":1729,"o":"m 1024 1114 l 1080 1114 q 1154 1040 1109 1114 l 1154 909 l 1192 909 l 1414 928 q 1432 909 1414 909 q 1563 1095 1432 1095 l 1581 1095 q 1693 501 1667 1095 q 1729 241 1729 501 q 1655 149 1693 157 l 1637 149 q 1489 465 1489 149 q 1228 409 1263 427 l 1265 260 q 1192 149 1228 149 l 1117 149 q 932 947 987 212 l 950 947 q 932 966 950 966 q 1024 1114 932 1073 m 524 1077 q 690 780 690 1077 q 728 390 690 703 q 579 316 649 316 q 467 854 505 316 l 449 854 l 96 798 q 41 928 41 866 l 41 966 q 524 1077 73 1077 m 1173 687 l 1173 650 q 1470 687 1227 650 l 1470 724 l 1451 724 q 1173 687 1350 724 m 932 0 q 1043 -315 1031 0 q 1099 -334 1079 -334 q 1396 -296 1310 -296 l 1432 -296 q 1507 -371 1461 -296 l 1507 -389 q 1099 -557 1419 -557 l 968 -557 q 802 -130 853 -557 q 932 0 830 -33 z "},"걜":{"ha":1691,"x_min":41,"x_max":1637,"o":"m 653 1114 q 783 501 739 1114 l 783 483 q 671 372 783 372 l 635 372 q 505 909 566 372 l 486 909 q 96 854 183 854 q 41 966 41 926 q 356 1114 41 1114 l 653 1114 m 950 1114 l 1006 1114 q 1099 909 1075 1114 q 1321 947 1227 947 l 1358 947 q 1451 1095 1358 1048 q 1581 1021 1551 1095 l 1581 947 q 1637 353 1581 850 q 1525 241 1637 241 l 1489 241 q 1414 483 1438 241 q 1192 427 1247 427 l 1192 316 q 1117 241 1192 287 l 1043 241 q 857 1002 961 241 q 950 1114 883 1079 m 1136 669 q 1154 650 1154 669 q 1377 687 1331 687 l 1377 762 q 1136 669 1136 705 m 1247 205 q 1489 -92 1489 148 l 1489 -130 q 1173 -334 1489 -286 q 1451 -427 1173 -383 l 1451 -445 q 1265 -612 1451 -587 l 1210 -612 q 950 -352 950 -578 q 1173 -130 996 -130 q 1284 -74 1284 -105 l 1284 -56 q 1228 0 1284 -28 l 1192 0 l 968 -37 q 839 37 839 -12 l 839 56 q 1247 205 839 176 z "},"거":{"ha":1561,"x_min":41,"x_max":1507,"o":"m 579 966 q 783 613 736 966 q 1117 669 981 669 l 1154 669 q 1117 854 1117 838 q 1192 966 1155 966 l 1247 966 q 1358 705 1333 966 q 1507 149 1507 359 l 1507 112 q 1377 19 1470 19 q 1228 465 1298 19 q 802 372 995 446 l 839 186 q 709 37 802 37 q 597 149 646 52 q 524 743 597 500 q 96 669 167 669 l 41 743 l 41 780 q 263 928 41 909 q 579 966 448 966 z "},"걱":{"ha":1506,"x_min":41,"x_max":1451,"o":"m 560 1095 q 764 780 718 1095 q 1173 854 764 831 l 1173 873 l 1136 947 q 1265 1095 1136 1095 l 1284 1095 q 1451 372 1432 1019 q 1358 241 1414 256 l 1284 241 q 1210 631 1225 241 q 802 594 1053 594 q 783 650 783 630 l 764 650 l 764 538 q 783 465 764 497 q 709 316 753 316 l 690 316 q 542 483 542 316 l 542 817 q 505 854 542 854 l 412 836 l 412 854 q 134 798 212 798 q 41 928 41 824 q 115 1058 41 1007 q 171 1040 135 1058 l 560 1095 m 1136 93 q 1396 -74 1344 93 l 1396 -92 q 1377 -111 1396 -111 l 1396 -148 l 1396 -334 q 1303 -500 1358 -500 l 1210 -500 q 1154 -427 1182 -500 q 1173 -148 1173 -241 l 1117 -148 q 690 -204 758 -204 q 635 -74 635 -136 l 635 -37 q 1136 93 635 43 z "},"건":{"ha":1598,"x_min":41,"x_max":1544,"o":"m 1321 1133 l 1396 1133 q 1489 891 1453 1133 l 1470 891 l 1489 854 q 1544 316 1489 697 l 1525 316 l 1544 279 q 1451 112 1544 163 l 1377 112 q 1284 576 1317 112 l 1210 576 q 895 538 1144 576 q 802 669 802 564 l 802 705 q 1265 798 802 798 l 1265 817 l 1247 1040 q 1321 1133 1283 1124 m 486 1114 q 746 984 746 1114 q 783 576 783 984 l 783 334 q 653 260 753 260 q 560 446 560 302 l 560 743 l 542 873 l 505 873 q 115 836 347 873 q 41 1002 41 920 q 486 1114 41 1114 m 857 0 q 968 -315 968 -23 l 1061 -334 l 1136 -334 q 1340 -315 1213 -334 q 1432 -389 1426 -340 q 1247 -557 1432 -531 l 1043 -557 q 764 -371 764 -557 q 709 -92 751 -371 q 857 0 781 0 z "},"걷":{"ha":1561,"x_min":41,"x_max":1507,"o":"m 300 1170 l 300 1151 l 338 1170 l 524 1170 q 542 1151 542 1170 l 579 1170 q 746 501 729 1170 q 635 372 746 419 q 505 576 505 392 l 524 576 l 505 613 l 505 836 q 393 947 505 947 q 78 928 360 928 q 41 1077 41 996 q 300 1170 115 1170 m 1321 1170 q 1432 762 1432 1170 q 1507 372 1489 591 q 1432 279 1471 287 l 1340 279 q 1228 669 1311 279 q 857 631 1172 669 q 783 724 857 642 q 1043 891 783 891 l 1173 891 l 1210 909 l 1192 1040 q 1321 1170 1192 1170 m 839 112 q 857 93 857 112 l 1043 112 l 1340 112 q 1414 37 1369 112 l 1414 -18 q 1136 -111 1414 -111 l 1024 -111 q 987 -148 987 -117 l 987 -260 q 1154 -315 987 -304 l 1192 -296 l 1228 -315 q 1284 -296 1264 -296 q 1414 -427 1414 -296 l 1414 -464 q 1173 -538 1293 -538 q 802 -371 802 -538 q 783 -278 783 -340 l 783 -130 q 728 19 728 -51 q 839 112 739 75 z "},"걸":{"ha":1579,"x_min":41,"x_max":1525,"o":"m 524 1188 q 746 1077 694 1188 l 746 1021 q 783 520 746 810 q 690 409 764 439 l 616 409 q 524 909 524 511 q 505 966 524 966 q 96 928 176 928 l 41 1040 q 393 1188 41 1188 l 524 1188 m 1321 1188 q 1470 947 1470 1188 l 1451 947 l 1470 909 l 1470 854 q 1525 483 1470 752 q 1432 334 1525 386 l 1414 334 q 1284 594 1284 334 q 1265 669 1265 627 q 950 650 1048 650 l 876 650 l 839 780 q 1173 891 839 891 l 1210 891 q 1247 928 1247 891 l 1228 1058 q 1321 1188 1228 1158 m 1006 297 l 1284 297 q 1414 -37 1414 201 q 1228 -241 1414 -186 l 1099 -260 l 1099 -296 q 1210 -315 1196 -315 q 1358 -296 1226 -315 q 1507 -389 1507 -311 q 1265 -538 1445 -538 l 1117 -538 q 876 -296 876 -511 l 876 -204 q 1173 -18 977 -18 q 1192 0 1173 0 l 1154 93 q 802 37 866 37 l 764 37 q 709 93 738 37 l 709 205 q 1006 297 709 248 z "},"걺":{"ha":1543,"x_min":41,"x_max":1489,"o":"m 356 1151 q 671 966 671 1151 q 690 501 671 859 q 560 409 690 438 q 449 724 449 467 l 449 909 q 375 928 407 909 l 152 891 q 41 1002 96 891 q 356 1151 41 1151 m 1247 1151 l 1284 1151 q 1377 1040 1377 1098 q 1432 409 1377 920 q 1321 297 1418 297 q 1173 669 1212 297 l 1136 650 q 1117 669 1117 650 l 1080 650 l 876 650 q 802 724 847 650 l 802 743 q 932 873 802 873 l 1136 873 l 1173 891 l 1154 928 l 1154 1077 q 1247 1151 1156 1102 m 1303 241 q 1489 -334 1457 241 l 1489 -389 q 1396 -482 1489 -414 l 1265 -482 q 968 -278 968 -482 q 895 19 956 -278 q 1006 223 956 223 l 1024 223 q 1043 205 1043 223 q 1303 241 1143 241 m 579 223 l 579 205 q 635 223 615 223 q 839 -74 839 223 l 839 -222 q 579 -334 839 -321 l 579 -371 l 709 -352 l 876 -371 l 876 -445 q 560 -593 876 -549 q 356 -445 436 -593 l 356 -352 q 616 -130 409 -130 l 616 -18 l 597 19 q 412 -37 451 -37 l 356 -37 q 263 56 331 -37 q 542 205 263 205 q 579 223 542 223 m 1136 0 q 1173 -260 1173 -190 l 1265 -260 l 1247 -222 l 1247 -18 q 1192 19 1247 19 q 1136 0 1156 0 z "},"검":{"ha":1487,"x_min":41,"x_max":1432,"o":"m 524 1133 l 524 1114 l 560 1133 q 764 947 764 1077 l 764 650 q 783 446 764 573 q 690 316 745 330 q 542 483 542 316 q 560 501 542 501 l 542 538 l 542 854 l 560 891 q 486 909 519 891 l 134 873 q 41 1002 71 873 q 171 1114 70 1114 l 245 1114 q 524 1133 338 1114 m 1210 1095 l 1284 1095 q 1396 576 1369 1095 q 1432 334 1432 576 q 1321 241 1396 241 q 1192 501 1228 241 q 1154 650 1192 650 q 913 594 1075 650 q 783 762 783 627 q 1154 873 892 873 l 1154 891 q 1136 966 1136 924 q 1210 1095 1136 1065 m 728 130 q 783 93 783 112 l 820 112 q 839 93 839 112 q 1154 130 1078 130 q 1321 -241 1321 130 l 1321 -408 q 1154 -557 1295 -557 l 876 -557 q 560 -92 560 -557 q 728 130 560 99 m 783 -148 q 820 -334 802 -182 l 1099 -334 l 1099 -185 l 1080 -92 l 783 -148 z "},"겁":{"ha":1468,"x_min":41,"x_max":1414,"o":"m 1173 1206 l 1192 1206 q 1377 780 1354 1206 q 1414 520 1377 718 q 1284 372 1414 372 l 1265 372 q 1154 743 1195 372 l 1136 743 q 783 687 905 687 l 802 650 q 671 446 802 446 q 560 762 560 446 l 560 947 l 542 947 l 152 873 q 41 984 89 888 q 412 1151 41 1151 q 524 1170 439 1170 q 783 909 783 1170 q 1117 984 1117 960 l 1099 1151 l 1173 1206 m 1099 297 l 1154 297 q 1210 223 1182 297 q 1080 -408 1198 -408 q 950 -482 1080 -420 q 560 -167 560 -482 q 524 37 524 -94 l 524 149 l 542 186 q 524 205 524 186 q 616 260 555 205 q 746 112 728 260 l 746 56 l 987 56 q 1099 297 1023 297 m 857 -167 l 783 -167 l 783 -185 q 932 -241 795 -241 q 987 -222 968 -222 l 987 -148 l 857 -167 z "},"것":{"ha":1691,"x_min":41,"x_max":1637,"o":"m 1470 1170 q 1618 594 1618 1170 q 1637 446 1618 517 q 1563 316 1605 316 l 1489 316 q 1396 687 1407 316 q 987 631 1296 687 q 876 780 876 669 q 1377 909 876 874 l 1358 947 l 1358 984 q 1470 1170 1358 1151 m 616 1133 q 783 762 783 1133 q 802 465 783 570 q 653 353 764 353 q 560 743 560 396 l 560 817 q 579 836 560 836 q 560 909 560 868 q 134 854 382 909 q 41 966 41 884 q 300 1114 41 1114 q 616 1133 443 1133 m 1024 186 l 1136 186 q 1228 37 1171 186 q 1563 -296 1563 -175 l 1563 -352 q 1489 -389 1533 -352 l 1396 -389 q 1117 -185 1176 -185 l 1117 -204 q 1006 -427 1063 -427 l 932 -427 q 857 -315 895 -427 q 1024 186 857 -275 z "},"겄":{"ha":1747,"x_min":41,"x_max":1693,"o":"m 1303 1170 l 1377 1170 q 1507 427 1451 1170 l 1507 390 q 1432 316 1507 361 l 1396 316 l 1358 334 q 1340 316 1358 316 q 1265 724 1299 394 q 968 669 1068 669 l 895 669 q 820 798 820 699 l 820 817 q 1228 928 820 887 l 1228 1095 q 1303 1170 1228 1124 m 134 1114 l 579 1114 q 709 891 709 1114 l 746 483 q 616 390 720 390 q 486 909 486 390 q 431 891 450 891 q 412 909 412 891 q 96 873 263 873 q 41 928 70 873 l 41 1040 q 134 1114 42 1065 m 1284 149 l 1432 37 q 1693 -278 1693 -153 l 1693 -296 q 1637 -352 1693 -323 l 1544 -352 q 1358 -204 1377 -204 q 1192 -519 1318 -519 q 1099 -408 1099 -482 q 1265 149 1160 149 l 1284 149 m 653 112 q 950 -204 804 56 q 1024 -260 1024 -213 l 1024 -315 q 950 -389 1024 -344 l 857 -389 l 690 -222 l 671 -222 q 579 -408 671 -352 l 467 -408 l 449 -315 l 449 -278 q 653 112 523 112 z "},"겅":{"ha":1561,"x_min":41,"x_max":1507,"o":"m 1284 1095 l 1340 1095 q 1507 390 1435 1095 q 1396 279 1462 279 q 1247 631 1303 279 l 1228 631 q 895 594 904 594 q 802 669 810 630 l 802 743 q 1192 836 802 798 l 1228 836 l 1210 928 l 1210 1058 q 1284 1095 1239 1058 m 560 1058 q 728 687 728 1058 q 746 557 728 631 l 728 557 l 746 520 q 653 372 746 413 l 635 372 q 505 594 505 417 l 486 854 q 134 798 263 798 q 41 891 109 798 l 41 909 q 560 1058 41 1013 m 1173 186 q 1432 -56 1432 101 l 1432 -130 q 1061 -464 1432 -464 q 820 -130 895 -464 l 820 -74 q 1173 186 820 126 m 1099 0 q 1024 -92 1024 -56 q 1117 -222 1073 -212 l 1173 -222 q 1210 -185 1210 -222 l 1210 -56 q 1099 0 1192 0 z "},"겆":{"ha":1506,"x_min":41,"x_max":1451,"o":"m 524 1151 l 524 1133 l 560 1151 q 690 669 690 1151 l 690 650 q 709 576 690 608 q 579 427 709 427 l 560 427 q 467 576 467 479 q 486 631 467 595 l 449 928 l 375 928 q 96 891 106 891 q 41 966 68 966 q 319 1133 41 1133 q 524 1151 456 1133 m 1173 1151 l 1284 1151 q 1321 1095 1284 1121 q 1377 501 1321 951 l 1340 390 q 1358 372 1358 390 l 1265 353 l 1228 353 q 1154 465 1154 390 l 1173 465 q 1136 705 1154 492 q 839 669 1055 669 l 802 724 l 802 817 q 1117 909 802 873 l 1117 1095 q 1173 1151 1117 1122 m 968 168 l 1117 168 q 1247 93 1217 168 q 1210 -74 1247 47 q 1451 -278 1384 -185 l 1451 -315 q 1340 -427 1451 -427 l 1321 -427 l 1136 -296 l 1099 -296 q 987 -519 1045 -519 l 913 -519 q 857 -427 913 -488 l 857 -389 q 987 -37 857 -311 l 968 -37 q 690 -111 764 -111 l 653 -111 q 579 0 579 -74 q 968 168 579 106 z "},"겉":{"ha":1450,"x_min":41,"x_max":1396,"o":"m 1192 1151 l 1265 1151 q 1340 1058 1340 1113 q 1396 538 1340 673 q 1321 372 1369 372 l 1265 372 q 1154 743 1179 372 l 1080 743 q 802 687 871 687 q 709 817 709 713 l 709 836 q 1136 966 709 914 l 1136 1095 q 1192 1151 1136 1122 m 467 1133 l 505 1133 q 653 520 653 1133 q 524 465 585 465 q 412 836 412 465 l 412 909 q 152 854 355 909 q 41 1021 41 854 l 41 1040 q 467 1133 172 1133 m 1173 316 q 1284 241 1284 278 l 1284 168 q 895 56 1284 93 l 895 37 q 1265 -56 1265 37 l 1265 -74 q 913 -185 1184 -185 l 932 -278 l 987 -278 q 1192 -241 1008 -278 l 1247 -241 q 1303 -296 1274 -241 l 1303 -334 q 1061 -500 1303 -465 q 913 -519 929 -519 q 690 56 690 -519 q 653 168 690 68 q 1173 316 653 271 z "},"겊":{"ha":1524,"x_min":41,"x_max":1470,"o":"m 616 1206 q 728 798 728 1127 l 746 798 q 1136 928 746 908 l 1136 1095 q 1192 1151 1136 1122 l 1228 1151 q 1377 836 1377 1151 q 1451 446 1377 784 l 1432 446 l 1451 409 q 1377 279 1407 279 l 1303 279 q 1192 669 1224 279 q 1173 724 1173 669 q 876 669 976 669 q 764 743 764 669 l 746 743 l 746 687 l 764 501 q 653 372 764 372 l 616 372 q 524 520 524 423 l 542 520 l 524 557 q 505 966 505 882 q 486 984 486 966 q 115 928 351 928 q 41 1002 86 928 l 41 1021 q 263 1170 41 1170 l 263 1151 q 616 1206 330 1188 m 1284 205 l 1340 205 q 1414 130 1369 205 l 1414 112 q 1265 -18 1414 -18 l 1265 -130 q 1340 -278 1265 -248 l 1377 -260 q 1470 -334 1461 -296 q 1024 -500 1470 -500 q 857 -538 1024 -519 l 857 -519 l 820 -538 q 690 -389 709 -538 q 857 -315 756 -315 l 839 -222 l 839 -56 l 728 -56 q 653 37 702 -54 l 653 93 q 1284 205 653 179 m 1043 -37 l 1043 -185 l 1061 -185 l 1061 -37 l 1043 -37 z "},"겋":{"ha":1506,"x_min":41,"x_max":1451,"o":"m 597 1170 q 746 836 746 1114 q 1136 909 962 888 q 1099 1040 1136 945 q 1192 1151 1124 1116 q 1377 891 1343 1151 q 1451 483 1414 818 q 1321 390 1421 390 q 1210 705 1219 543 l 895 650 l 895 669 l 857 650 q 783 705 783 659 l 746 705 l 746 557 q 616 409 732 409 q 524 501 567 421 l 524 557 q 542 576 524 576 l 524 613 l 524 724 q 542 743 524 743 l 524 780 q 542 836 542 816 q 524 891 524 871 l 542 891 q 524 947 524 927 q 96 909 387 947 q 41 1040 41 978 q 115 1151 41 1114 l 245 1151 q 263 1133 263 1151 q 597 1170 276 1151 m 932 483 l 1024 483 q 1061 409 1024 454 l 1061 223 l 1247 223 q 1321 130 1272 222 q 1136 19 1321 19 q 1284 -204 1284 -142 l 1284 -222 l 1228 -408 l 1192 -389 q 1024 -482 1192 -445 q 728 -260 819 -482 q 764 -37 728 -212 q 616 112 616 -37 q 690 186 616 140 l 857 186 l 857 409 q 932 483 857 437 m 987 -56 l 932 -204 l 1006 -260 l 1043 -260 q 1099 -148 1080 -260 l 987 -56 z "},"게":{"ha":1728,"x_min":41,"x_max":1674,"o":"m 1432 928 q 1618 353 1532 928 q 1674 168 1674 286 q 1563 37 1674 66 q 1340 705 1440 37 q 1303 836 1340 741 q 1432 928 1329 928 m 579 909 q 709 669 709 842 l 709 501 q 1061 557 977 557 l 1061 576 q 1043 780 1043 703 l 1043 854 q 1117 891 1072 854 q 1265 705 1265 891 l 1358 149 l 1358 93 q 1284 19 1358 64 l 1228 19 q 1117 353 1154 19 q 709 241 709 314 q 616 37 709 73 l 560 37 q 486 168 486 68 l 486 297 q 505 316 486 316 l 486 353 l 486 372 q 505 390 486 390 q 486 409 505 409 l 505 538 l 505 650 q 467 687 505 687 l 152 613 q 41 687 41 650 l 41 780 q 579 909 41 848 z "},"겐":{"ha":1784,"x_min":41,"x_max":1729,"o":"m 1544 1133 l 1563 1133 q 1693 1002 1693 1133 l 1693 817 q 1729 353 1693 745 q 1637 241 1704 277 l 1600 241 q 1507 353 1507 295 q 1470 984 1470 802 l 1470 1040 q 1544 1133 1518 1131 m 505 1114 l 616 1114 q 764 947 764 1114 l 764 798 q 913 836 832 836 l 1061 836 q 1136 1095 1088 836 l 1173 1114 l 1192 1114 q 1321 891 1321 1114 q 1358 390 1358 561 q 1284 297 1322 305 l 1210 297 q 1136 465 1136 322 l 1136 650 l 857 594 q 764 631 797 631 l 764 409 q 690 334 764 380 l 635 334 q 542 483 542 382 l 542 762 l 560 891 l 524 909 q 300 873 429 909 l 300 891 q 152 854 233 854 q 41 984 41 887 q 505 1114 41 1091 m 913 130 l 932 130 q 1080 -222 1080 130 l 1080 -260 l 1099 -260 q 1377 -204 1299 -204 q 1507 -296 1507 -218 q 1080 -482 1507 -422 l 1006 -482 q 857 -148 857 -427 l 839 75 l 913 130 z "},"겔":{"ha":1803,"x_min":41,"x_max":1748,"o":"m 616 1188 q 690 984 690 1109 q 671 966 690 966 l 690 873 l 690 427 q 616 353 690 398 l 560 353 q 467 538 509 353 q 486 613 486 571 q 467 669 486 633 l 486 705 q 467 762 467 741 l 486 762 l 467 798 l 467 966 q 152 909 361 966 l 134 909 q 41 1040 89 920 q 96 1151 96 1126 q 616 1188 511 1188 m 1192 1133 l 1265 1133 q 1358 817 1340 1133 q 1377 798 1377 817 l 1358 705 l 1377 483 q 1303 390 1341 398 l 1247 390 q 1154 576 1154 432 l 1154 650 q 1117 669 1117 650 q 783 631 1023 631 q 709 705 754 631 l 709 798 q 783 854 709 845 q 1117 873 859 854 l 1117 1040 q 1192 1133 1166 1131 m 1581 1114 l 1637 1114 q 1729 928 1729 1054 q 1711 817 1711 831 q 1748 409 1711 747 q 1618 297 1719 297 q 1507 743 1507 297 l 1507 928 q 1489 1002 1507 970 q 1581 1114 1514 1079 m 1377 334 q 1525 19 1481 334 q 1265 -204 1525 -204 l 1173 -222 q 1192 -278 1192 -258 l 1451 -260 q 1581 -315 1581 -272 q 1358 -500 1581 -465 q 1192 -519 1258 -519 l 1136 -519 q 968 -241 968 -441 q 1303 19 1015 19 l 1303 37 l 1284 130 l 950 56 q 857 130 865 92 l 857 205 q 1377 334 857 294 z "},"겜":{"ha":1691,"x_min":41,"x_max":1637,"o":"m 542 1114 q 671 743 671 1114 l 690 743 q 746 836 690 774 q 857 817 844 817 q 1061 854 903 817 l 1043 891 q 1061 909 1043 909 l 1043 947 l 1043 966 q 1136 1095 1043 1058 l 1192 1095 q 1303 576 1303 1065 q 1321 446 1321 576 q 1192 297 1321 297 l 1154 297 q 1080 631 1099 297 l 857 594 q 690 724 690 594 l 671 724 l 671 669 q 690 427 690 511 l 597 353 l 542 353 q 449 743 449 353 l 449 909 q 134 873 300 873 l 115 873 q 41 947 86 873 l 41 1021 q 542 1114 41 1114 m 1489 1040 l 1525 1040 q 1637 576 1613 1040 l 1618 576 l 1637 538 l 1637 465 q 1563 297 1637 322 l 1489 297 q 1377 947 1414 297 q 1489 1040 1388 1040 m 1265 223 q 1432 19 1432 223 l 1432 0 q 1414 -260 1432 -102 l 1432 -296 q 1154 -575 1432 -575 q 1080 -593 1122 -593 l 1080 -575 l 1043 -593 l 968 -593 q 709 -371 788 -593 q 653 130 653 -82 q 728 186 728 158 l 857 168 q 1265 223 1188 223 m 876 -56 q 913 -352 913 -267 l 1210 -352 l 1210 -167 q 1228 -92 1210 -125 l 1210 -56 l 1210 0 q 876 -56 1064 0 z "},"겝":{"ha":1598,"x_min":41,"x_max":1544,"o":"m 505 1095 q 616 798 604 1095 q 895 854 766 854 l 913 854 l 913 1040 q 968 1095 913 1066 l 987 1095 q 1136 780 1136 1095 l 1192 390 q 1154 297 1154 330 l 1099 297 q 950 650 950 297 l 857 631 l 857 650 l 820 631 l 671 631 l 635 650 l 635 465 q 579 409 635 437 l 505 409 q 412 873 412 409 q 171 854 293 873 q 41 966 41 854 l 41 984 q 505 1095 78 1095 m 1377 1040 q 1489 928 1489 1040 l 1489 743 q 1544 427 1489 668 l 1544 316 q 1489 260 1544 289 l 1432 260 q 1303 650 1352 260 l 1303 780 l 1284 873 l 1303 873 l 1284 909 q 1377 1040 1284 1010 m 1173 205 q 1247 75 1247 174 l 1247 -111 q 1099 -538 1247 -436 l 987 -538 q 616 -352 670 -538 q 560 0 597 -91 q 690 149 560 149 q 764 -18 764 124 l 764 -74 q 1043 -37 942 -37 l 1043 37 q 1173 205 1043 205 m 876 -278 l 876 -296 l 1006 -315 l 1024 -315 l 1024 -260 q 876 -278 922 -278 z "},"겟":{"ha":1672,"x_min":41,"x_max":1618,"o":"m 1043 1114 l 1117 1114 q 1192 1021 1143 1113 l 1192 817 l 1247 353 q 1173 241 1204 241 q 1024 557 1024 241 q 987 631 1010 557 q 746 594 764 594 l 671 631 l 671 427 q 597 353 671 398 q 467 576 467 353 q 449 854 449 761 l 338 854 q 152 817 301 854 q 41 891 41 854 l 41 984 q 542 1077 41 1077 l 579 1077 q 671 966 612 1077 l 653 873 l 653 762 q 709 836 709 762 q 728 817 728 836 q 987 854 918 854 l 987 891 l 968 1002 q 1043 1114 1006 1114 m 1414 1058 l 1432 1058 q 1544 891 1544 1058 q 1618 409 1544 670 q 1544 260 1588 260 q 1340 984 1340 260 q 1414 1058 1340 1013 m 820 93 l 913 93 q 1358 -278 1179 -205 l 1358 -352 l 1340 -445 l 1265 -445 q 932 -260 1143 -445 q 802 -500 882 -500 q 709 -371 709 -475 l 709 -315 q 820 93 709 -240 z "},"겠":{"ha":1561,"x_min":41,"x_max":1507,"o":"m 524 1206 q 635 909 635 1183 q 616 854 616 873 l 987 928 l 987 1058 q 1099 1188 987 1188 q 1192 1095 1148 1176 l 1192 909 l 1210 798 l 1192 762 q 1210 557 1210 634 l 1210 465 l 1173 334 l 1080 334 q 1006 501 1006 359 l 1006 705 l 987 705 q 728 669 789 669 l 690 669 l 616 724 l 635 687 l 635 538 q 560 427 635 446 q 412 836 412 427 l 431 836 q 412 854 431 854 l 431 947 l 431 984 q 189 909 295 960 q 41 984 41 932 l 41 1021 q 338 1188 41 1159 q 524 1206 458 1188 m 1358 1114 q 1470 947 1470 1114 q 1507 465 1470 893 q 1451 390 1479 390 l 1432 390 q 1303 501 1303 405 q 1265 1002 1265 979 q 1358 1114 1284 1114 m 1247 241 q 1303 186 1274 241 l 1303 19 q 1489 -222 1489 -130 q 1432 -315 1475 -315 l 1414 -315 q 1247 -241 1358 -315 q 1154 -500 1211 -500 q 1024 -352 1024 -500 q 1173 241 1067 233 l 1247 241 m 635 223 l 690 223 q 783 0 760 223 q 968 -260 968 -177 q 913 -334 941 -334 l 839 -334 l 671 -204 q 597 -352 638 -352 l 524 -352 q 467 -241 467 -334 q 635 223 564 223 z "},"겡":{"ha":1747,"x_min":41,"x_max":1693,"o":"m 1154 1151 l 1210 1151 q 1303 891 1284 1151 l 1284 891 q 1321 465 1321 796 l 1321 390 q 1265 334 1321 363 l 1247 334 q 1117 520 1117 334 l 1117 669 l 1099 705 q 876 650 964 682 q 746 743 760 687 l 746 762 q 1080 909 746 909 l 1080 984 q 1154 1151 1080 1036 m 524 1114 q 671 1040 671 1080 l 671 928 q 728 446 671 809 l 635 390 q 486 743 486 390 l 486 909 q 134 873 357 909 q 41 947 49 909 l 41 1058 q 115 1095 70 1058 q 524 1114 152 1095 m 1544 1114 q 1655 557 1655 1114 q 1693 353 1693 557 q 1637 279 1665 279 l 1544 279 q 1414 1040 1414 541 q 1544 1114 1479 1114 m 1136 186 l 1173 186 q 1451 -92 1451 107 q 1154 -464 1451 -464 q 857 -167 857 -427 l 857 -130 q 1136 186 895 186 m 1117 -18 q 1061 -148 1061 -86 q 1192 -222 1092 -222 q 1228 -185 1228 -222 l 1228 -92 q 1117 -18 1192 -18 z "},"겨":{"ha":1617,"x_min":41,"x_max":1563,"o":"m 1303 1002 q 1451 873 1404 1002 q 1432 854 1451 854 q 1563 112 1432 808 l 1563 75 q 1507 0 1535 0 l 1432 0 q 1303 279 1367 6 l 1284 279 q 913 223 950 223 q 802 334 850 238 q 1154 483 802 483 q 1210 501 1174 483 q 1265 483 1246 483 l 1265 501 q 1247 576 1247 534 q 876 520 1020 557 q 746 669 764 520 q 1136 762 746 762 l 1228 762 l 1228 817 q 1210 891 1228 859 q 1303 1002 1236 968 m 449 928 q 635 557 635 928 q 690 130 635 502 l 616 75 l 542 75 q 412 631 444 75 l 412 743 l 393 743 q 134 705 172 705 q 41 836 81 705 q 449 928 177 928 z "},"격":{"ha":1598,"x_min":41,"x_max":1544,"o":"m 412 1077 l 412 1058 l 449 1077 l 579 1077 q 709 817 709 1034 q 746 353 709 649 l 746 297 q 671 260 717 297 l 653 260 q 505 576 505 260 q 486 762 486 576 l 486 836 q 431 873 486 873 l 115 817 q 41 947 41 882 q 78 1040 78 1007 q 96 1021 96 1040 l 412 1077 m 1340 1077 l 1396 1077 q 1489 947 1489 1021 q 1470 928 1489 928 l 1489 836 l 1489 724 q 1544 260 1544 316 q 1432 186 1525 186 q 1303 427 1364 186 l 1284 427 q 1024 390 1226 427 q 895 538 913 390 l 895 557 q 1265 650 932 650 l 1265 743 q 950 687 1191 743 l 932 687 q 802 780 839 687 l 802 836 q 1210 947 802 918 l 1265 947 q 1340 1077 1280 1077 m 1284 149 l 1303 149 q 1489 -260 1489 149 l 1489 -334 q 1358 -464 1489 -464 q 1265 -185 1265 -420 l 1265 -74 q 987 -111 1091 -111 l 968 -111 q 895 -74 924 -74 l 895 -18 q 1154 112 895 112 l 1284 149 z "},"겪":{"ha":1635,"x_min":41,"x_max":1581,"o":"m 542 1133 l 560 1133 q 690 520 665 1133 q 709 390 709 496 q 597 297 679 297 q 449 854 449 297 l 449 928 l 393 928 q 189 891 372 928 l 115 891 q 41 966 86 891 l 41 984 q 300 1114 41 1114 q 542 1133 391 1133 m 1358 1114 l 1377 1114 q 1507 1002 1507 1114 l 1489 817 q 1581 316 1525 562 q 1507 186 1549 186 l 1432 186 q 1340 427 1340 262 l 1303 427 q 1024 390 1035 390 q 913 538 913 429 l 913 557 q 1284 650 946 650 l 1284 762 l 1265 762 q 968 724 1180 762 q 857 873 857 751 l 857 891 q 1284 984 993 984 q 1358 1114 1284 1084 m 932 112 l 968 112 q 1061 -37 1061 64 l 1061 -352 q 987 -482 1061 -452 l 968 -482 q 839 -334 839 -482 l 839 -130 q 635 -167 668 -167 q 542 -37 542 -141 q 932 112 542 37 m 1377 75 l 1414 75 q 1544 -148 1544 75 q 1563 -427 1563 -200 q 1489 -519 1527 -511 l 1432 -519 q 1340 -315 1369 -519 l 1340 -167 l 1210 -185 l 1192 -185 q 1080 -74 1080 -185 q 1377 75 1192 75 z "},"견":{"ha":1561,"x_min":41,"x_max":1507,"o":"m 1265 1133 l 1340 1133 q 1432 1021 1407 1098 q 1414 966 1432 1002 l 1507 483 l 1507 334 q 1396 241 1463 241 q 1265 501 1315 241 l 950 446 q 876 594 876 524 q 1228 724 876 695 l 1228 780 l 1210 817 l 895 743 q 802 873 831 743 q 1210 1040 802 970 q 1265 1133 1215 1133 m 616 1095 q 728 798 703 983 l 709 798 q 728 743 728 762 q 746 409 746 442 q 635 334 728 334 q 505 762 505 334 l 505 836 l 486 873 q 115 817 291 817 l 41 947 q 78 1040 78 1007 l 134 1040 q 616 1095 550 1095 m 950 168 l 1006 168 q 1117 -130 1067 168 l 1136 -130 l 1228 -111 l 1228 -130 q 1470 -92 1335 -92 l 1507 -148 q 1284 -334 1507 -334 l 1154 -352 l 1154 -334 l 1117 -352 l 1080 -352 q 876 56 907 -352 q 950 168 913 168 z "},"겯":{"ha":1543,"x_min":41,"x_max":1489,"o":"m 1321 1151 q 1432 1040 1377 1151 q 1414 817 1414 909 l 1489 316 q 1358 205 1459 205 q 1247 465 1284 205 q 987 390 1186 422 q 857 557 857 445 l 857 576 q 1210 669 857 639 l 1210 780 l 1192 780 q 913 724 1134 780 q 802 873 802 762 l 802 891 q 1136 1002 802 958 q 1210 984 1168 984 q 1321 1151 1210 1151 m 560 1133 q 653 798 653 1019 q 671 409 671 589 l 616 372 l 597 372 q 449 705 449 372 q 431 909 431 806 q 134 873 376 909 q 41 1002 41 899 q 171 1114 41 1114 l 171 1095 q 560 1133 268 1133 m 1358 130 q 1414 0 1414 62 l 1414 -18 q 1210 -111 1414 -78 l 1210 -92 q 1061 -148 1061 -111 l 1061 -241 l 1080 -371 q 1284 -334 1152 -334 l 1377 -334 q 1432 -389 1404 -334 q 1117 -593 1432 -593 q 1099 -612 1117 -612 q 839 -130 839 -612 q 783 -56 820 -130 l 783 19 q 857 112 857 86 l 950 93 q 1358 130 1257 130 z "},"결":{"ha":1543,"x_min":41,"x_max":1489,"o":"m 635 1170 q 746 594 746 1170 q 764 538 764 594 q 728 446 728 478 l 671 446 q 524 780 524 446 q 505 966 524 803 q 134 891 231 891 l 115 891 l 41 947 q 449 1151 41 1151 q 635 1170 449 1170 m 1284 1151 l 1303 1151 l 1432 1114 q 1489 372 1432 1024 q 1432 260 1489 275 l 1358 260 q 1265 483 1303 260 l 1228 483 q 913 465 1131 483 q 839 594 839 529 q 1006 705 839 682 l 1006 687 l 1043 705 q 1061 687 1061 705 l 1099 705 l 1247 705 l 1228 836 l 1192 817 l 913 817 q 857 873 886 817 l 857 947 q 1228 1040 857 1002 q 1284 1151 1228 1056 m 1117 279 q 1340 37 1340 279 q 1358 -56 1340 -24 q 1080 -222 1358 -181 l 1061 -260 l 1061 -278 q 1099 -315 1067 -315 l 1284 -315 q 1451 -389 1426 -315 l 1451 -427 q 1247 -538 1421 -538 q 1080 -557 1147 -557 q 857 -334 857 -486 l 857 -241 q 1099 0 908 0 l 1136 0 l 1136 37 q 1080 75 1136 75 q 857 19 913 19 l 764 37 l 764 112 q 1117 279 764 279 z "},"겸":{"ha":1524,"x_min":41,"x_max":1470,"o":"m 338 1151 q 412 1133 370 1133 q 467 1151 431 1133 q 728 984 728 1151 l 764 372 l 690 316 l 616 316 q 542 446 542 346 l 542 780 q 431 928 542 928 l 356 928 l 263 909 l 263 928 l 227 909 l 96 909 q 41 1021 41 928 q 208 1133 41 1133 q 338 1151 314 1133 m 1265 1077 l 1284 1077 q 1432 891 1412 1077 l 1414 891 l 1432 854 l 1432 687 q 1470 334 1432 649 l 1470 241 q 1377 168 1432 168 q 1284 205 1316 205 q 1210 409 1284 409 q 950 390 1182 409 q 839 465 839 428 l 839 557 q 913 631 839 586 l 1210 631 l 1228 724 l 1173 724 q 913 669 1154 724 q 820 798 820 694 q 1136 947 820 895 l 1192 947 q 1265 1077 1192 1046 m 932 130 l 932 112 l 968 130 l 1099 130 q 1284 -18 1192 130 q 1192 -519 1284 -519 q 857 -575 1130 -557 q 671 -371 783 -575 q 616 -18 616 -76 q 690 112 642 112 l 839 112 l 932 130 m 839 -92 q 895 -352 839 -126 q 1061 -315 934 -334 l 1061 -74 l 839 -92 z "},"겹":{"ha":1654,"x_min":41,"x_max":1600,"o":"m 1451 1262 l 1507 1262 q 1563 1151 1563 1244 l 1563 1002 q 1544 984 1563 984 l 1563 947 q 1544 928 1563 928 q 1600 390 1600 665 q 1489 279 1600 279 q 1396 501 1396 279 l 1396 520 q 987 483 1122 483 l 950 483 q 876 613 876 513 l 876 650 q 950 724 876 679 l 1024 724 q 1358 762 1173 724 l 1358 836 q 932 780 1191 836 q 820 854 820 817 l 820 909 q 1024 1040 820 1040 l 1024 1021 q 1321 1058 1105 1058 l 1358 1058 l 1340 1095 l 1340 1114 q 1451 1262 1340 1262 m 671 1206 q 746 1114 692 1206 l 728 984 l 728 446 q 671 372 690 372 q 524 538 524 372 l 524 966 l 505 1002 q 134 947 303 947 q 41 1077 71 947 q 616 1206 41 1206 l 671 1206 m 1321 279 q 1396 -18 1396 211 q 1358 -296 1388 -296 q 1377 -315 1358 -315 q 1043 -519 1377 -519 q 1024 -500 1024 -519 l 987 -519 q 709 -111 709 -465 l 709 75 q 802 186 774 186 l 839 186 q 913 0 913 150 l 1043 0 l 1173 19 q 1192 0 1173 0 q 1303 279 1192 279 l 1321 279 m 950 -222 l 950 -241 q 1061 -296 968 -296 l 1080 -296 q 1192 -241 1176 -296 l 1192 -222 l 1173 -185 q 950 -222 1083 -222 z "},"겻":{"ha":1561,"x_min":41,"x_max":1507,"o":"m 208 1188 l 616 1188 q 709 947 671 1188 q 671 705 690 905 q 690 501 690 605 q 560 409 690 409 q 467 724 467 495 q 486 984 486 882 l 356 984 q 134 947 262 984 q 41 1021 49 983 l 41 1114 q 208 1188 66 1188 m 1247 1188 l 1321 1188 q 1451 594 1390 1188 q 1507 316 1507 460 l 1507 279 q 1414 205 1499 241 q 1247 520 1321 205 l 913 446 q 802 576 802 493 l 857 687 q 1210 724 1173 724 l 1210 798 q 932 780 1025 780 l 895 780 q 783 836 798 780 l 783 928 q 1173 1002 783 1002 l 1173 1077 l 1154 1114 q 1247 1188 1180 1114 m 857 168 l 932 168 q 1061 37 1009 37 q 1358 -222 1321 -222 l 1358 -260 q 1303 -371 1358 -356 l 1247 -371 q 913 -148 1177 -371 q 746 -408 878 -408 q 671 -352 671 -380 l 671 -260 q 857 168 773 168 z "},"겼":{"ha":1710,"x_min":41,"x_max":1655,"o":"m 486 1188 l 579 1188 q 728 984 728 1188 l 728 743 q 746 576 728 676 q 635 465 746 465 l 597 465 q 524 687 524 465 l 524 947 q 486 984 524 984 q 115 928 173 928 q 41 1040 41 1022 q 245 1170 41 1140 l 245 1151 q 486 1188 328 1188 m 1321 1170 q 1489 928 1489 1170 l 1563 316 q 1451 241 1544 241 q 1321 520 1377 241 q 1024 483 1110 483 q 895 631 895 483 q 1024 724 895 694 l 1024 705 l 1061 724 l 1247 724 q 1284 762 1284 724 l 1284 836 l 1265 836 q 895 817 1145 836 l 876 854 l 876 1002 q 1265 1058 994 1040 q 1321 1170 1265 1101 m 671 186 q 1061 -204 821 186 l 1061 -241 l 1080 -241 q 1210 168 1140 168 l 1228 168 q 1377 19 1326 168 q 1655 -315 1655 -250 q 1618 -408 1618 -376 l 1563 -408 q 1284 -222 1470 -408 q 1265 -296 1284 -296 l 1284 -334 l 1284 -371 q 1210 -538 1284 -513 q 1061 -334 1061 -538 l 1043 -334 l 1024 -371 q 746 -130 892 -371 l 728 -130 q 597 -371 684 -371 l 579 -371 q 486 -222 486 -350 q 671 186 584 186 z "},"경":{"ha":1561,"x_min":41,"x_max":1507,"o":"m 1340 1318 q 1470 1151 1432 1318 q 1451 1133 1470 1133 q 1507 465 1507 705 l 1507 446 q 1451 390 1507 419 l 1358 390 q 1303 557 1303 536 q 987 501 1062 501 l 968 501 q 895 631 895 532 l 895 669 q 1210 780 895 743 l 1284 780 l 1284 891 q 913 854 1099 854 l 857 928 l 857 947 q 932 1077 857 1046 l 968 1077 q 1247 1095 1062 1077 l 1247 1188 q 1340 1318 1247 1292 m 579 1206 l 616 1188 l 653 1206 q 764 891 764 1206 l 746 724 l 764 631 q 709 520 740 520 l 616 520 q 542 705 565 520 l 542 762 l 560 984 l 115 909 q 41 1040 41 996 q 393 1170 41 1148 q 579 1206 393 1188 m 987 297 l 987 279 l 1024 297 l 1080 297 q 1321 0 1258 297 q 1080 -260 1232 -260 l 1043 -260 q 728 37 728 -224 l 728 112 q 987 297 831 297 m 1006 130 q 932 75 1006 75 l 932 37 q 1061 -37 962 -37 l 1117 19 q 1006 130 1117 90 z "},"곁":{"ha":1617,"x_min":41,"x_max":1563,"o":"m 1396 1206 l 1451 1206 q 1525 1077 1525 1177 q 1507 817 1525 975 q 1563 409 1525 617 l 1544 409 l 1563 372 l 1563 334 q 1525 260 1525 289 l 1432 260 q 1321 557 1377 260 q 987 501 1180 501 q 895 631 924 501 q 1284 762 895 741 q 1321 798 1321 762 l 1321 854 l 1284 854 q 950 798 1192 854 q 802 891 857 798 l 802 909 q 1024 1040 802 1040 q 1284 1077 1226 1077 q 1303 1058 1284 1058 q 1396 1206 1303 1151 m 579 1170 q 709 891 709 1170 q 690 576 690 697 q 709 520 690 556 q 635 409 671 409 l 560 409 q 486 631 486 409 l 486 724 l 505 947 q 115 891 237 891 q 41 1002 41 909 l 41 1040 q 263 1133 41 1095 l 263 1114 q 579 1170 300 1133 m 1192 241 l 1247 241 q 1358 130 1358 241 l 1358 93 q 1080 19 1358 32 q 968 -37 968 -12 l 968 -92 q 1210 -56 1052 -56 l 1414 -56 q 1451 -92 1451 -61 l 1451 -167 q 1006 -296 1451 -273 l 1006 -315 l 1024 -352 l 1061 -334 l 1265 -334 q 1377 -408 1358 -334 q 1228 -557 1363 -557 l 913 -557 q 746 56 783 -552 q 728 130 728 56 q 1192 241 728 214 z "},"계":{"ha":1932,"x_min":41,"x_max":1878,"o":"m 1210 1040 l 1228 1040 q 1396 669 1396 1040 q 1507 149 1507 296 q 1377 37 1507 37 q 1284 168 1325 37 l 1303 205 q 1284 279 1284 237 q 987 223 1221 241 l 913 297 l 913 353 q 987 483 913 453 l 1080 465 q 1210 520 1210 483 l 1210 613 l 913 557 q 820 705 820 594 q 1154 836 820 791 l 1136 873 l 1136 966 q 1210 1040 1136 994 m 1618 1002 q 1841 427 1710 1002 q 1878 297 1878 427 l 1878 279 l 1860 186 l 1748 186 q 1507 873 1648 220 l 1507 909 q 1618 1002 1537 984 m 412 966 l 635 966 q 802 241 746 966 q 728 130 758 130 l 653 130 q 579 205 624 130 l 579 241 q 542 762 579 442 l 524 762 q 171 687 410 762 l 96 687 q 41 798 41 705 l 41 836 q 412 966 41 926 z "},"곈":{"ha":1969,"x_min":41,"x_max":1915,"o":"m 1693 1188 q 1841 687 1841 1188 q 1915 409 1860 687 q 1841 241 1889 241 l 1767 241 q 1563 1077 1682 241 q 1693 1188 1616 1188 m 1377 1170 q 1470 1058 1470 1139 l 1451 947 l 1544 390 q 1470 279 1506 279 l 1451 279 q 1321 353 1352 279 l 1321 465 q 950 427 1104 427 q 895 557 895 495 q 968 669 895 631 l 1043 669 l 1265 687 l 1265 705 l 1247 798 q 950 762 976 762 l 913 762 q 857 836 913 789 l 857 873 q 1210 1021 857 1021 l 1247 1021 l 1247 1133 l 1377 1170 m 524 1151 q 764 873 764 1151 q 783 576 764 657 q 709 372 760 372 l 616 372 q 560 427 589 372 l 560 909 q 449 928 547 909 q 96 891 225 891 q 41 1021 41 959 l 41 1058 q 524 1151 41 1151 m 1117 130 q 1192 75 1192 102 l 1192 -74 q 1247 -222 1192 -211 l 1544 -222 q 1600 -278 1571 -222 l 1600 -334 q 1358 -464 1600 -464 l 1210 -464 q 987 -167 987 -416 l 987 0 q 1117 130 987 130 z "},"곌":{"ha":1821,"x_min":41,"x_max":1767,"o":"m 1173 1133 l 1210 1133 q 1284 1058 1239 1133 q 1265 873 1284 970 q 1358 316 1358 532 q 1321 223 1358 283 q 1600 -130 1600 223 q 1303 -334 1600 -252 l 1303 -352 l 1340 -371 q 1544 -352 1467 -352 q 1600 -371 1580 -371 l 1600 -500 q 1396 -612 1600 -559 q 1099 -371 1099 -612 l 1099 -315 q 1377 -74 1099 -140 l 1377 -37 l 1358 0 q 1043 -92 1153 -18 q 913 37 913 -78 l 913 56 q 1303 205 1021 205 l 1303 223 q 1154 353 1154 223 l 1154 427 q 913 372 958 372 q 802 501 802 401 q 1024 631 802 631 q 1099 650 1057 650 q 1080 743 1080 681 q 876 724 916 724 q 746 798 746 749 l 746 836 q 1006 966 746 966 l 1061 966 l 1061 1021 q 1173 1133 1061 1133 m 431 1114 l 542 1114 q 728 613 728 1114 q 764 390 764 613 q 671 316 746 316 q 505 873 505 316 l 467 891 l 393 891 q 152 836 220 836 q 41 947 96 836 q 431 1114 41 1114 m 1581 1114 q 1711 613 1694 1114 q 1767 334 1743 613 q 1711 260 1739 260 l 1618 260 q 1451 1021 1514 302 q 1581 1114 1477 1114 z "},"곕":{"ha":1784,"x_min":41,"x_max":1729,"o":"m 1228 1188 q 1340 1058 1340 1141 l 1321 966 q 1377 372 1377 469 q 1303 297 1377 342 q 1154 501 1154 297 q 1006 465 1137 501 l 932 465 q 783 594 783 483 q 857 705 821 705 l 932 705 l 1117 724 l 1117 780 l 1099 780 q 802 743 888 743 q 728 817 772 743 l 728 909 q 1117 1002 728 1002 l 1117 1114 q 1228 1188 1117 1145 m 300 1133 l 393 1133 q 412 1114 412 1133 q 431 1133 431 1114 q 671 947 671 1133 q 690 427 671 802 q 616 334 654 342 q 467 594 467 334 l 486 594 l 467 631 l 467 909 q 449 891 449 909 l 356 909 q 152 873 174 873 l 115 873 q 41 1002 41 903 q 300 1133 41 1102 m 1563 1114 q 1729 427 1687 1114 q 1711 409 1711 427 q 1729 390 1729 409 q 1637 353 1697 390 q 1470 854 1470 395 q 1432 984 1432 948 q 1563 1114 1461 1081 m 1265 205 l 1321 205 q 1396 75 1396 174 l 1396 -18 q 1414 -278 1396 -120 q 1173 -575 1362 -575 l 1006 -575 q 728 37 728 -575 q 857 130 753 130 q 950 -56 922 130 l 1192 -56 l 1192 75 q 1265 205 1192 174 m 987 -315 q 1136 -352 1055 -352 q 1192 -278 1164 -352 l 1024 -278 q 987 -315 987 -284 z "},"곗":{"ha":1728,"x_min":41,"x_max":1674,"o":"m 1173 1170 l 1228 1170 q 1303 1095 1257 1170 l 1303 984 q 1340 483 1340 533 l 1340 390 q 1247 279 1340 279 q 1136 501 1136 279 l 857 446 l 820 446 q 728 576 728 501 q 895 705 764 705 l 895 687 q 1117 743 1117 710 q 1099 798 1099 779 q 932 762 978 762 l 857 762 q 728 854 764 762 q 987 1002 728 1002 q 1117 1133 1117 1021 l 1173 1170 m 1489 1133 q 1637 873 1637 1133 q 1674 465 1637 745 q 1563 353 1674 353 q 1414 1040 1414 387 q 1489 1133 1450 1124 m 524 1114 q 690 836 656 1114 q 579 334 690 334 l 542 334 q 449 520 449 376 q 467 891 449 572 q 431 909 431 891 q 134 854 232 854 q 41 966 41 884 q 393 1114 41 1114 l 524 1114 m 968 241 q 1099 75 1028 239 q 1396 -241 1396 -134 l 1396 -296 q 1303 -352 1396 -339 q 1006 -148 1222 -352 q 876 -408 1006 -408 l 857 -408 q 783 -278 783 -378 q 895 205 783 -32 q 968 241 940 241 z "},"고":{"ha":1227,"x_min":41,"x_max":1173,"o":"m 449 1077 q 932 928 932 1077 q 1024 483 970 928 l 987 334 l 876 334 q 764 836 793 347 l 671 854 l 412 854 q 134 798 161 798 q 41 873 49 834 l 41 966 q 449 1077 41 1053 m 542 409 q 653 205 635 409 l 635 205 l 653 168 q 635 149 653 149 l 671 -74 l 950 -74 q 1173 -204 1173 -74 q 1024 -315 1173 -301 q 857 -296 924 -296 l 671 -296 q 597 -315 630 -296 q 542 -296 562 -296 q 467 -315 500 -296 q 263 -296 340 -296 l 171 -296 q 134 -222 171 -268 l 134 -204 q 208 -74 134 -104 l 449 -74 l 431 -37 q 449 -18 431 -18 l 431 19 l 431 334 q 542 409 431 371 z "},"곡":{"ha":1097,"x_min":41,"x_max":1043,"o":"m 616 1244 q 895 891 895 1244 q 913 798 913 891 q 820 687 913 724 q 690 947 690 687 q 579 1021 690 1009 q 115 984 467 1002 l 59 1058 l 59 1151 q 134 1225 59 1180 l 189 1225 q 616 1244 366 1225 m 486 854 l 505 854 q 597 705 548 854 q 579 557 579 604 q 635 409 591 409 q 968 427 857 427 q 1043 279 1043 349 q 913 186 1017 186 l 467 186 q 393 168 426 186 q 375 186 375 168 l 282 168 l 208 168 q 41 316 41 168 l 41 334 l 115 427 l 245 409 l 393 409 l 375 446 l 375 576 q 356 743 375 642 q 486 854 356 854 m 746 75 q 950 -148 950 75 l 950 -352 q 857 -538 936 -538 q 746 -482 746 -519 l 746 -167 q 671 -148 671 -167 q 282 -185 549 -185 q 227 -37 227 -106 q 356 56 252 56 l 412 56 q 746 75 571 56 z "},"곤":{"ha":1171,"x_min":41,"x_max":1117,"o":"m 467 1244 l 467 1225 l 505 1244 l 746 1244 q 987 631 987 1244 q 913 557 987 602 q 764 909 764 557 q 728 1002 764 1002 l 134 984 q 41 1114 41 1010 q 171 1225 41 1225 l 338 1225 l 467 1244 m 542 762 q 653 409 653 762 l 653 372 l 783 372 l 913 390 l 913 372 q 932 390 932 372 q 1117 316 1117 367 l 1117 279 q 987 168 1117 168 q 486 130 808 130 l 300 130 q 171 260 171 130 l 171 297 q 300 372 201 372 l 393 372 l 431 353 l 449 390 l 449 409 q 412 631 449 503 q 542 762 458 762 m 412 37 l 524 -18 q 616 -260 524 -231 l 876 -260 q 1024 -352 1024 -260 q 932 -500 1024 -449 l 671 -500 q 375 -334 375 -500 q 319 -148 327 -283 l 319 -37 q 412 37 327 1 z "},"곧":{"ha":911,"x_min":41,"x_max":857,"o":"m 467 1244 q 746 1021 746 1208 q 764 743 764 907 l 709 705 l 653 705 q 542 1002 542 705 l 542 1058 q 171 1021 356 1058 q 59 1095 59 1065 l 59 1133 q 467 1244 59 1205 m 356 854 q 486 501 486 854 l 542 501 q 746 520 619 501 q 857 372 857 493 l 857 353 q 96 260 857 260 l 41 334 l 41 353 q 171 483 41 483 l 263 483 q 245 631 263 559 q 356 854 263 854 m 690 149 q 764 75 720 149 q 467 -74 764 -74 q 412 -167 412 -144 q 431 -260 431 -197 q 709 -241 616 -241 l 728 -241 q 820 -371 820 -278 l 820 -408 q 393 -500 820 -500 q 208 -130 240 -500 l 208 0 q 560 149 208 149 l 690 149 z "},"골":{"ha":1097,"x_min":41,"x_max":1043,"o":"m 597 1262 q 950 966 950 1262 q 968 762 950 762 q 895 650 931 650 l 876 650 q 728 966 728 650 l 728 1040 l 431 1040 q 356 1021 389 1040 q 338 1040 338 1021 l 245 1021 l 134 1021 q 41 1133 41 1074 q 227 1244 41 1230 l 524 1244 q 597 1262 565 1244 m 449 836 q 560 743 526 810 l 560 687 l 542 576 q 579 465 579 500 l 709 483 l 820 483 q 968 334 968 483 l 968 316 q 839 241 968 267 l 839 260 l 802 241 l 709 241 q 208 205 564 241 q 59 334 59 228 q 208 446 59 446 l 375 446 l 338 576 q 449 836 338 836 m 690 168 q 950 -18 950 156 q 635 -278 950 -208 l 616 -315 l 635 -315 l 820 -296 l 1043 -334 q 635 -557 1043 -557 q 375 -315 449 -557 q 671 -56 375 -134 l 671 -37 q 319 -74 524 -74 q 227 19 294 -74 l 227 75 q 300 149 227 104 q 690 168 626 168 z "},"곪":{"ha":1246,"x_min":41,"x_max":1192,"o":"m 635 1299 l 690 1299 q 932 909 874 1299 l 932 724 q 802 650 901 650 q 671 1077 728 650 l 542 1077 l 449 1058 l 449 1077 l 171 1021 q 41 1170 59 1021 l 41 1188 q 208 1281 87 1281 l 208 1262 q 635 1299 303 1299 m 505 891 q 597 798 530 891 l 597 705 l 616 483 q 895 501 802 501 l 913 501 q 1024 390 1024 501 l 1024 353 q 375 223 1024 267 l 227 223 q 152 297 197 223 l 152 390 q 263 446 171 446 l 412 446 l 375 780 q 505 891 375 891 m 932 205 l 1061 205 q 1192 0 1119 205 q 1080 -389 1192 -342 l 1061 -389 q 728 -167 728 -389 q 671 56 671 -14 q 932 205 732 205 m 449 130 q 635 0 635 75 l 635 -18 q 524 -241 635 -102 l 524 -278 l 653 -260 l 709 -260 l 709 -334 q 467 -500 709 -500 q 282 -334 340 -500 q 393 -74 288 -241 q 171 -18 171 -74 l 171 37 q 449 130 171 99 m 895 -18 q 932 -167 932 -74 l 968 -167 l 968 0 l 950 0 q 895 -18 914 -18 z "},"곬":{"ha":1264,"x_min":41,"x_max":1210,"o":"m 467 1281 l 597 1281 q 932 743 932 1281 q 876 650 918 650 l 839 650 q 690 1002 690 650 q 505 1058 690 1058 l 134 1002 q 59 1058 59 1030 l 59 1114 q 467 1281 59 1281 m 486 891 q 579 780 514 891 l 579 501 l 709 501 q 876 520 776 501 q 1024 409 982 520 q 802 279 1024 279 q 189 241 387 241 q 59 297 167 241 l 59 427 q 134 483 59 473 q 375 465 363 465 l 375 650 l 356 762 q 486 891 370 891 m 282 168 q 560 -56 560 122 l 560 -92 q 449 -296 560 -176 q 653 -352 615 -296 q 783 149 653 149 q 932 -56 932 149 q 1210 -278 1196 -195 q 1136 -371 1174 -363 l 1117 -371 q 857 -278 1051 -371 q 876 -334 876 -314 q 746 -500 876 -500 q 690 -445 690 -500 l 671 -445 q 467 -538 593 -538 l 431 -538 q 171 -352 171 -500 q 338 -92 171 -257 l 338 -56 l 300 -74 q 282 -56 282 -74 q 152 -92 208 -92 q 41 0 75 -67 l 41 19 q 282 168 53 168 z "},"곯":{"ha":1116,"x_min":41,"x_max":1061,"o":"m 524 1337 l 635 1337 q 950 780 950 1337 q 820 669 950 669 q 690 1077 723 669 q 560 1114 635 1114 q 96 1077 401 1114 q 41 1170 96 1109 l 41 1244 q 524 1337 41 1337 m 486 928 l 579 817 l 560 687 l 560 501 l 746 501 q 764 483 764 501 l 802 501 q 950 353 950 488 q 839 260 920 260 q 134 279 380 279 l 59 372 l 59 390 q 189 520 59 520 l 245 520 l 338 501 l 356 538 l 356 576 l 338 669 l 356 669 q 338 687 356 687 q 486 928 338 928 m 839 223 q 913 112 913 205 l 913 37 q 1061 -56 1020 37 l 1061 -111 q 1006 -167 1061 -138 q 1061 -296 1061 -260 q 783 -500 1061 -500 q 597 -241 623 -500 l 616 -167 l 542 -148 l 542 -18 q 709 56 542 15 q 839 223 709 223 m 208 186 l 300 186 q 467 0 467 76 q 375 -260 467 -136 q 542 -315 542 -260 l 542 -389 q 356 -482 500 -482 l 300 -482 q 96 -296 96 -439 l 96 -241 q 245 -56 245 -78 q 41 75 41 -56 l 41 112 q 208 186 66 186 z "},"곰":{"ha":986,"x_min":41,"x_max":932,"o":"m 467 1225 l 467 1206 l 505 1225 q 876 854 876 1225 l 876 762 q 802 613 854 613 q 653 724 700 613 l 653 798 l 635 984 l 431 984 q 152 947 327 984 q 41 1040 75 972 l 41 1151 q 115 1188 70 1151 q 467 1225 319 1188 m 412 854 q 524 705 524 816 l 524 483 l 597 483 q 932 372 932 483 l 932 334 q 820 241 932 241 l 653 241 q 171 223 482 241 q 59 316 94 249 l 59 409 q 171 465 78 465 l 189 465 q 263 446 231 465 q 319 465 299 465 l 300 501 l 300 724 q 412 854 300 854 m 764 205 q 895 19 895 122 l 895 -74 q 709 -389 895 -389 q 505 -408 606 -389 q 227 -56 227 -408 q 208 19 208 -56 q 635 186 208 186 q 764 205 635 205 m 449 -74 l 467 -167 l 671 -167 l 671 -18 q 449 -74 449 -60 z "},"곱":{"ha":1135,"x_min":41,"x_max":1080,"o":"m 653 1337 q 950 854 950 1337 q 820 743 950 743 q 690 1095 728 743 l 653 1095 q 227 1040 493 1095 q 115 1133 150 1065 l 115 1225 q 467 1318 115 1299 l 467 1299 l 653 1337 m 375 966 q 560 762 536 966 l 542 762 q 579 538 556 712 l 616 557 l 653 557 q 671 538 671 557 l 709 557 l 950 557 q 1080 427 1080 557 q 467 297 1080 297 q 189 260 467 260 q 41 353 88 260 l 41 372 q 171 501 41 501 l 356 501 q 319 891 319 738 q 375 966 347 891 m 783 205 q 950 -130 950 182 l 950 -222 q 579 -593 888 -593 l 524 -593 q 263 -130 263 -476 q 227 37 233 -130 q 300 149 227 112 l 375 149 q 486 -56 428 111 q 728 -37 497 -56 l 728 37 l 709 130 l 783 205 m 524 -296 q 542 -352 542 -332 q 728 -241 728 -352 l 709 -241 l 524 -296 z "},"곳":{"ha":1042,"x_min":41,"x_max":987,"o":"m 134 1318 l 189 1318 q 263 1299 231 1318 q 282 1318 282 1299 l 412 1299 l 467 1299 l 597 1318 l 597 1299 l 635 1318 l 671 1318 q 690 1299 690 1318 l 728 1318 l 746 1318 q 895 1058 895 1215 l 895 891 q 764 724 895 724 q 671 873 671 772 l 690 873 l 671 909 q 690 928 671 928 l 671 1021 l 671 1077 l 542 1077 q 152 1058 394 1077 q 41 1206 41 1097 l 41 1225 q 134 1318 41 1250 m 431 873 l 505 873 q 597 465 597 873 l 857 465 q 987 316 987 465 q 709 223 987 223 l 245 223 q 96 316 144 223 l 96 409 q 171 483 96 428 l 263 465 l 375 465 l 375 594 l 356 687 l 375 687 q 356 705 375 705 q 431 873 379 873 m 524 186 l 560 186 q 932 -185 932 -85 q 820 -296 932 -296 l 802 -296 l 579 -130 q 449 -389 579 -277 l 393 -389 q 319 -315 364 -389 l 319 -260 q 505 168 389 168 q 524 186 505 186 z "},"공":{"ha":1116,"x_min":41,"x_max":1061,"o":"m 671 1244 l 671 1225 l 709 1244 l 746 1225 q 802 1244 782 1244 q 932 947 932 1077 l 932 798 q 857 631 932 656 q 709 780 709 650 l 728 873 q 671 1002 709 1002 l 635 1002 q 189 966 535 1002 q 96 1058 140 978 l 96 1077 q 263 1225 96 1225 l 486 1225 l 671 1244 m 412 817 l 431 817 q 579 631 579 817 l 579 557 q 560 483 579 515 q 579 409 579 450 l 579 334 l 709 334 q 728 316 728 334 l 764 334 l 968 334 q 1061 205 1061 294 q 876 93 1061 106 l 802 93 q 59 186 59 93 l 41 279 q 189 372 75 372 l 356 353 l 356 372 q 338 483 356 385 l 356 669 q 338 724 338 705 q 412 817 374 809 m 505 19 l 524 19 q 968 -278 968 19 q 671 -631 947 -631 l 653 -631 q 338 -278 410 -631 l 338 -204 q 505 19 338 -104 m 542 -204 l 542 -278 q 653 -389 542 -307 q 764 -315 721 -371 q 597 -204 764 -204 l 542 -204 z "},"곶":{"ha":1116,"x_min":41,"x_max":1061,"o":"m 449 1262 q 820 1058 820 1262 q 839 1002 820 1038 l 820 966 l 839 928 q 709 687 839 687 l 690 687 q 616 817 616 718 l 616 966 q 560 1021 616 992 l 486 1021 q 134 1002 336 1021 q 41 1077 49 1038 l 41 1170 q 115 1244 41 1198 l 189 1244 q 449 1262 333 1244 m 393 891 q 505 762 505 848 q 486 557 486 597 q 839 446 486 446 q 913 372 868 446 l 913 334 q 802 223 913 223 l 486 223 q 41 334 41 223 l 41 372 q 115 501 41 457 l 282 483 l 282 650 q 393 891 282 891 m 728 130 q 820 -18 816 14 q 802 -74 802 -54 q 1061 -315 1060 -205 q 950 -408 1031 -408 q 728 -296 752 -296 l 728 -315 q 579 -500 607 -500 l 560 -500 q 431 -408 467 -500 l 431 -315 q 560 -130 560 -157 l 338 -130 q 208 0 208 -130 q 319 112 208 112 l 505 112 l 728 130 z "},"과":{"ha":1691,"x_min":41,"x_max":1637,"o":"m 728 1040 q 857 631 857 943 q 895 465 895 631 q 783 390 876 390 q 597 817 652 390 l 560 798 q 115 780 526 798 q 41 891 41 798 l 41 947 q 115 1021 41 976 q 728 1040 620 1040 m 1117 1002 q 1303 576 1303 1002 q 1637 465 1637 576 l 1637 446 q 1544 334 1611 369 l 1340 334 l 1358 149 l 1358 75 q 1247 -56 1358 -56 q 1099 353 1122 -56 q 1024 873 1080 748 q 1117 1002 1062 988 m 393 501 l 449 501 q 597 112 529 501 q 839 130 755 130 q 932 0 932 104 q 449 -130 932 -130 l 338 -130 q 171 0 225 -130 q 300 130 195 130 l 375 112 l 375 130 q 319 446 319 222 l 393 501 z "},"곽":{"ha":1765,"x_min":41,"x_max":1711,"o":"m 171 1225 l 524 1225 q 542 1206 542 1225 l 579 1225 l 597 1225 q 820 836 776 1225 l 820 762 q 709 650 820 650 l 690 650 q 560 966 612 650 q 319 984 549 966 l 152 966 q 41 1114 69 966 q 171 1225 70 1225 m 1210 1151 q 1396 817 1396 1151 q 1414 780 1396 780 q 1711 631 1711 780 q 1525 520 1711 520 l 1432 538 q 1414 520 1432 520 l 1432 483 l 1432 316 q 1358 186 1432 216 l 1247 186 q 1154 966 1210 225 q 1136 1021 1136 966 q 1210 1151 1136 1046 m 338 762 l 393 762 q 524 372 524 704 l 524 353 l 690 353 l 783 372 l 783 353 l 820 372 l 839 372 q 932 241 932 316 q 300 93 932 93 l 300 112 q 282 93 282 112 q 78 260 78 112 q 189 372 93 372 l 189 353 l 227 372 q 300 353 259 353 l 300 372 q 263 669 263 643 l 263 687 q 338 762 263 716 m 1192 56 q 1377 -111 1329 56 q 1247 -445 1377 -356 l 1192 -445 q 1117 -352 1117 -407 l 1136 -185 q 968 -222 1096 -204 l 968 -204 l 932 -222 l 820 -222 q 690 -92 690 -222 q 802 37 690 37 q 876 19 844 37 q 1192 56 1115 56 z "},"관":{"ha":1468,"x_min":41,"x_max":1414,"o":"m 449 1206 l 635 1188 q 783 687 730 1040 l 783 669 q 746 557 746 593 l 653 557 q 597 613 627 557 l 597 687 q 449 1021 597 1021 q 96 984 338 1021 l 41 1077 q 227 1188 41 1188 l 227 1170 q 449 1206 245 1188 m 1024 1058 q 1136 613 1136 1058 l 1321 613 l 1414 594 l 1414 483 q 1228 409 1414 431 l 1192 409 l 1154 427 l 1154 241 q 1080 93 1154 140 q 968 205 968 93 l 968 279 q 987 297 968 297 l 968 334 l 968 353 q 987 372 968 372 l 968 409 l 968 501 q 932 928 968 612 q 1024 1058 946 1058 m 393 743 q 467 353 431 743 l 671 353 q 820 297 808 353 l 820 205 q 746 149 820 186 l 653 168 l 635 168 q 486 149 558 168 q 78 241 78 178 l 78 334 q 115 372 83 372 l 282 372 l 282 427 l 263 557 l 282 557 l 263 594 l 263 631 q 393 743 263 743 m 338 37 l 467 37 q 579 -241 524 -241 q 968 -278 736 -241 l 968 -352 q 895 -464 968 -445 q 356 -260 356 -464 q 319 -56 319 -66 l 338 -56 l 319 -18 q 338 37 338 18 z "},"괄":{"ha":1450,"x_min":41,"x_max":1396,"o":"m 412 1225 l 449 1206 l 542 1225 q 764 743 764 1225 l 764 724 q 709 613 764 628 l 671 613 q 560 1002 602 613 l 524 1021 l 189 1021 l 96 1002 l 41 1077 l 59 1206 l 338 1206 q 412 1225 379 1206 m 1043 1133 q 1136 780 1099 1133 l 1340 780 q 1396 724 1367 780 l 1396 705 q 1173 576 1396 576 l 1136 576 l 1154 483 l 1154 372 l 1136 279 l 1024 279 q 968 334 998 279 q 987 390 968 390 q 950 613 964 564 q 968 669 968 649 l 950 780 l 968 780 l 913 1021 q 1043 1133 942 1133 m 338 836 l 356 836 q 467 669 467 836 q 486 427 467 657 l 690 427 q 746 372 717 427 l 746 297 q 690 241 746 271 l 616 241 q 115 334 115 241 l 96 409 q 189 483 103 458 l 300 465 l 319 465 q 282 762 282 569 q 338 836 310 836 m 486 186 l 1061 186 q 1136 37 1110 186 l 1136 -56 q 635 -296 1136 -259 l 635 -315 q 895 -371 895 -347 l 932 -352 q 1006 -371 964 -371 l 1006 -427 q 950 -538 1006 -523 l 913 -538 q 412 -371 522 -538 q 431 -352 412 -352 l 412 -315 l 412 -296 q 635 -111 412 -111 q 968 0 968 -60 l 913 0 q 820 -18 851 0 l 709 0 l 542 -18 q 375 93 398 -18 q 486 186 387 186 z "},"괆":{"ha":1524,"x_min":41,"x_max":1470,"o":"m 96 1337 q 245 1281 189 1281 l 282 1281 l 412 1299 l 412 1281 l 449 1299 l 542 1299 q 728 947 728 1299 l 728 836 q 635 669 728 669 q 542 817 560 669 l 560 817 l 542 854 q 560 873 542 873 l 542 909 l 542 928 q 560 947 542 947 l 542 984 q 560 1002 542 1002 q 486 1095 524 1087 q 245 1077 475 1095 q 41 1151 41 1100 l 41 1281 q 96 1337 96 1281 m 1061 1188 l 1136 1188 q 1192 1095 1162 1188 l 1173 1002 l 1173 854 q 1210 836 1210 854 q 1228 854 1228 836 l 1470 817 l 1470 705 q 1284 631 1470 669 l 1173 669 l 1173 465 q 1117 353 1173 368 l 1099 353 l 1006 372 l 1006 538 l 987 631 l 1006 631 q 987 687 987 667 q 1061 1188 987 1188 m 282 909 l 338 909 q 431 520 408 909 l 542 520 q 690 465 679 520 l 690 372 q 542 316 679 316 q 524 334 524 316 l 486 316 l 449 316 q 431 334 431 316 l 393 316 q 59 409 94 346 q 96 557 96 548 q 115 538 115 557 l 152 557 l 263 538 q 227 873 227 651 l 282 909 m 189 205 l 542 205 q 635 -37 616 205 q 431 -278 589 -278 l 431 -315 q 597 -371 597 -330 l 597 -408 q 542 -519 597 -505 l 467 -519 q 189 -296 189 -472 l 189 -278 q 431 -92 189 -141 q 467 19 431 -60 l 431 19 q 208 0 400 19 l 152 75 l 152 130 q 189 205 189 176 m 968 205 q 1228 -18 1228 205 l 1228 -222 q 1061 -519 1214 -519 q 895 -500 961 -500 l 820 -500 q 690 75 746 -500 q 968 205 702 172 m 876 -18 q 913 -315 913 -254 l 1043 -315 q 1080 -148 1061 -148 l 1061 -111 q 1080 -92 1061 -92 q 1006 0 1061 0 l 968 -18 l 932 0 q 876 -18 896 -18 z "},"괌":{"ha":1506,"x_min":41,"x_max":1451,"o":"m 467 1206 q 746 762 746 1206 l 746 669 q 653 557 746 569 q 560 780 560 557 l 579 780 l 524 1002 q 115 984 245 984 l 96 984 q 41 1077 54 984 q 96 1188 59 1188 l 393 1188 q 467 1206 435 1188 m 1006 1095 l 1061 1095 q 1154 836 1117 1095 l 1136 836 l 1154 798 l 1154 705 l 1340 705 q 1451 650 1451 694 l 1451 557 q 1265 501 1305 501 l 1265 520 l 1228 501 l 1210 501 l 1173 520 l 1173 186 q 1061 130 1173 149 q 968 891 1013 130 q 950 1002 950 891 l 950 1040 q 1006 1095 950 1066 m 282 705 l 356 705 q 431 446 412 705 l 431 334 q 542 316 514 334 l 579 334 q 709 297 673 297 l 709 205 q 579 130 679 130 l 542 149 q 467 130 509 130 l 467 149 q 449 130 449 149 q 78 260 78 130 l 78 279 q 96 297 96 279 q 78 316 78 297 q 282 353 243 338 q 227 631 263 377 q 282 705 254 705 m 616 37 l 895 37 q 913 19 913 37 l 950 37 l 968 37 q 1080 -185 1080 -20 l 1061 -222 l 1080 -315 q 839 -538 1080 -538 l 802 -557 q 746 -538 766 -538 q 690 -557 710 -557 l 690 -538 l 653 -557 q 449 -278 478 -557 l 467 -241 q 431 -74 431 -155 q 616 37 431 24 m 746 -167 l 635 -167 l 635 -260 l 653 -352 l 802 -352 q 913 -241 913 -352 l 895 -167 l 802 -167 q 783 -148 783 -167 l 746 -167 z "},"괍":{"ha":1543,"x_min":41,"x_max":1489,"o":"m 635 1281 q 764 873 764 1093 l 764 854 q 709 743 764 758 l 635 743 q 486 1095 567 1095 q 78 1077 449 1095 q 41 1170 41 1137 q 208 1281 41 1281 l 635 1281 m 1061 1151 q 1154 854 1154 1151 q 1173 836 1173 854 l 1210 854 l 1377 854 q 1489 798 1489 842 l 1489 762 q 1377 650 1489 650 l 1173 650 l 1173 594 q 1192 427 1173 528 q 1117 334 1156 342 l 1080 334 q 968 1077 999 334 l 968 1095 q 1061 1151 968 1127 m 319 891 l 412 891 q 467 520 467 636 l 467 501 l 653 501 q 764 446 764 490 l 764 372 q 635 297 734 297 l 542 316 q 467 297 509 297 l 467 316 q 412 297 431 297 q 59 372 59 321 l 59 483 q 96 520 65 520 l 115 520 l 300 501 l 300 520 q 263 817 263 731 l 263 836 q 319 891 263 862 m 486 168 q 560 -18 537 168 q 542 -37 542 -18 l 728 -56 l 839 -56 l 839 37 q 968 149 880 149 q 1024 0 1024 44 l 1006 0 l 1024 -37 l 1024 -74 q 820 -482 1002 -482 q 393 -222 393 -482 q 375 93 393 -50 q 486 168 393 168 m 579 -222 q 728 -278 591 -278 l 783 -278 q 839 -222 810 -278 l 709 -241 l 579 -222 z "},"괏":{"ha":1450,"x_min":41,"x_max":1396,"o":"m 96 1151 l 189 1151 q 208 1133 208 1151 l 245 1151 l 282 1151 q 300 1133 300 1151 q 319 1151 319 1133 q 764 1040 764 1151 q 802 687 783 705 q 709 557 772 557 q 616 631 624 593 l 616 780 q 449 947 616 947 l 96 947 q 41 1002 70 947 l 41 1040 q 96 1151 52 1151 m 968 984 q 987 966 987 984 l 1024 984 l 1061 984 q 1154 724 1112 984 q 1396 687 1196 710 l 1396 631 q 1192 501 1396 501 q 1173 520 1192 520 l 1173 297 q 1117 186 1173 201 l 1061 186 q 968 762 1000 186 q 932 873 950 762 q 968 984 968 949 m 300 743 l 393 743 q 467 520 449 743 q 449 465 449 484 q 486 334 462 334 l 653 353 q 728 223 728 334 q 616 149 709 149 l 300 149 q 282 168 282 149 l 245 149 q 41 260 41 215 q 96 390 59 390 l 115 390 q 300 353 151 390 l 300 372 q 263 631 282 608 q 300 743 300 707 m 820 130 q 1099 -148 820 101 q 1173 -204 1099 -176 q 1043 -371 1173 -371 q 876 -204 1013 -371 l 802 -148 l 783 -148 q 653 -371 783 -213 l 635 -371 q 524 -260 524 -371 q 542 -241 524 -241 l 524 -204 l 524 -185 q 728 112 595 -185 l 820 130 z "},"광":{"ha":1579,"x_min":41,"x_max":1525,"o":"m 96 1188 l 579 1188 q 764 780 764 1188 q 728 594 746 735 l 635 594 q 560 984 575 594 l 319 984 q 300 1002 300 984 q 115 966 256 984 q 41 1021 41 994 l 41 1133 q 96 1188 41 1159 m 1024 1077 l 1099 1077 q 1192 762 1141 1077 q 1525 687 1525 743 l 1525 594 q 1377 538 1525 557 l 1377 557 l 1340 538 l 1228 557 l 1210 557 q 1247 316 1228 334 q 1173 205 1204 205 l 1117 205 q 1024 705 1024 246 q 987 817 1000 705 l 1006 817 q 968 1002 968 902 q 1024 1077 996 1077 m 319 780 q 467 446 446 780 l 486 353 q 542 372 522 372 q 764 297 764 363 l 764 223 q 709 168 764 197 l 319 168 q 78 223 275 168 l 78 353 q 208 390 78 390 l 208 372 l 300 372 q 245 669 282 563 q 319 780 283 780 m 802 112 l 876 112 q 1117 -92 1054 112 q 1173 -222 1141 -92 q 987 -538 1173 -444 q 913 -575 987 -560 q 542 -204 542 -575 l 542 -167 q 802 112 542 112 m 709 -222 q 839 -371 764 -343 q 987 -315 873 -371 l 987 -241 q 839 -74 958 -74 q 709 -204 709 -74 l 709 -222 z "},"괘":{"ha":1561,"x_min":41,"x_max":1507,"o":"m 653 1095 q 802 538 802 891 q 671 465 736 465 q 560 891 621 562 q 152 854 490 891 q 41 909 41 878 l 41 928 q 300 1077 41 1077 q 653 1095 401 1077 m 1024 873 q 1136 520 1136 873 l 1136 483 l 1173 501 l 1303 483 l 1321 520 l 1321 613 l 1303 705 l 1321 705 l 1303 743 q 1396 873 1340 859 q 1489 762 1489 842 q 1507 37 1507 214 q 1377 -37 1442 -37 l 1321 56 q 1340 223 1340 157 l 1321 297 l 1154 297 l 1154 149 q 1099 -18 1154 79 l 1080 -18 q 968 130 968 -18 l 987 130 l 968 168 l 968 241 q 987 260 968 260 l 968 297 q 950 780 950 609 l 950 817 q 1024 873 978 817 m 356 576 q 524 130 449 576 l 709 130 l 802 112 l 802 75 q 653 -74 793 -74 l 560 -56 l 263 -56 q 96 19 121 -56 l 96 112 q 134 149 102 149 l 300 149 l 338 130 l 263 465 q 356 576 289 541 z "},"괜":{"ha":1394,"x_min":41,"x_max":1340,"o":"m 560 1299 q 728 891 681 1299 q 635 687 709 687 q 524 1077 524 687 l 393 1095 q 78 1077 140 1077 l 41 1133 l 41 1170 q 152 1281 41 1281 l 449 1281 l 560 1299 m 839 1151 l 895 1151 q 987 928 950 1151 l 968 928 l 987 891 l 987 798 l 1154 798 l 1154 854 l 1136 966 l 1154 1002 l 1136 1040 q 1210 1151 1173 1151 l 1265 1151 q 1321 909 1321 1151 l 1321 724 l 1340 613 q 1321 520 1321 582 l 1321 409 q 1247 334 1321 380 l 1173 334 l 1154 427 l 1154 594 l 1006 594 q 932 372 1006 372 l 876 372 q 820 427 849 372 l 820 446 q 783 1058 820 838 q 839 1151 839 1130 m 338 891 q 431 520 431 891 q 597 483 597 509 l 635 501 l 690 465 q 616 297 667 297 q 59 409 197 297 l 59 465 q 115 557 115 525 q 263 520 195 557 l 245 705 l 245 817 q 338 891 283 891 m 597 186 q 671 75 671 168 l 653 75 q 1006 -111 653 -111 l 1080 -111 q 1136 -167 1107 -111 q 932 -315 1136 -296 l 932 -296 l 895 -315 q 486 56 486 -315 q 597 186 486 186 z "},"괞":{"ha":1487,"x_min":41,"x_max":1432,"o":"m 524 1281 l 597 1281 q 764 836 764 1198 l 764 798 q 653 687 764 687 q 560 1058 602 687 l 467 1077 q 96 1040 203 1040 q 41 1095 70 1040 l 41 1170 q 78 1244 78 1215 q 524 1281 106 1244 m 987 1170 l 1006 1170 q 1117 836 1073 1170 l 1192 836 l 1247 873 l 1228 966 l 1228 984 q 1340 1133 1228 1133 l 1377 1133 l 1432 687 l 1414 687 l 1432 650 l 1432 501 q 1340 372 1432 372 q 1265 483 1265 390 l 1265 650 l 1154 650 l 1117 631 l 1136 501 q 1061 316 1136 393 q 1117 112 1117 316 l 1117 93 l 1284 93 q 1321 56 1321 87 l 1321 -56 l 1284 -56 l 1284 -92 q 1340 -260 1340 -163 l 1321 -260 l 1340 -296 q 1173 -500 1248 -500 q 857 -241 857 -431 q 876 -111 876 -161 q 746 -37 792 -111 l 746 19 q 820 93 746 48 l 950 75 l 950 93 l 932 279 q 1024 334 992 334 q 968 427 968 395 l 913 1114 l 987 1170 m 412 854 q 505 446 471 773 l 524 446 q 728 465 600 446 q 783 446 764 446 l 783 353 q 431 241 783 241 l 431 260 l 393 241 l 338 241 q 319 260 319 241 l 282 241 q 152 316 152 267 l 152 334 q 263 465 152 465 q 319 446 299 446 l 319 501 q 282 705 319 633 q 412 854 315 854 m 319 93 l 356 93 q 412 37 383 93 l 412 -92 q 579 -260 412 -260 l 690 -260 q 728 -296 690 -296 q 597 -445 728 -445 l 524 -445 q 245 -111 245 -445 l 263 -111 l 245 -74 q 319 93 267 93 m 1024 -204 l 1024 -222 q 1154 -334 1070 -303 q 1192 -241 1154 -301 q 1117 -167 1173 -241 q 1024 -204 1057 -204 z "},"괠":{"ha":1413,"x_min":41,"x_max":1358,"o":"m 486 1225 l 486 1206 l 524 1225 q 709 724 709 1158 q 653 669 709 697 l 597 669 q 486 1021 545 669 l 449 1021 q 134 984 282 1021 q 41 1095 41 996 l 41 1133 l 96 1206 q 152 1188 116 1206 q 486 1225 387 1225 m 1228 1114 l 1265 1114 q 1358 372 1321 899 l 1284 316 q 1173 465 1173 343 l 1173 631 q 968 613 1008 613 l 987 576 l 987 390 q 932 334 987 363 l 876 334 q 783 798 807 334 q 746 1002 750 798 q 876 1095 776 1095 q 950 817 919 1053 l 1136 817 l 1117 1002 q 1228 1114 1117 1114 m 356 873 q 486 483 447 873 l 597 483 l 690 465 l 690 353 q 524 279 665 279 l 524 297 l 486 279 l 393 279 l 282 297 q 189 279 251 279 q 115 353 160 279 q 245 483 115 483 l 319 483 l 263 705 q 356 873 263 821 m 1006 260 l 1080 260 q 1210 149 1173 260 l 1210 -18 q 839 -241 1210 -195 l 839 -260 q 895 -296 839 -296 q 1117 -278 1087 -278 l 1136 -315 l 1136 -371 q 895 -500 1136 -439 q 616 -241 616 -399 q 1006 -18 616 -50 q 1043 19 1043 -18 l 1043 75 q 987 93 1023 75 q 616 56 802 56 q 560 130 588 56 q 690 241 560 241 q 1006 260 808 260 z "},"괩":{"ha":1413,"x_min":41,"x_max":1358,"o":"m 300 1225 l 300 1206 l 338 1225 l 505 1225 q 709 743 681 1225 q 653 650 696 650 l 597 650 q 486 1021 542 650 l 338 1021 q 78 984 275 1021 l 41 1040 l 41 1151 q 300 1225 41 1206 m 895 1058 q 1024 762 987 1058 l 1154 762 l 1154 798 q 1136 873 1154 840 q 1228 1058 1168 1058 l 1284 1058 q 1321 984 1284 1029 q 1358 353 1321 949 q 1303 279 1312 353 q 1173 538 1173 279 q 1136 576 1173 576 q 1080 557 1100 557 q 1061 576 1080 576 q 1043 557 1061 557 l 1061 372 l 1061 353 q 1024 279 1024 308 l 987 279 q 876 446 876 279 q 802 947 852 747 q 895 1058 827 1023 m 300 817 q 431 557 431 817 l 431 465 l 560 465 q 579 446 579 465 l 616 465 q 671 446 652 446 q 690 465 671 465 q 728 427 690 427 q 653 260 705 260 l 579 260 q 560 279 560 260 l 524 260 l 152 260 q 115 297 115 260 l 115 334 l 152 465 l 189 446 l 263 446 l 227 705 q 300 817 270 817 m 1080 260 q 1136 168 1080 229 l 1136 149 q 1117 130 1136 130 l 1136 93 l 1136 -111 q 1024 -371 1086 -371 q 1006 -352 1006 -371 q 895 -389 945 -389 l 802 -389 q 560 93 560 -389 q 671 205 560 205 q 746 37 746 194 l 876 37 l 968 56 l 968 112 q 1080 260 968 233 m 932 -148 l 783 -148 l 783 -185 l 932 -185 q 968 -148 968 -185 l 968 -130 l 932 -148 z "},"괬":{"ha":1487,"x_min":41,"x_max":1432,"o":"m 356 1206 q 653 947 653 1206 q 671 631 671 804 l 616 594 q 505 762 505 594 q 431 1002 481 1002 l 300 1002 l 78 984 l 41 1040 l 41 1058 q 300 1206 41 1206 l 356 1206 m 1210 1151 q 1340 631 1340 1151 q 1358 446 1358 627 q 1284 334 1320 334 l 1247 334 q 1173 613 1173 334 l 1136 594 l 968 594 l 987 501 l 987 427 q 876 316 987 316 q 783 947 783 316 q 764 1058 764 947 l 839 1114 l 876 1114 q 968 780 932 1114 l 1154 780 l 1154 798 q 1136 1058 1154 901 q 1210 1151 1172 1143 m 300 798 l 338 798 q 431 446 393 798 q 449 427 449 446 q 431 409 431 427 l 467 427 l 653 427 l 653 297 q 579 241 653 241 q 115 260 472 241 l 78 316 l 78 390 q 115 465 115 435 l 245 446 q 227 705 245 473 q 300 798 262 790 m 1117 297 l 1173 223 l 1173 130 l 1154 93 q 1432 -130 1200 93 q 1358 -260 1432 -229 q 1136 -130 1283 -260 q 1043 -296 1080 -296 q 932 -241 947 -296 q 876 -260 896 -260 q 728 -130 848 -260 l 709 -130 q 597 -278 671 -278 q 524 -222 524 -250 l 524 -204 q 709 279 664 279 l 802 279 l 820 186 l 820 168 l 802 75 q 968 -74 916 -74 q 987 -56 968 -56 q 968 -37 987 -37 q 1117 297 994 297 z "},"괭":{"ha":1450,"x_min":41,"x_max":1396,"o":"m 115 1170 l 208 1151 q 467 1170 366 1170 q 709 854 709 1170 l 728 724 q 653 613 690 613 l 616 613 q 524 966 534 613 l 338 966 q 134 947 260 966 q 41 1040 84 947 q 115 1170 66 1170 m 913 1021 l 968 1021 q 1043 854 1043 996 l 1043 780 l 1173 762 l 1192 762 q 1173 909 1173 894 q 1265 1002 1185 959 q 1396 538 1377 1002 l 1396 390 l 1340 297 l 1228 316 l 1228 390 l 1210 520 q 1228 538 1228 520 l 1192 557 l 1061 557 l 1080 446 q 950 334 1080 334 q 857 909 889 334 l 913 1021 m 282 762 l 338 762 q 431 390 389 762 l 524 390 l 653 409 l 690 353 l 690 223 q 467 186 562 186 q 41 297 41 186 l 41 316 q 115 427 41 345 q 245 390 151 427 l 227 613 l 227 705 q 282 762 227 732 m 839 223 l 932 223 q 1228 -37 1177 223 q 913 -371 1194 -371 q 653 -56 718 -371 l 653 19 q 839 223 708 223 m 857 37 l 839 0 l 839 -18 q 987 -167 839 -167 l 1061 -74 q 857 37 1061 37 z "},"괴":{"ha":1357,"x_min":41,"x_max":1303,"o":"m 115 984 l 245 966 l 393 966 l 524 984 l 524 966 q 542 984 542 966 q 802 762 802 984 q 857 465 857 564 l 857 390 q 783 316 857 361 l 746 316 q 616 762 700 316 l 524 780 l 486 780 l 393 762 l 393 780 l 356 762 l 338 762 q 319 780 319 762 q 263 762 283 762 l 189 780 l 152 762 q 41 873 41 806 q 115 984 52 914 m 1080 891 l 1117 891 q 1303 93 1214 891 q 1228 0 1267 8 l 1192 0 q 1061 483 1122 0 l 1080 483 q 1043 687 1043 555 l 1043 705 l 1006 705 q 1024 724 1006 724 l 1006 762 q 1080 891 1031 891 m 449 520 q 579 75 514 520 l 802 93 q 839 56 808 56 q 746 -111 839 -60 q 412 -130 587 -111 q 171 19 171 -130 q 245 93 171 48 q 393 75 347 75 l 393 93 q 338 446 338 316 q 449 520 356 520 z "},"괵":{"ha":1301,"x_min":41,"x_max":1247,"o":"m 96 1133 l 189 1114 l 579 1114 q 764 687 764 1114 q 709 557 746 557 l 635 557 q 560 909 579 557 q 542 928 542 909 q 263 909 357 909 q 41 984 41 909 l 41 1058 l 96 1133 m 1136 966 q 1247 372 1210 840 q 1099 168 1247 168 l 1061 223 l 1061 241 q 1006 909 1061 419 l 1024 909 q 1136 966 1095 958 m 375 705 l 393 705 q 486 390 474 705 l 486 353 q 524 334 524 353 l 560 353 l 709 353 q 764 279 764 353 q 505 149 764 149 l 282 149 q 115 279 115 149 q 189 372 151 363 l 319 353 l 319 372 l 300 483 l 300 631 q 375 705 300 661 m 524 37 l 746 19 l 783 19 q 987 37 860 19 q 1117 -167 1117 6 l 1117 -185 q 1080 -408 1117 -279 l 1006 -408 l 932 -352 l 950 -260 l 950 -204 q 913 -167 950 -167 l 579 -167 l 542 -148 q 524 -167 542 -167 q 467 -74 524 -145 l 524 37 z "},"괸":{"ha":1339,"x_min":41,"x_max":1284,"o":"m 560 1225 q 783 669 715 1225 q 709 557 783 594 l 690 557 q 560 947 600 557 q 505 1021 542 947 q 78 984 279 984 q 41 1095 41 1060 q 560 1225 41 1225 m 1099 1021 l 1136 1021 q 1284 241 1232 1021 l 1284 205 q 1210 130 1284 176 q 1099 279 1136 130 l 1117 279 q 1024 966 1080 402 l 1099 1021 m 393 798 q 505 501 467 798 q 560 372 530 372 l 597 372 l 783 390 l 820 334 l 820 260 q 393 168 820 168 l 282 168 q 152 260 189 168 q 227 372 195 372 l 356 353 q 282 631 319 540 q 393 798 310 798 m 560 19 l 616 19 q 728 -222 642 18 l 1080 -222 q 1117 -260 1117 -228 l 1117 -371 q 987 -427 1099 -371 q 968 -408 968 -427 l 876 -427 l 764 -427 q 505 -56 505 -427 q 560 19 532 19 z "},"괼":{"ha":1357,"x_min":41,"x_max":1303,"o":"m 412 1244 q 728 928 728 1244 q 746 743 746 831 l 746 669 q 690 613 746 642 l 635 613 q 524 1021 583 613 q 412 1040 509 1021 q 134 1002 366 1040 q 41 1095 84 1002 q 375 1244 41 1244 l 412 1244 m 1117 1058 l 1136 1058 l 1228 1040 l 1228 1021 q 1303 390 1303 506 q 1228 297 1267 305 q 1099 613 1099 324 l 1117 613 q 1061 966 1061 802 q 1117 1058 1075 1058 m 375 817 q 486 409 486 817 l 505 409 q 616 427 602 427 l 616 409 l 653 427 l 709 427 l 802 409 l 802 297 q 728 223 802 269 l 597 223 q 542 205 542 223 q 96 316 96 223 l 134 446 l 171 446 l 300 427 q 319 446 300 446 l 282 594 q 300 650 300 630 l 282 687 q 375 817 319 803 m 839 260 q 1099 241 996 241 l 1136 241 q 1247 -18 1247 198 q 913 -241 1247 -241 l 895 -278 q 950 -315 950 -296 l 987 -296 l 1228 -296 q 1265 -334 1265 -302 l 1265 -389 q 1006 -500 1265 -488 l 857 -500 q 709 -260 709 -408 l 709 -241 q 1080 0 709 -60 l 1080 37 l 950 56 l 802 56 q 764 93 802 93 l 764 112 q 839 260 764 249 z "},"굄":{"ha":1264,"x_min":41,"x_max":1210,"o":"m 96 1188 l 227 1170 l 579 1170 q 783 705 754 1170 l 802 669 q 671 557 802 557 q 560 966 621 610 q 467 984 467 966 l 431 966 q 412 984 412 966 l 375 966 l 115 966 q 41 1095 41 996 l 96 1188 m 1043 1058 q 1210 446 1166 1058 q 1117 297 1196 297 q 1006 780 1006 297 q 968 966 972 780 l 968 984 q 1043 1058 968 1013 m 338 780 l 356 780 l 449 762 q 524 353 478 353 l 542 353 q 728 372 704 372 l 802 334 q 709 168 802 218 l 171 168 q 78 223 110 223 q 189 372 78 372 l 319 353 q 282 705 282 614 q 338 780 310 780 m 560 56 l 987 56 q 1117 -148 1117 56 l 1117 -204 q 987 -500 1117 -500 q 857 -538 987 -538 l 709 -538 q 524 -185 524 -538 l 524 -18 q 560 56 560 27 m 783 -148 l 690 -148 l 728 -334 l 932 -334 l 950 -167 q 876 -130 905 -130 q 820 -148 840 -148 l 820 -130 l 783 -148 z "},"굅":{"ha":1450,"x_min":41,"x_max":1396,"o":"m 78 1262 q 616 1225 454 1225 q 709 1002 677 1164 l 690 1002 l 709 966 l 709 724 q 616 650 701 686 q 524 817 547 650 l 542 817 l 524 854 q 542 873 524 873 q 486 1040 519 1040 l 356 1040 q 41 1114 41 1040 l 41 1188 q 78 1262 78 1234 m 1210 1077 l 1303 1077 q 1396 427 1358 842 q 1303 279 1396 334 q 1192 631 1192 279 q 1154 1040 1154 843 l 1210 1077 m 282 873 l 338 873 q 467 409 375 873 l 560 427 l 616 427 l 709 409 l 709 372 q 524 223 709 223 l 431 223 q 78 334 78 223 l 78 353 q 134 446 91 446 l 227 446 l 263 427 l 263 446 q 208 780 227 742 q 282 873 243 865 m 1080 223 l 1099 223 q 1192 149 1190 174 l 1192 56 q 1210 -130 1192 -32 q 876 -482 1210 -482 q 616 19 616 -482 q 597 75 597 19 q 728 168 623 168 q 802 -18 802 100 l 1006 -18 l 1006 19 q 987 93 1006 60 q 1080 223 1050 223 m 820 -204 l 820 -222 q 932 -278 839 -278 q 987 -260 968 -260 q 1006 -278 987 -278 q 1024 -204 1006 -236 l 820 -204 z "},"굇":{"ha":1375,"x_min":41,"x_max":1321,"o":"m 115 1225 l 431 1225 q 690 1021 690 1225 q 746 762 717 962 q 653 613 713 613 q 542 762 587 613 q 560 817 560 798 l 505 1021 l 300 1021 q 282 1040 282 1021 l 245 1021 l 78 1021 l 41 1133 q 115 1225 77 1217 m 1173 1058 q 1210 1021 1173 1021 l 1210 1002 q 1303 334 1303 477 q 1228 223 1303 260 l 1192 223 q 1043 854 1130 223 q 1006 984 1024 854 q 1136 1058 1103 1058 l 1173 1058 m 375 798 q 486 353 486 798 l 764 353 q 802 316 802 347 l 802 279 q 616 168 761 168 l 505 168 q 96 334 96 168 l 171 409 l 208 409 q 319 372 258 409 q 263 687 282 650 q 375 798 309 798 m 913 149 q 1117 -56 1058 149 q 1321 -241 1321 -199 l 1247 -371 l 1192 -371 q 968 -148 968 -199 l 950 -148 q 783 -371 926 -148 l 690 -389 l 616 -371 q 635 -352 616 -352 l 616 -315 l 616 -278 q 746 -148 653 -185 q 913 149 831 63 z "},"굉":{"ha":1301,"x_min":41,"x_max":1247,"o":"m 134 1206 l 227 1188 l 542 1188 q 746 613 746 1170 q 709 557 709 613 l 597 557 q 486 984 519 984 l 338 984 q 263 966 296 984 q 41 1077 41 984 q 134 1206 71 1169 m 1024 1040 q 1247 446 1142 1040 q 1136 297 1233 297 q 968 873 1055 297 q 932 928 932 873 q 1024 1040 968 1040 m 375 762 q 486 390 449 762 l 728 390 q 764 353 764 385 l 764 316 q 671 186 764 219 q 616 205 652 186 q 319 186 427 186 l 263 186 q 152 241 167 186 l 152 316 q 189 390 189 361 l 263 390 l 300 372 q 263 650 300 414 q 375 762 300 762 m 820 168 l 895 168 q 1173 -130 1103 168 l 1173 -148 q 857 -427 1173 -427 q 597 -74 667 -427 q 820 168 635 168 m 783 -56 q 913 -241 783 -180 q 987 -185 987 -213 q 876 0 987 -36 q 783 -56 783 -24 z "},"교":{"ha":1097,"x_min":41,"x_max":1043,"o":"m 152 1021 l 616 1021 q 895 817 895 1021 q 913 465 895 667 q 802 390 895 390 l 783 390 q 690 817 746 390 l 78 817 l 41 909 q 152 1021 41 1021 m 319 427 q 449 -92 401 427 l 560 -92 l 560 -18 q 542 56 560 24 q 560 75 542 75 l 542 168 l 542 334 q 579 409 579 380 l 653 409 q 728 205 709 409 l 709 205 q 746 -111 728 186 l 932 -111 q 1043 -167 1043 -123 l 1043 -204 q 950 -315 1043 -315 l 913 -296 q 895 -315 895 -296 l 802 -296 l 709 -296 q 59 -130 59 -296 q 208 -18 98 -18 q 245 -56 214 -56 l 282 -56 q 208 334 208 208 q 319 427 208 427 z "},"굔":{"ha":949,"x_min":41,"x_max":895,"o":"m 96 1188 l 542 1188 q 802 928 802 1188 q 839 798 826 928 q 746 650 806 650 q 616 928 653 650 q 505 984 597 984 l 189 984 l 96 966 l 41 1040 l 41 1133 q 96 1188 41 1159 m 338 762 q 431 409 401 709 l 467 409 q 431 669 444 645 q 505 762 467 753 l 524 762 l 616 743 q 635 427 635 525 l 635 409 l 728 409 q 802 427 769 409 q 895 390 862 390 q 857 223 895 344 l 709 223 q 635 205 667 223 q 616 223 616 205 l 431 205 q 59 316 59 205 q 171 427 59 427 l 208 427 l 245 409 l 245 427 l 208 650 q 338 762 208 762 m 208 112 q 375 -111 375 112 q 653 -185 431 -185 q 709 -167 689 -167 l 709 -185 l 746 -167 q 839 -222 839 -204 q 560 -389 839 -389 l 560 -371 q 542 -389 542 -371 q 171 0 171 -389 q 208 112 171 12 z "},"굘":{"ha":1023,"x_min":41,"x_max":968,"o":"m 208 1281 q 524 1244 356 1244 l 560 1244 l 671 1262 q 876 909 843 1262 l 820 724 l 746 724 q 671 1040 690 724 q 616 1058 652 1040 l 542 1040 q 524 1058 524 1040 l 431 1040 q 263 1058 363 1040 l 227 1040 q 134 1114 142 1076 l 134 1151 q 208 1281 134 1230 m 542 817 l 560 817 q 635 780 606 780 q 653 465 635 682 l 820 465 q 895 483 862 465 q 968 427 968 455 l 968 334 q 913 260 913 288 l 876 279 l 486 279 l 393 260 l 393 279 l 356 260 l 282 260 q 263 279 263 260 q 245 260 245 279 q 41 353 41 297 l 41 372 q 134 483 41 483 l 263 465 l 263 483 l 245 743 q 282 798 282 743 l 300 798 q 431 576 431 798 l 449 465 l 486 483 q 449 705 472 515 q 542 817 475 782 m 263 149 l 560 149 q 857 0 857 149 l 857 -74 q 635 -278 857 -248 q 467 -352 635 -319 q 579 -408 467 -378 q 597 -389 597 -408 l 671 -408 q 820 -389 774 -389 l 839 -427 q 671 -593 791 -593 l 671 -575 q 653 -593 653 -575 q 263 -389 263 -593 q 486 -167 263 -167 q 671 -56 669 -92 l 542 -37 q 486 -56 506 -56 l 486 -37 l 449 -56 l 338 -56 q 189 75 189 -41 l 263 149 z "},"굡":{"ha":911,"x_min":41,"x_max":857,"o":"m 189 1355 l 189 1318 q 208 1337 208 1318 l 300 1318 l 375 1318 l 505 1337 l 505 1318 l 542 1337 l 579 1337 q 820 928 820 1337 q 746 798 820 829 l 709 798 q 616 1133 653 798 l 524 1133 l 338 1114 l 338 1133 q 282 1114 302 1114 q 78 1206 78 1114 l 78 1225 q 189 1355 78 1303 m 263 854 l 356 854 q 431 465 389 854 l 449 465 q 486 520 486 465 q 467 576 467 556 l 486 576 l 467 613 q 486 631 467 631 l 467 669 l 467 724 q 560 854 467 828 q 671 483 671 836 l 690 483 q 746 501 726 501 l 746 483 l 783 501 l 802 501 q 857 446 828 501 q 560 279 857 279 l 208 279 q 41 372 41 316 l 41 409 q 96 520 52 520 q 245 483 229 483 l 227 669 l 227 780 q 263 854 263 825 m 597 186 q 709 19 709 186 l 709 -92 q 597 -389 697 -389 l 393 -389 q 152 56 152 -389 q 189 149 189 117 l 263 149 q 338 19 305 149 q 412 0 412 19 q 542 130 542 0 l 597 186 m 375 -167 l 375 -185 l 505 -204 q 542 -167 542 -204 l 542 -148 q 375 -167 473 -167 z "},"굣":{"ha":1042,"x_min":41,"x_max":987,"o":"m 134 1225 q 282 1206 180 1225 q 671 1225 492 1225 q 876 817 806 1225 q 783 669 827 669 l 764 669 l 728 687 l 746 650 l 746 501 l 764 316 q 746 297 746 316 q 987 241 987 297 l 987 168 q 895 93 986 142 l 709 93 q 690 112 690 93 q 671 93 671 112 l 542 112 l 393 112 q 319 93 351 112 q 41 241 41 93 q 171 334 41 304 q 208 297 176 297 l 282 297 q 227 650 245 486 l 300 724 l 356 724 q 467 297 420 724 l 579 297 l 579 353 l 560 538 l 579 538 l 560 576 l 560 613 q 690 705 589 705 l 709 705 l 635 1021 l 375 1021 l 282 1002 l 282 1021 l 245 1002 l 134 1002 q 59 1114 97 1002 q 134 1225 97 1225 m 486 0 l 524 0 l 709 -241 q 895 -408 783 -278 q 802 -538 895 -538 q 524 -334 724 -538 l 524 -315 q 375 -500 410 -500 l 300 -500 q 263 -464 300 -464 q 282 -445 263 -445 l 263 -408 q 486 0 427 -20 z "},"구":{"ha":1042,"x_min":41,"x_max":987,"o":"m 189 1058 l 449 1058 q 467 1040 467 1058 l 505 1058 l 597 1040 q 671 1058 607 1040 q 820 520 776 1058 q 746 372 790 372 l 690 372 q 616 501 648 372 q 635 576 635 534 l 616 669 l 635 669 q 597 854 597 753 l 263 854 q 189 836 222 854 q 78 966 78 836 q 189 1058 78 1058 m 78 260 q 319 223 161 223 l 431 223 q 449 205 449 223 l 486 223 l 783 223 l 895 241 q 987 112 987 212 q 857 19 962 19 q 839 37 839 19 l 802 19 q 783 37 783 19 l 746 19 q 728 37 728 19 q 616 19 700 19 q 635 -315 635 -240 q 542 -371 574 -371 q 449 -148 467 -371 l 467 -148 l 449 -111 l 449 19 l 338 19 q 41 112 41 31 l 41 130 l 78 260 z "},"국":{"ha":1023,"x_min":41,"x_max":968,"o":"m 96 1225 l 300 1225 q 319 1206 319 1225 l 356 1225 l 671 1225 q 783 780 783 1187 q 690 650 783 650 q 597 780 597 680 l 616 780 l 597 817 l 597 1021 l 245 1021 l 152 1002 l 152 1021 l 115 1002 q 41 1077 86 1002 l 41 1114 q 96 1225 52 1225 m 152 594 q 467 538 189 557 q 876 576 594 538 q 968 427 968 576 q 616 353 968 353 l 597 353 l 616 168 l 616 130 q 542 75 616 75 q 431 353 431 75 l 375 353 q 78 446 78 365 l 78 465 q 152 594 78 564 m 245 93 q 449 56 317 56 l 542 56 l 635 75 l 635 56 l 671 75 l 746 75 q 876 -111 876 75 l 876 -204 q 783 -427 876 -427 q 690 -334 734 -420 l 709 -241 l 709 -111 l 671 -130 l 245 -130 q 152 -92 199 -92 l 152 -37 q 245 93 152 67 z "},"군":{"ha":1042,"x_min":41,"x_max":987,"o":"m 375 1281 q 431 1262 411 1262 q 505 1281 463 1281 l 505 1262 q 524 1281 524 1262 q 783 1151 783 1281 q 820 854 807 878 l 802 817 l 820 780 q 783 669 783 704 l 709 669 q 635 798 635 699 l 635 1021 q 597 1058 635 1058 l 375 1058 q 356 1077 356 1058 l 319 1058 l 300 1058 q 282 1077 282 1058 q 152 1040 188 1040 q 41 1151 96 1040 q 115 1262 79 1262 l 208 1262 q 375 1281 275 1262 m 913 594 q 987 427 968 594 l 913 372 l 764 372 l 671 353 l 709 112 q 671 56 671 112 l 560 56 q 505 334 505 200 l 227 334 q 134 446 134 388 q 208 576 159 576 q 393 538 345 538 q 913 594 640 538 m 282 75 q 412 -185 344 75 q 635 -241 477 -241 q 913 -222 728 -241 q 709 -427 913 -427 q 597 -445 625 -427 q 208 -92 208 -445 q 189 -18 189 -92 l 189 0 q 282 75 227 75 z "},"굳":{"ha":911,"x_min":41,"x_max":857,"o":"m 375 1299 q 449 1281 407 1281 l 597 1281 q 709 873 671 1281 q 616 705 709 757 q 524 817 524 718 l 524 1040 q 467 1095 524 1053 l 245 1077 l 115 1077 q 41 1151 86 1077 l 41 1225 q 96 1281 41 1252 l 300 1281 q 375 1299 342 1281 m 96 613 q 356 576 236 576 q 783 613 583 576 q 857 501 832 613 q 783 390 814 390 l 709 390 l 524 372 l 542 279 l 524 279 l 542 241 l 542 223 q 467 130 467 140 l 671 130 l 671 168 q 802 75 802 123 q 820 0 820 42 q 783 -56 783 0 l 671 -56 q 653 -37 653 -56 l 616 -56 l 338 -56 q 412 -241 361 -241 l 616 -241 q 728 -352 728 -241 q 653 -445 692 -437 q 227 -315 227 -445 q 171 -74 180 -279 l 171 56 l 189 93 q 171 112 171 93 l 208 112 l 189 149 q 263 168 231 149 l 375 149 l 412 149 q 338 372 361 208 q 59 446 59 372 q 41 501 41 481 l 96 613 z "},"굴":{"ha":986,"x_min":41,"x_max":932,"o":"m 134 1281 q 746 1170 746 1281 q 783 854 746 956 q 709 705 753 705 l 671 705 q 560 1058 602 705 l 282 1058 q 208 1077 240 1058 l 171 1058 q 78 1133 86 1094 l 78 1244 q 134 1281 134 1244 m 134 669 l 208 650 l 245 669 l 356 650 l 375 650 l 486 669 q 505 650 505 669 l 597 669 l 820 669 q 932 538 932 669 q 876 465 904 465 l 839 465 q 820 483 820 465 l 783 465 l 579 465 l 579 279 l 597 241 q 616 260 616 241 q 820 56 820 260 l 839 -56 q 412 -222 839 -209 l 393 -260 q 597 -334 412 -334 q 746 -296 715 -296 q 764 -315 746 -315 q 579 -519 764 -495 l 542 -519 q 227 -296 227 -461 l 227 -241 q 524 -37 227 -37 q 653 0 568 -37 l 653 19 q 616 56 653 56 l 208 56 q 171 93 208 93 l 171 149 q 245 260 171 241 l 356 241 l 412 241 q 431 279 412 279 l 393 409 q 412 465 412 445 l 115 465 q 41 538 86 465 q 134 669 56 669 z "},"굵":{"ha":1023,"x_min":41,"x_max":968,"o":"m 245 1281 l 245 1262 q 300 1281 281 1281 q 728 1188 728 1281 q 764 947 728 1133 l 746 947 l 764 909 l 764 891 q 671 705 764 747 q 579 798 623 718 l 579 1021 q 375 1077 579 1077 q 152 1058 182 1058 l 78 1133 q 245 1281 78 1281 m 96 650 l 282 631 l 746 631 q 913 594 792 631 l 913 576 q 895 557 913 557 q 913 501 913 521 q 857 427 885 427 l 597 427 l 597 390 q 616 316 597 349 q 486 186 616 224 q 412 427 431 271 q 59 501 59 427 l 59 594 l 96 650 m 115 168 l 208 168 q 227 149 227 168 l 263 168 l 375 168 q 524 -56 524 168 q 505 -130 505 -87 l 505 -185 q 375 -260 407 -260 q 227 -278 359 -260 l 227 -296 q 375 -352 238 -352 l 412 -352 l 505 -334 q 542 -371 511 -371 q 393 -538 534 -538 l 282 -538 q 41 -296 41 -502 l 41 -278 q 338 -74 41 -100 l 338 -37 l 171 -37 q 59 19 75 -37 l 59 56 q 115 168 71 168 m 635 75 q 950 -37 950 75 q 968 -185 968 -109 l 968 -296 q 876 -482 968 -431 q 764 -408 859 -482 q 783 -148 783 -369 q 764 -130 764 -148 l 671 -148 l 653 -148 q 579 -111 608 -111 l 579 -74 q 635 75 579 28 z "},"굶":{"ha":1097,"x_min":41,"x_max":1043,"o":"m 375 1355 l 467 1337 l 505 1355 q 560 1337 541 1337 l 597 1355 q 728 1188 728 1313 l 728 928 q 709 909 728 909 l 728 873 q 653 743 728 773 l 616 743 q 542 909 542 768 l 542 966 q 560 984 542 984 l 542 1021 l 542 1133 q 338 1151 502 1133 q 96 1133 268 1133 q 41 1262 41 1214 q 96 1337 96 1262 q 115 1318 115 1337 q 375 1355 149 1332 m 115 650 l 227 631 q 467 650 349 650 q 486 631 486 650 q 505 650 505 631 l 690 631 l 709 631 l 839 650 l 839 631 q 895 650 875 650 q 987 613 955 613 l 987 557 q 802 409 987 409 q 579 446 673 446 l 524 446 l 524 427 q 542 241 542 264 q 486 168 514 168 l 431 168 q 338 446 363 168 l 115 446 q 41 483 70 483 l 41 538 q 115 650 41 631 m 115 112 q 505 19 505 112 q 524 -111 524 -55 q 282 -371 475 -371 q 467 -427 282 -408 l 486 -464 q 338 -593 449 -593 l 319 -593 q 78 -389 78 -571 q 319 -148 78 -212 l 338 -111 l 208 -92 l 152 -92 l 115 -111 q 59 0 115 -85 l 115 112 m 635 37 l 857 37 q 1024 -130 1024 37 q 1043 -296 1024 -196 l 1024 -296 l 1043 -334 q 764 -557 1043 -557 q 597 -445 612 -515 q 579 0 579 -109 l 635 37 m 746 -167 q 783 -371 768 -332 q 876 -296 868 -335 q 820 -148 857 -148 q 746 -167 788 -167 z "},"굻":{"ha":1060,"x_min":41,"x_max":1006,"o":"m 189 1299 l 227 1281 l 635 1281 q 764 1095 764 1281 l 746 1002 l 764 966 l 746 928 q 764 909 746 909 q 690 705 736 705 q 579 854 579 705 l 579 928 q 597 947 579 947 q 542 1095 579 1095 q 486 1077 506 1077 l 486 1095 l 449 1077 q 431 1095 431 1077 l 393 1077 l 189 1077 q 134 1133 163 1077 l 134 1170 q 189 1299 134 1213 m 96 669 l 319 650 l 542 650 q 616 669 583 650 q 839 631 648 654 l 876 650 q 968 613 936 613 l 968 538 l 950 446 l 579 446 l 579 241 q 505 186 551 241 q 393 446 393 186 l 375 446 q 41 538 41 446 q 96 669 41 601 m 746 223 l 839 205 l 857 19 l 968 19 q 1006 -18 1006 13 l 1006 -111 q 968 -148 1006 -148 q 1006 -260 1006 -209 l 1006 -334 q 820 -519 981 -519 l 820 -500 q 802 -519 802 -500 q 560 -296 623 -519 q 597 -167 597 -203 q 505 -74 535 -167 q 542 19 542 -14 l 690 19 l 671 112 q 746 223 715 223 m 134 168 q 486 75 486 168 q 505 -18 505 44 q 282 -278 440 -278 l 282 -296 q 356 -334 311 -296 l 467 -315 q 524 -334 503 -334 q 338 -519 498 -519 q 96 -296 96 -464 q 319 -37 96 -170 q 59 56 59 -37 q 134 168 59 168 m 746 -260 l 746 -278 q 783 -315 751 -315 l 839 -315 l 839 -278 q 783 -222 839 -252 q 746 -260 746 -228 z "},"굼":{"ha":986,"x_min":41,"x_max":932,"o":"m 375 1225 l 375 1206 l 412 1225 l 542 1225 q 764 1170 760 1216 q 802 966 764 1065 l 783 928 q 802 762 802 828 l 802 705 q 671 631 772 631 q 616 705 644 705 l 635 836 q 579 1021 624 1021 l 560 1021 q 115 1002 376 1021 q 41 1058 41 1030 q 152 1206 41 1206 q 375 1225 345 1225 m 134 483 q 412 465 319 465 l 653 465 l 764 446 l 802 465 q 932 390 932 420 l 932 372 q 913 353 932 353 l 932 316 q 783 241 932 260 l 783 260 q 764 241 764 260 l 671 260 l 579 260 l 579 223 l 597 130 l 579 130 l 597 93 l 597 75 l 560 19 l 560 0 l 653 0 q 783 -167 783 0 q 635 -557 783 -557 l 597 -557 q 579 -538 579 -557 q 560 -557 560 -538 l 467 -538 l 263 -538 q 189 -464 235 -538 l 208 -427 q 152 -130 152 -306 q 245 19 152 -16 l 338 0 l 431 19 q 467 -18 436 -18 l 467 0 q 412 149 412 12 l 431 149 q 375 279 412 241 l 338 260 l 319 260 q 300 279 300 260 q 282 260 282 279 q 96 353 96 288 l 96 409 q 134 483 134 454 m 338 -185 l 338 -204 q 449 -352 338 -352 q 579 -371 505 -352 q 616 -278 597 -278 l 597 -241 l 616 -204 l 486 -167 q 412 -185 454 -185 l 412 -167 q 338 -185 379 -185 z "},"굽":{"ha":986,"x_min":41,"x_max":932,"o":"m 635 1244 q 764 947 764 1244 l 764 743 q 709 631 764 646 l 653 631 q 597 743 597 650 l 597 1021 q 560 1040 560 1021 l 524 1021 q 505 1040 505 1021 l 467 1021 l 338 1021 l 115 1002 q 78 1077 115 1031 l 78 1133 q 152 1225 127 1224 l 189 1225 q 208 1206 208 1225 l 245 1225 l 560 1225 q 635 1244 602 1225 m 820 538 l 820 520 l 857 538 q 932 483 932 511 l 932 390 l 876 316 l 690 334 l 579 334 l 597 149 l 597 130 q 542 19 597 34 l 449 19 q 375 316 406 316 l 78 316 q 41 390 78 390 l 41 427 q 134 520 65 427 q 820 538 675 538 m 709 112 l 728 112 q 839 -37 839 112 l 839 -241 q 524 -538 839 -538 l 431 -538 q 171 -222 240 -538 q 134 -56 134 -155 q 189 56 152 56 l 245 56 q 338 -111 279 56 q 635 -74 462 -111 q 653 -92 635 -92 l 671 -56 q 653 0 653 -20 q 709 112 709 86 m 467 -296 l 467 -278 q 412 -296 431 -296 l 412 -334 l 467 -334 q 671 -278 671 -334 l 671 -260 q 467 -296 647 -260 z "},"굿":{"ha":949,"x_min":41,"x_max":895,"o":"m 208 1225 l 431 1225 q 690 1058 690 1225 q 709 743 709 840 q 635 613 709 643 q 505 1021 505 613 l 96 1021 q 41 1095 68 1021 q 208 1225 41 1225 m 115 483 l 227 483 q 245 465 245 483 q 263 483 263 465 l 356 465 l 467 465 l 653 483 l 653 465 q 671 483 671 465 q 895 409 895 465 l 895 297 l 857 241 l 635 260 l 560 260 l 579 223 l 579 93 q 505 19 579 64 l 467 19 q 375 260 417 19 l 356 260 q 41 390 41 260 q 115 483 77 475 m 431 -18 q 524 -204 505 -18 q 802 -408 802 -345 q 709 -519 776 -484 l 635 -519 q 431 -371 635 -469 l 431 -352 l 375 -352 q 245 -482 375 -482 l 227 -482 q 171 -427 199 -482 q 431 -18 325 -38 z "},"궁":{"ha":911,"x_min":41,"x_max":857,"o":"m 356 1225 l 356 1206 l 393 1225 l 412 1225 q 728 1133 728 1225 q 764 705 764 887 l 690 650 l 635 650 q 579 762 579 669 l 579 817 q 597 836 579 836 q 524 1021 566 1021 l 467 1021 q 115 984 263 1021 q 41 1095 41 1002 q 263 1225 41 1225 l 356 1225 m 78 520 q 635 501 449 501 l 764 501 l 857 483 l 857 372 q 783 297 857 342 q 579 316 706 297 q 505 297 547 297 q 542 149 542 229 l 542 75 q 467 37 513 75 l 431 37 q 319 316 369 37 l 171 316 q 41 390 71 316 l 78 520 m 393 -37 l 412 -37 q 690 -167 624 -37 q 746 -296 746 -209 l 746 -315 q 542 -631 746 -631 q 208 -278 256 -631 l 208 -241 q 393 -37 245 -37 m 393 -222 l 393 -260 q 542 -445 393 -391 q 579 -371 579 -400 q 393 -222 579 -222 z "},"궂":{"ha":986,"x_min":41,"x_max":932,"o":"m 486 1299 l 579 1299 q 597 1281 597 1299 l 635 1299 l 653 1299 q 728 966 728 1135 l 728 891 q 653 762 728 791 l 597 762 q 542 873 542 780 l 542 1095 q 486 1114 486 1095 q 78 1058 357 1077 q 41 1170 41 1119 q 96 1262 78 1262 q 486 1299 389 1299 m 208 613 l 263 613 q 282 594 282 613 l 319 613 l 857 613 q 913 557 884 613 l 913 465 q 857 409 913 437 l 635 409 l 635 241 q 579 130 635 145 q 467 279 467 130 l 467 409 l 412 409 q 338 390 370 409 q 263 409 305 409 l 171 409 q 115 501 171 441 q 208 613 140 578 m 319 112 l 375 112 q 393 93 393 112 l 431 112 l 616 112 q 802 37 802 89 l 802 -56 l 764 -185 l 932 -315 l 932 -427 q 876 -482 932 -453 l 820 -482 l 616 -315 q 505 -445 505 -425 l 412 -445 q 356 -371 384 -445 q 579 -92 356 -294 l 579 -74 l 393 -92 l 319 -92 q 245 37 245 -62 l 319 112 z "},"궈":{"ha":1301,"x_min":41,"x_max":1247,"o":"m 560 1114 q 690 798 690 1114 q 709 613 709 636 q 635 501 671 501 l 579 501 q 524 613 524 520 l 524 854 l 505 891 l 134 854 q 41 947 84 854 q 115 1077 66 1077 l 263 1077 q 560 1114 480 1077 m 1117 854 q 1247 168 1192 854 q 1173 0 1216 0 q 1061 56 1076 0 l 1061 223 q 950 372 1061 372 l 764 372 l 764 353 l 820 353 l 820 241 q 746 168 820 212 l 542 168 l 560 -18 l 560 -74 q 486 -185 560 -167 q 375 149 375 -185 l 245 149 q 134 205 149 149 l 134 223 q 208 372 134 301 q 263 353 227 372 q 653 372 505 372 l 728 372 l 690 446 q 839 576 690 557 q 857 557 857 576 l 895 576 l 1006 557 l 1024 557 q 1006 798 1024 568 q 1117 854 1078 854 z "},"궉":{"ha":1339,"x_min":41,"x_max":1284,"o":"m 96 1244 l 152 1244 q 171 1225 171 1244 q 227 1244 207 1244 q 282 1225 246 1244 l 393 1244 q 467 1225 435 1244 q 486 1244 486 1225 q 690 1021 690 1244 l 690 836 q 579 724 690 724 l 542 724 l 524 817 l 524 984 q 431 1040 524 1016 q 412 1021 412 1040 l 319 1040 l 189 1021 l 189 1040 l 152 1021 l 115 1021 q 41 1151 41 1051 q 96 1244 96 1212 m 1117 1040 l 1173 1040 q 1247 1002 1218 1002 q 1284 297 1284 547 q 1192 205 1272 248 q 1099 316 1136 216 q 1117 353 1099 353 l 1099 483 l 1099 631 l 932 631 q 728 705 728 659 l 728 762 q 839 873 728 873 q 987 836 907 836 l 1080 836 q 1061 947 1080 850 q 1117 1040 1117 1018 m 134 613 l 189 613 q 486 594 296 613 l 524 613 l 560 594 q 616 613 596 613 l 616 594 l 653 613 l 728 613 l 820 594 l 820 465 q 764 409 820 437 l 560 409 l 560 372 l 579 186 l 560 186 q 579 130 579 150 q 467 56 560 56 l 431 56 q 393 130 431 85 l 393 390 l 300 409 l 134 409 q 96 483 134 437 l 96 538 q 134 613 134 584 m 709 205 q 1228 56 1228 205 l 1228 -185 q 1117 -315 1214 -315 q 1043 -241 1061 -302 q 1061 -37 1061 -114 l 1061 -18 l 932 0 l 728 0 q 653 93 689 8 q 709 205 709 179 z "},"권":{"ha":1394,"x_min":41,"x_max":1340,"o":"m 524 1225 q 671 854 671 1188 l 671 687 l 746 762 l 1099 762 l 1099 780 l 1080 909 l 1173 984 l 1192 984 q 1284 836 1284 932 l 1265 836 l 1340 427 q 1321 372 1321 391 q 1340 316 1321 352 q 1247 149 1340 200 l 1228 149 q 1136 557 1146 149 l 746 557 q 690 650 696 557 l 671 650 q 597 576 671 576 q 486 984 486 576 l 449 1002 l 115 1002 q 41 1114 41 1040 q 78 1206 78 1174 l 412 1206 l 524 1225 m 764 538 q 820 501 764 501 l 820 372 q 560 297 820 329 l 579 75 l 579 56 q 524 0 579 29 l 467 0 q 356 297 412 0 l 189 297 q 78 409 78 297 l 115 520 q 227 483 227 507 l 263 501 q 356 483 326 501 q 764 538 442 483 m 839 130 l 857 130 q 950 -148 913 130 q 1080 -167 1080 -148 q 1099 -148 1099 -167 q 1303 -204 1303 -162 q 1154 -352 1303 -352 l 1061 -352 q 987 -334 1020 -352 l 950 -352 q 728 0 760 -352 l 728 37 q 839 130 739 130 z "},"궐":{"ha":1413,"x_min":41,"x_max":1358,"o":"m 505 1299 q 690 984 690 1299 l 690 798 q 616 724 690 769 q 505 1077 505 724 q 393 1095 421 1077 q 152 1058 194 1072 q 41 1151 71 1077 l 41 1188 q 96 1281 96 1249 l 431 1281 q 505 1299 472 1281 m 1210 1077 q 1340 705 1293 1077 l 1340 669 l 1321 669 q 1358 427 1340 627 q 1265 260 1358 311 q 1173 557 1173 260 q 1117 687 1173 624 l 1080 669 l 1043 687 l 932 669 l 932 687 l 895 669 l 802 669 q 728 798 764 669 q 1117 891 728 891 l 1117 947 q 1210 1077 1117 1077 m 300 631 q 319 613 319 631 l 449 631 l 802 631 q 857 501 832 631 q 802 427 829 427 l 653 427 l 616 446 l 597 409 q 635 186 597 361 l 616 186 l 635 149 l 635 130 q 505 37 597 37 q 412 427 453 91 l 375 427 q 171 409 335 427 q 96 520 96 427 l 96 538 q 134 613 134 584 l 227 613 q 300 631 268 613 m 1080 334 q 1247 112 1204 334 l 1247 -56 q 895 -222 1183 -222 l 895 -260 q 932 -296 900 -296 l 1192 -296 l 1228 -315 q 1061 -500 1210 -500 l 950 -500 q 690 -241 738 -500 q 1006 -18 690 -18 l 1080 56 q 1061 112 1061 92 l 857 112 q 783 93 816 112 q 671 186 702 112 l 671 205 q 1080 334 705 334 z "},"궜":{"ha":1468,"x_min":41,"x_max":1414,"o":"m 115 1392 l 505 1392 q 671 1021 671 1392 l 671 891 q 616 836 671 865 l 560 836 q 467 1170 511 836 q 393 1206 393 1184 l 96 1170 l 41 1262 q 115 1392 41 1362 m 1006 984 l 1080 984 q 1228 241 1147 984 l 1228 205 q 1192 130 1192 159 l 1136 130 q 1061 279 1061 156 q 820 260 942 279 q 653 334 653 283 l 653 353 q 709 483 653 415 l 839 465 l 1024 465 l 1024 501 l 950 909 q 1006 984 978 984 m 152 724 q 227 705 227 724 l 356 724 l 728 724 q 839 669 839 713 l 839 631 q 764 501 839 553 l 671 520 l 560 520 l 579 297 l 579 186 q 505 112 579 157 l 486 112 q 393 520 393 112 l 152 520 q 78 594 123 520 q 152 724 78 694 m 690 75 q 746 37 690 37 l 746 -37 l 728 -130 l 932 -296 l 950 -296 q 1080 56 1017 56 l 1136 56 l 1192 19 l 1173 -111 l 1173 -130 l 1414 -352 l 1414 -427 q 1284 -482 1327 -482 l 1136 -352 l 1099 -352 q 1006 -519 1099 -472 l 968 -519 q 783 -445 918 -468 q 616 -315 680 -315 q 524 -445 578 -416 l 467 -445 q 412 -334 412 -427 q 635 75 581 31 l 690 75 z "},"궝":{"ha":1320,"x_min":41,"x_max":1265,"o":"m 152 1206 l 449 1206 q 597 854 597 1206 q 616 705 616 752 l 560 669 l 486 669 q 393 1077 427 669 l 78 1077 q 41 1133 41 1077 q 152 1206 59 1206 m 1154 984 q 1265 334 1265 668 l 1192 279 l 1154 279 q 1061 650 1087 279 l 764 650 q 635 798 635 650 l 728 817 l 987 817 q 1043 984 1021 817 l 1154 984 m 728 594 l 783 520 l 783 446 q 542 372 542 446 q 597 130 542 292 q 524 37 562 45 l 467 37 q 375 409 401 37 l 356 409 q 282 390 323 390 l 282 409 l 245 390 l 96 390 l 78 483 q 728 594 78 557 m 932 279 q 1192 19 1192 258 q 987 -296 1192 -248 l 968 -296 q 671 0 671 -245 l 653 37 q 932 279 653 209 m 839 56 l 839 0 q 987 -92 886 -92 q 1024 -56 1024 -92 l 1024 37 q 968 93 1024 64 l 876 93 q 839 56 839 87 z "},"궤":{"ha":1561,"x_min":41,"x_max":1507,"o":"m 412 1077 l 505 1077 q 635 817 635 1077 q 653 631 653 812 q 560 520 653 532 q 449 891 449 520 l 412 891 q 78 854 87 854 l 41 909 l 41 1021 q 412 1077 203 1077 m 1080 854 q 1192 613 1179 854 l 1173 613 q 1247 37 1204 613 q 1136 -74 1236 -74 q 1043 353 1043 -74 l 1043 409 l 932 409 l 839 390 l 839 409 l 802 390 l 764 390 q 653 446 668 390 l 653 520 q 913 594 653 594 l 1006 594 l 1006 798 q 1080 854 1006 845 m 1321 817 l 1377 817 q 1507 56 1472 817 q 1396 19 1446 19 q 1265 743 1314 19 q 1321 817 1293 817 m 728 372 q 839 223 839 333 q 728 168 820 168 l 597 168 l 597 149 q 616 -130 597 104 q 524 -204 609 -180 q 412 168 431 -204 l 282 149 l 282 168 l 245 149 q 134 205 149 149 l 134 241 q 300 353 134 353 q 728 372 639 353 z "},"궷":{"ha":1524,"x_min":41,"x_max":1470,"o":"m 134 1244 q 152 1225 152 1244 l 189 1244 l 486 1244 q 616 798 593 1244 l 560 762 l 486 762 q 431 873 431 780 l 431 1058 l 338 1058 l 115 1040 l 78 1095 l 78 1188 q 134 1244 78 1215 m 987 1095 l 1080 1095 q 1210 409 1161 1095 l 1210 353 q 1154 297 1210 326 l 1099 297 q 1006 669 1050 297 l 839 669 q 820 687 820 669 l 783 669 q 653 798 653 669 l 653 817 q 709 873 653 844 l 987 873 l 968 966 l 968 1002 l 987 1095 m 1265 1077 l 1321 1077 q 1396 928 1370 1077 l 1377 928 q 1414 780 1414 814 l 1396 780 q 1470 409 1432 694 q 1396 279 1444 279 l 1358 279 q 1210 1002 1257 279 q 1265 1077 1238 1077 m 134 594 l 709 594 q 783 483 746 594 q 579 390 783 409 q 560 409 579 409 l 542 372 l 560 149 q 524 93 524 149 q 375 353 375 93 l 375 390 q 338 409 338 390 q 319 390 319 409 q 171 409 217 409 q 115 390 135 390 q 41 576 64 441 l 134 594 m 950 279 q 1321 -92 1082 279 q 1358 -185 1358 -92 q 1321 -241 1321 -185 l 1228 -241 q 987 37 1201 -241 q 802 -185 900 -185 q 728 -92 728 -167 q 950 279 871 279 z "},"귀":{"ha":1357,"x_min":41,"x_max":1303,"o":"m 115 984 l 542 984 q 746 465 746 984 q 653 372 746 415 q 542 743 542 372 q 449 798 497 798 l 356 780 l 356 798 l 319 780 l 115 780 q 41 854 86 780 q 115 984 66 984 m 1006 780 q 1228 372 1179 780 q 1303 -56 1303 56 q 1173 -111 1235 -111 q 1099 19 1099 -14 l 1117 19 l 968 724 l 968 743 q 1006 780 1006 743 m 227 260 q 467 223 393 223 l 764 241 q 876 112 876 194 q 820 37 848 37 l 653 37 l 653 0 l 671 -130 l 653 -130 l 671 -167 l 671 -296 l 579 -315 l 560 -315 q 467 37 490 -315 l 449 37 q 393 19 393 37 q 152 75 256 37 l 152 205 q 227 260 152 223 z "},"귁":{"ha":1394,"x_min":41,"x_max":1340,"o":"m 96 1225 l 542 1225 q 764 705 720 1225 q 690 613 728 621 l 653 613 q 560 780 560 660 l 579 780 q 467 1040 554 1040 l 431 1021 q 412 1040 412 1021 l 282 1021 l 59 1021 l 41 1151 l 41 1170 q 96 1225 41 1196 m 1154 966 q 1340 186 1255 966 l 1321 186 q 1303 149 1303 186 l 1228 149 q 1099 631 1144 149 q 1061 928 1061 631 q 1154 966 1122 966 m 152 538 l 375 520 l 802 520 q 876 409 876 483 q 616 316 876 316 q 653 75 653 93 q 560 -18 653 25 q 431 316 452 -18 l 375 316 q 115 372 215 316 l 115 483 l 152 538 m 820 130 l 857 130 q 1265 -74 1265 130 q 1284 -204 1265 -130 q 1173 -352 1284 -352 l 1154 -352 q 1080 -92 1093 -352 l 968 -74 l 932 -92 q 783 0 839 -92 l 783 93 q 820 130 789 130 z "},"귄":{"ha":1431,"x_min":41,"x_max":1377,"o":"m 96 1188 l 393 1188 q 412 1170 412 1188 q 431 1188 431 1170 q 764 873 764 1188 l 764 613 q 653 557 746 557 q 597 613 627 557 l 597 631 q 524 966 597 966 q 431 984 492 984 l 115 984 l 41 1040 q 96 1188 59 1188 m 1228 909 l 1265 909 q 1358 409 1358 909 q 1377 353 1358 389 q 1358 334 1377 334 l 1377 241 l 1377 168 q 1321 56 1377 71 l 1265 56 q 1192 168 1192 93 q 1173 873 1173 625 l 1228 909 m 208 501 q 690 446 465 446 l 820 465 q 913 334 913 439 q 653 241 913 260 q 690 56 690 104 q 560 -37 665 -37 q 467 260 505 12 q 134 353 134 290 l 134 483 q 208 501 143 483 m 839 37 q 950 -260 950 37 l 1043 -278 l 1228 -278 q 1284 -334 1255 -278 l 1284 -427 q 1117 -482 1284 -482 q 764 -260 764 -482 l 764 -56 l 746 -18 l 839 37 z "},"귈":{"ha":1431,"x_min":41,"x_max":1377,"o":"m 152 1299 l 431 1299 q 449 1281 449 1299 l 486 1299 q 505 1281 505 1299 q 524 1299 524 1281 q 746 1021 746 1299 q 764 873 764 1002 l 764 798 q 709 743 764 772 l 616 743 q 579 873 616 754 l 597 909 q 524 1095 570 1095 l 78 1095 q 41 1170 78 1124 l 41 1244 q 152 1299 59 1299 m 1192 1058 l 1228 1058 q 1358 279 1358 1058 q 1377 260 1377 279 l 1247 205 q 1136 984 1173 205 q 1192 1058 1164 1058 m 171 650 q 431 613 368 613 l 653 613 q 728 631 695 613 q 802 613 760 613 l 895 613 q 932 538 895 584 l 932 465 q 764 409 932 420 l 671 427 l 653 390 q 690 168 671 199 q 635 93 663 93 l 616 93 q 486 334 486 93 l 486 409 q 96 576 96 409 q 171 650 115 650 m 876 260 q 1265 75 1265 260 q 1284 0 1284 42 l 1265 0 q 1284 -56 1284 -36 q 932 -315 1284 -237 l 932 -334 l 1061 -371 l 1173 -371 l 1265 -352 l 1303 -408 q 1061 -557 1303 -557 l 1043 -557 q 764 -389 877 -557 l 764 -315 q 1043 -74 764 -115 q 1099 -18 1069 -74 l 1099 19 q 932 75 1099 52 l 895 56 l 876 56 q 764 112 780 56 l 764 149 q 876 260 764 260 z "},"귐":{"ha":1339,"x_min":41,"x_max":1284,"o":"m 96 1188 l 227 1170 l 542 1170 q 671 724 644 1170 q 616 631 648 631 l 524 631 q 486 705 524 661 l 486 780 q 412 984 486 966 q 393 966 393 984 l 300 984 l 171 966 l 171 984 l 134 966 l 115 966 q 41 1002 70 1002 l 41 1114 l 96 1188 m 1099 891 l 1136 891 q 1247 687 1247 827 l 1228 687 l 1247 650 l 1247 576 q 1228 557 1247 557 q 1284 205 1265 509 q 1210 93 1240 93 l 1154 93 q 1099 168 1108 93 q 1043 817 1099 360 q 1099 891 1071 891 m 115 576 q 579 538 393 538 l 746 538 q 820 390 798 538 q 690 334 752 334 q 671 353 671 334 q 579 334 641 334 l 579 297 q 616 130 579 251 q 505 19 616 48 q 412 168 412 54 q 431 186 412 186 q 227 372 431 372 q 208 353 208 372 q 59 409 173 353 l 59 520 q 115 576 59 547 m 1006 75 q 1173 -278 1127 75 q 1006 -500 1154 -500 l 1006 -482 l 968 -500 l 746 -500 q 597 -241 597 -448 l 597 -92 q 709 56 597 56 l 1006 75 m 764 -167 q 820 -315 783 -315 q 987 -296 920 -296 l 987 -222 l 968 -130 l 820 -130 l 764 -167 z "},"귑":{"ha":1320,"x_min":41,"x_max":1265,"o":"m 152 1225 l 560 1225 q 783 743 751 1225 q 709 650 747 658 l 653 650 q 560 1021 602 650 q 524 1040 524 1021 l 486 1021 l 375 1021 q 356 1040 356 1021 l 319 1021 l 96 1021 q 41 1077 70 1021 l 41 1114 q 152 1225 41 1225 m 1080 966 l 1117 966 q 1265 260 1210 966 l 1265 241 q 1210 130 1265 145 l 1117 130 l 1080 241 l 1099 241 q 1006 836 1038 745 q 1080 966 1038 966 m 171 576 q 449 557 356 557 l 839 557 q 895 446 895 538 l 895 409 q 783 353 876 353 l 690 353 q 671 316 690 316 l 690 223 l 690 149 q 597 19 690 19 q 505 353 505 19 l 449 353 q 134 446 134 353 l 134 483 q 171 576 134 515 m 820 37 q 913 -111 913 3 l 913 -167 l 1043 -167 l 1080 -148 l 1061 -111 l 1061 -56 q 1099 37 1099 -9 l 1192 37 q 1228 -18 1192 -18 q 1247 -296 1247 -203 l 1247 -315 q 1080 -612 1247 -527 l 968 -612 q 746 -334 746 -612 q 728 -148 746 -213 l 746 -148 l 728 -111 q 764 0 728 -60 q 746 19 746 0 q 820 37 788 19 m 932 -352 l 932 -408 l 1024 -408 q 1061 -371 1061 -408 l 1061 -352 l 932 -352 z "},"귓":{"ha":1413,"x_min":41,"x_max":1358,"o":"m 524 1133 q 746 650 746 1103 l 746 631 q 690 483 746 597 q 524 928 545 483 q 486 947 486 928 l 449 928 q 431 947 431 928 q 78 891 182 922 l 41 1021 l 41 1040 q 524 1133 73 1133 m 1117 836 l 1154 836 q 1358 112 1232 836 q 1284 19 1322 27 l 1228 19 q 1043 780 1162 19 l 1117 836 m 820 390 q 913 223 913 390 q 802 186 852 186 l 671 186 q 690 -92 690 -47 l 616 -148 l 560 -148 q 486 168 505 -148 l 245 168 q 134 223 149 168 l 134 260 q 189 372 145 372 q 431 353 347 353 q 505 372 439 353 l 505 353 l 542 372 l 709 372 l 820 390 m 968 19 l 1006 19 q 1265 -241 1149 -157 q 1284 -315 1284 -273 l 1284 -352 q 1228 -408 1284 -379 l 1210 -408 q 1006 -260 1100 -408 l 968 -260 q 820 -445 930 -445 l 764 -445 l 746 -352 l 895 0 q 968 19 927 19 z "},"규":{"ha":1004,"x_min":41,"x_max":950,"o":"m 115 1114 l 300 1095 l 709 1095 q 913 687 913 1095 l 913 557 q 857 446 913 461 l 764 446 q 728 557 764 477 q 746 613 746 593 l 728 650 q 746 669 728 669 q 671 909 714 909 l 319 909 q 245 891 277 909 q 171 909 212 909 l 134 891 q 41 1021 41 921 q 115 1114 42 1048 m 876 241 q 950 93 950 231 q 876 37 950 37 l 913 -315 q 857 -389 885 -389 l 839 -389 q 709 -130 709 -389 q 690 37 709 -63 l 597 37 q 579 -18 597 -18 q 616 -278 593 -42 q 542 -371 580 -363 l 486 -371 q 393 19 427 -371 q 152 149 152 19 q 208 223 180 223 l 245 223 q 876 241 488 223 z "},"균":{"ha":986,"x_min":41,"x_max":932,"o":"m 431 1262 q 783 966 783 1262 l 783 947 q 709 705 783 705 l 635 705 q 597 780 635 734 l 597 1002 q 542 1058 597 1029 l 319 1058 l 189 1040 l 189 1058 q 134 1040 153 1040 q 41 1133 41 1071 q 96 1244 59 1244 l 356 1244 q 431 1262 398 1244 m 171 594 q 338 557 338 583 q 356 576 356 557 l 449 557 q 524 576 491 557 q 597 557 555 557 q 709 576 612 557 l 746 557 q 820 576 779 576 l 857 576 q 932 446 932 545 q 876 372 904 372 l 764 372 l 764 112 q 653 0 764 0 q 597 56 627 0 l 597 75 q 542 372 597 372 l 486 372 q 524 130 505 344 q 449 19 486 19 l 412 19 q 319 353 331 19 l 263 390 l 152 390 l 115 520 l 115 538 q 171 594 115 565 m 227 -18 l 282 -18 q 412 -260 313 -18 q 560 -296 479 -296 l 616 -296 l 728 -278 q 783 -296 764 -296 l 783 -352 q 560 -500 783 -500 q 189 -185 189 -473 q 171 -111 171 -153 q 227 -18 195 -18 z "},"귤":{"ha":930,"x_min":41,"x_max":876,"o":"m 486 1299 q 709 1058 672 1299 l 709 836 q 653 724 709 739 l 560 724 q 524 854 560 760 q 542 909 542 890 q 524 966 524 945 l 542 966 q 467 1095 516 1095 l 78 1058 l 41 1114 l 41 1206 q 486 1299 41 1267 m 802 631 l 876 520 q 802 409 838 409 l 709 409 l 709 241 q 690 112 690 161 q 820 -37 820 112 l 820 -92 q 449 -315 820 -270 l 449 -352 l 542 -371 l 764 -352 l 783 -389 l 783 -427 q 635 -557 783 -557 l 431 -557 q 245 -334 245 -438 q 616 -92 245 -134 l 616 -56 q 597 -74 597 -56 q 449 -37 449 -62 l 412 -56 q 393 -37 393 -56 q 338 -56 357 -56 q 208 19 208 -30 l 208 93 q 300 149 208 136 q 319 130 300 130 l 319 149 q 245 409 288 214 q 59 501 115 409 q 96 613 73 613 q 579 594 224 613 q 802 631 627 594 m 449 409 l 449 390 l 467 297 l 449 297 q 467 241 467 261 l 412 149 l 449 130 l 579 130 q 524 409 524 195 l 449 409 z "},"귬":{"ha":967,"x_min":41,"x_max":913,"o":"m 671 1281 q 820 836 820 1216 q 690 705 796 705 q 635 762 663 705 l 635 928 q 579 1077 635 1065 l 59 1077 l 41 1151 q 115 1262 79 1262 l 152 1262 q 171 1244 171 1262 q 227 1262 207 1262 q 671 1281 656 1281 m 839 613 q 913 501 913 594 l 913 446 q 746 372 913 413 q 783 205 746 290 q 728 75 764 131 q 857 -204 807 75 l 839 -204 q 857 -222 839 -222 q 560 -519 857 -519 q 227 -185 227 -519 q 208 -111 208 -185 l 208 -18 q 393 56 208 56 q 338 353 338 158 q 356 372 356 353 q 338 390 338 372 q 319 372 319 390 q 41 501 41 372 l 96 594 l 319 576 l 393 576 q 671 594 486 576 l 671 576 q 839 613 704 594 m 524 390 l 524 168 q 467 75 524 75 l 467 56 l 579 56 l 616 75 q 635 56 616 56 l 635 75 q 560 390 579 75 l 524 390 m 393 -148 q 431 -315 431 -288 l 542 -315 l 671 -296 l 671 -130 l 653 -130 q 597 -148 633 -130 l 486 -130 l 431 -130 l 393 -148 z "},"그":{"ha":1135,"x_min":41,"x_max":1080,"o":"m 635 1077 q 783 687 759 1077 l 764 687 l 783 650 l 783 353 q 728 297 783 326 l 709 297 q 579 390 616 297 l 579 798 l 560 928 l 375 909 l 152 909 q 41 966 56 909 l 41 1040 l 134 1058 q 635 1077 264 1058 m 115 37 q 171 19 151 19 q 857 37 263 19 l 857 19 l 895 37 q 913 19 913 37 l 950 37 q 1080 -56 1066 0 l 1080 -92 q 1006 -148 1080 -111 l 913 -130 l 802 -130 q 227 -167 330 -130 q 78 -37 78 -120 q 115 37 115 -37 z "},"극":{"ha":1004,"x_min":41,"x_max":950,"o":"m 597 1262 q 746 1021 746 1196 l 746 873 q 690 724 746 736 l 635 724 q 542 891 542 775 q 560 1040 560 994 q 524 1095 542 1095 q 134 1077 197 1077 l 78 1151 l 96 1244 q 597 1262 144 1244 m 895 520 l 950 446 l 950 390 q 189 316 950 334 q 41 390 145 316 l 41 483 l 134 501 l 152 501 q 356 483 229 501 l 393 501 q 412 483 412 501 q 895 520 619 520 m 227 149 q 505 130 412 130 l 764 130 q 876 19 861 82 q 857 -37 857 -17 l 876 -74 q 857 -92 876 -92 l 876 -222 l 876 -241 q 802 -371 876 -340 l 746 -371 q 671 -296 717 -371 l 671 -37 l 412 -37 q 189 37 189 -37 l 189 130 q 227 149 227 130 z "},"근":{"ha":1153,"x_min":41,"x_max":1099,"o":"m 653 1188 l 709 1188 q 950 966 950 1158 l 950 594 q 857 538 950 552 q 746 798 746 538 l 764 891 q 709 1021 746 1021 l 597 1021 l 505 1002 l 505 1021 q 300 984 466 1006 l 300 1002 q 245 984 264 984 l 208 1002 q 134 984 175 984 q 41 1040 73 1040 q 59 1058 41 1058 l 41 1095 l 41 1114 q 189 1170 52 1170 l 189 1151 l 227 1170 q 245 1151 245 1170 l 282 1170 l 300 1170 q 319 1151 319 1170 q 653 1188 413 1188 m 171 372 q 505 353 429 353 q 987 372 623 353 l 987 353 l 1024 372 q 1099 241 1099 341 q 1061 205 1099 205 q 616 168 616 186 q 152 316 152 168 q 171 372 171 352 m 393 56 q 505 -185 467 56 q 709 -222 709 -200 l 746 -204 q 895 -315 895 -204 l 895 -352 q 820 -408 895 -380 q 467 -371 509 -371 q 356 -296 467 -340 q 282 19 300 -230 q 393 56 343 56 z "},"귿":{"ha":1004,"x_min":41,"x_max":950,"o":"m 115 1151 l 690 1151 q 839 669 815 1094 q 802 613 802 669 l 690 613 q 635 669 663 613 l 635 928 q 579 984 635 955 l 431 984 l 338 966 l 338 984 l 300 966 q 282 984 282 966 l 245 966 l 171 966 q 78 1040 79 1014 l 78 1114 q 115 1151 83 1151 m 96 465 q 319 427 225 427 l 467 427 q 876 446 597 427 q 950 334 950 352 q 505 241 950 241 q 41 372 41 241 l 96 465 m 300 112 q 319 93 319 112 q 338 112 338 93 l 431 93 l 709 93 q 857 -37 857 93 q 746 -92 839 -92 l 746 -74 l 709 -92 q 412 -74 519 -74 l 356 -74 l 356 -92 q 486 -296 356 -296 l 690 -296 q 764 -408 721 -296 q 709 -482 736 -482 l 505 -482 q 486 -464 486 -482 l 449 -482 q 189 -92 189 -420 q 171 56 189 -16 q 300 112 239 112 z "},"글":{"ha":1004,"x_min":41,"x_max":950,"o":"m 653 1262 q 764 743 729 1262 q 671 669 746 669 q 560 798 560 722 q 579 817 560 817 l 542 1114 l 505 1114 q 78 1058 449 1114 q 41 1151 41 1118 q 505 1262 41 1225 l 653 1262 m 857 483 q 876 465 857 465 q 895 483 876 483 q 950 390 895 461 q 876 316 932 316 q 171 279 433 316 q 59 353 59 317 q 635 465 59 465 l 690 465 l 690 446 q 857 483 776 483 m 709 186 q 839 37 839 163 l 820 37 l 839 0 l 839 -56 q 449 -278 839 -229 l 449 -315 l 746 -315 q 857 -371 857 -327 l 857 -427 q 728 -519 820 -519 l 467 -519 q 245 -260 282 -519 q 635 -56 245 -115 l 653 -18 l 653 19 l 300 -18 q 208 56 215 6 q 653 168 208 168 q 709 186 653 186 z "}}}
